<!--
  - Copyright (c) 2023, Terwer . All rights reserved.
  - DO NOT ALTER OR REMOVE COPYRIGHT NOTICES OR THIS FILE HEADER.
  -
  - This code is free software; you can redistribute it and/or modify it
  - under the terms of the GNU General Public License version 2 only, as
  - published by the Free Software Foundation.  Terwer designates this
  - particular file as subject to the "Classpath" exception as provided
  - by Terwer in the LICENSE file that accompanied this code.
  -
  - This code is distributed in the hope that it will be useful, but WITHOUT
  - ANY WARRANTY; without even the implied warranty of MERCHANTABILITY or
  - FITNESS FOR A PARTICULAR PURPOSE.  See the GNU General Public License
  - version 2 for more details (a copy is included in the LICENSE file that
  - accompanied this code).
  -
  - You should have received a copy of the GNU General Public License version
  - 2 along with this work; if not, write to the Free Software Foundation,
  - Inc., 51 Franklin St, Fifth Floor, Boston, MA 02110-1301 USA.
  -
  - Please contact Terwer, Shenzhen, Guangdong, China, youweics@163.com
  - or visit www.terwer.space if you need additional information or have any
  - questions.
  -->

<svg xmlns="http://www.w3.org/2000/svg" viewBox="0 0 320 512"><!--! Font Awesome Free 6.3.0 by @fontawesome - https://fontawesome.com License - https://fontawesome.com/license/free (Icons: CC BY 4.0, Fonts: SIL OFL 1.1, Code: MIT License) Copyright 2023 Fonticons, Inc. --><path d="M304 160c0-70.7-57.3-128-128-128H144C73.3 32 16 89.3 16 160c0 34.6 13.7 66 36 89C20.5 272.3 0 309.8 0 352c0 70.7 57.3 128 128 128h64c70.7 0 128-57.3 128-128c0-42.2-20.5-79.7-52-103c22.3-23 36-54.4 36-89zM176.1 288H192c35.3 0 64 28.7 64 64s-28.7 64-64 64H128c-35.3 0-64-28.7-64-64s28.7-64 64-64h15.9c0 0 .1 0 .1 0h32c0 0 .1 0 .1 0zm0-64c0 0 0 0 0 0H144c0 0 0 0 0 0c-35.3 0-64-28.7-64-64c0-35.3 28.7-64 64-64h32c35.3 0 64 28.7 64 64c0 35.3-28.6 64-64 64z"/></svg>