<!--
  - Copyright (c) 2023, Terwer . All rights reserved.
  - DO NOT ALTER OR REMOVE COPYRIGHT NOTICES OR THIS FILE HEADER.
  -
  - This code is free software; you can redistribute it and/or modify it
  - under the terms of the GNU General Public License version 2 only, as
  - published by the Free Software Foundation.  Terwer designates this
  - particular file as subject to the "Classpath" exception as provided
  - by Terwer in the LICENSE file that accompanied this code.
  -
  - This code is distributed in the hope that it will be useful, but WITHOUT
  - ANY WARRANTY; without even the implied warranty of MERCHANTABILITY or
  - FITNESS FOR A PARTICULAR PURPOSE.  See the GNU General Public License
  - version 2 for more details (a copy is included in the LICENSE file that
  - accompanied this code).
  -
  - You should have received a copy of the GNU General Public License version
  - 2 along with this work; if not, write to the Free Software Foundation,
  - Inc., 51 Franklin St, Fifth Floor, Boston, MA 02110-1301 USA.
  -
  - Please contact Terwer, Shenzhen, Guangdong, China, youweics@163.com
  - or visit www.terwer.space if you need additional information or have any
  - questions.
  -->

<svg xmlns="http://www.w3.org/2000/svg" viewBox="0 0 512 512"><!--! Font Awesome Free 6.3.0 by @fontawesome - https://fontawesome.com License - https://fontawesome.com/license/free (Icons: CC BY 4.0, Fonts: SIL OFL 1.1, Code: MIT License) Copyright 2023 Fonticons, Inc. --><path d="M0 64C0 28.7 28.7 0 64 0h64 32H470.1c21.1 0 36.4 20.1 30.9 40.4L494.5 64H336c-8.8 0-16 7.2-16 16s7.2 16 16 16H485.8l-17.5 64H336c-8.8 0-16 7.2-16 16s7.2 16 16 16H459.6l-17.5 64H336c-8.8 0-16 7.2-16 16s7.2 16 16 16h97.5L416 352H160l-8.7-96H64c-35.3 0-64-28.7-64-64V64zM145.5 192L133.8 64H64V192h81.5zM144 384H432c26.5 0 48 21.5 48 48v32c0 26.5-21.5 48-48 48H144c-26.5 0-48-21.5-48-48V432c0-26.5 21.5-48 48-48zm144 96a32 32 0 1 0 0-64 32 32 0 1 0 0 64z"/></svg>