<!--
  - Copyright (c) 2023, Terwer . All rights reserved.
  - DO NOT ALTER OR REMOVE COPYRIGHT NOTICES OR THIS FILE HEADER.
  -
  - This code is free software; you can redistribute it and/or modify it
  - under the terms of the GNU General Public License version 2 only, as
  - published by the Free Software Foundation.  Terwer designates this
  - particular file as subject to the "Classpath" exception as provided
  - by Terwer in the LICENSE file that accompanied this code.
  -
  - This code is distributed in the hope that it will be useful, but WITHOUT
  - ANY WARRANTY; without even the implied warranty of MERCHANTABILITY or
  - FITNESS FOR A PARTICULAR PURPOSE.  See the GNU General Public License
  - version 2 for more details (a copy is included in the LICENSE file that
  - accompanied this code).
  -
  - You should have received a copy of the GNU General Public License version
  - 2 along with this work; if not, write to the Free Software Foundation,
  - Inc., 51 Franklin St, Fifth Floor, Boston, MA 02110-1301 USA.
  -
  - Please contact Terwer, Shenzhen, Guangdong, China, youweics@163.com
  - or visit www.terwer.space if you need additional information or have any
  - questions.
  -->

<svg xmlns="http://www.w3.org/2000/svg" viewBox="0 0 576 512"><!--! Font Awesome Free 6.3.0 by @fontawesome - https://fontawesome.com License - https://fontawesome.com/license/free (Icons: CC BY 4.0, Fonts: SIL OFL 1.1, Code: MIT License) Copyright 2023 Fonticons, Inc. --><path d="M153.7 144.8c6.9 16.3 20.6 31.2 38.3 31.2H384c17.7 0 31.4-14.9 38.3-31.2C434.4 116.1 462.9 96 496 96c44.2 0 80 35.8 80 80c0 30.4-17 56.9-42 70.4c-3.6 1.9-6 5.5-6 9.6s2.4 7.7 6 9.6c25 13.5 42 40 42 70.4c0 44.2-35.8 80-80 80c-33.1 0-61.6-20.1-73.7-48.8C415.4 350.9 401.7 336 384 336H192c-17.7 0-31.4 14.9-38.3 31.2C141.6 395.9 113.1 416 80 416c-44.2 0-80-35.8-80-80c0-30.4 17-56.9 42-70.4c3.6-1.9 6-5.5 6-9.6s-2.4-7.7-6-9.6C17 232.9 0 206.4 0 176c0-44.2 35.8-80 80-80c33.1 0 61.6 20.1 73.7 48.8z"/></svg>