<!--
  - Copyright (c) 2023, Terwer . All rights reserved.
  - DO NOT ALTER OR REMOVE COPYRIGHT NOTICES OR THIS FILE HEADER.
  -
  - This code is free software; you can redistribute it and/or modify it
  - under the terms of the GNU General Public License version 2 only, as
  - published by the Free Software Foundation.  Terwer designates this
  - particular file as subject to the "Classpath" exception as provided
  - by Terwer in the LICENSE file that accompanied this code.
  -
  - This code is distributed in the hope that it will be useful, but WITHOUT
  - ANY WARRANTY; without even the implied warranty of MERCHANTABILITY or
  - FITNESS FOR A PARTICULAR PURPOSE.  See the GNU General Public License
  - version 2 for more details (a copy is included in the LICENSE file that
  - accompanied this code).
  -
  - You should have received a copy of the GNU General Public License version
  - 2 along with this work; if not, write to the Free Software Foundation,
  - Inc., 51 Franklin St, Fifth Floor, Boston, MA 02110-1301 USA.
  -
  - Please contact Terwer, Shenzhen, Guangdong, China, youweics@163.com
  - or visit www.terwer.space if you need additional information or have any
  - questions.
  -->

<svg xmlns="http://www.w3.org/2000/svg" viewBox="0 0 256 512"><!--! Font Awesome Free 6.3.0 by @fontawesome - https://fontawesome.com License - https://fontawesome.com/license/free (Icons: CC BY 4.0, Fonts: SIL OFL 1.1, Code: MIT License) Copyright 2023 Fonticons, Inc. --><path d="M88 0h80c13.3 0 24 10.7 24 24V64H64V24C64 10.7 74.7 0 88 0zM0 151.7c0-15.6 9-29.8 23.2-36.5l24.4-11.4c11-5.1 23-7.8 35.1-7.8h90.6c12.1 0 24.1 2.7 35.1 7.8l24.4 11.4c14.2 6.6 23.2 20.8 23.2 36.5c0 14.4-7.5 27-18.9 34.1c11.5 8.8 18.9 22.6 18.9 38.2c0 16.7-8.5 31.4-21.5 40c12.9 8.6 21.5 23.3 21.5 40s-8.5 31.4-21.5 40c12.9 8.6 21.5 23.3 21.5 40s-8.5 31.4-21.5 40c12.9 8.6 21.5 23.3 21.5 40c0 26.5-21.5 48-48 48H48c-26.5 0-48-21.5-48-48c0-16.7 8.5-31.4 21.5-40C8.5 415.4 0 400.7 0 384s8.5-31.4 21.5-40C8.5 335.4 0 320.7 0 304s8.5-31.4 21.5-40C8.5 255.4 0 240.7 0 224c0-15.6 7.4-29.4 18.9-38.2C7.5 178.7 0 166.1 0 151.7zM64 240c0 8.8 7.2 16 16 16h96c8.8 0 16-7.2 16-16s-7.2-16-16-16H80c-8.8 0-16 7.2-16 16zM80 352c-8.8 0-16 7.2-16 16s7.2 16 16 16h96c8.8 0 16-7.2 16-16s-7.2-16-16-16H80z"/></svg>