<!--
  - Copyright (c) 2023, Terwer . All rights reserved.
  - DO NOT ALTER OR REMOVE COPYRIGHT NOTICES OR THIS FILE HEADER.
  -
  - This code is free software; you can redistribute it and/or modify it
  - under the terms of the GNU General Public License version 2 only, as
  - published by the Free Software Foundation.  Terwer designates this
  - particular file as subject to the "Classpath" exception as provided
  - by Terwer in the LICENSE file that accompanied this code.
  -
  - This code is distributed in the hope that it will be useful, but WITHOUT
  - ANY WARRANTY; without even the implied warranty of MERCHANTABILITY or
  - FITNESS FOR A PARTICULAR PURPOSE.  See the GNU General Public License
  - version 2 for more details (a copy is included in the LICENSE file that
  - accompanied this code).
  -
  - You should have received a copy of the GNU General Public License version
  - 2 along with this work; if not, write to the Free Software Foundation,
  - Inc., 51 Franklin St, Fifth Floor, Boston, MA 02110-1301 USA.
  -
  - Please contact Terwer, Shenzhen, Guangdong, China, youweics@163.com
  - or visit www.terwer.space if you need additional information or have any
  - questions.
  -->

<svg xmlns="http://www.w3.org/2000/svg" viewBox="0 0 512 512"><!--! Font Awesome Free 6.3.0 by @fontawesome - https://fontawesome.com License - https://fontawesome.com/license/free (Icons: CC BY 4.0, Fonts: SIL OFL 1.1, Code: MIT License) Copyright 2023 Fonticons, Inc. --><path d="M92.5 0H208c40 0 52 24 64 48s24 48 64 48h85.2C436 96 448 108 448 122.8c0 3.4-.7 6.8-1.9 10L409.6 224 384 288H128l-16-64L64.9 35.4c-.6-2.3-.9-4.6-.9-6.9C64 12.8 76.8 0 92.5 0zM79 224l16 64H80c-8.8 0-16 7.2-16 16s7.2 16 16 16h48H384h48c8.8 0 16-7.2 16-16s-7.2-16-16-16H418.5l25.6-64H464c26.5 0 48 21.5 48 48V384H0V272c0-26.5 21.5-48 48-48H79zM0 416H512v48c0 26.5-21.5 48-48 48H48c-26.5 0-48-21.5-48-48V416z"/></svg>