<!--
  - Copyright (c) 2023, Terwer . All rights reserved.
  - DO NOT ALTER OR REMOVE COPYRIGHT NOTICES OR THIS FILE HEADER.
  -
  - This code is free software; you can redistribute it and/or modify it
  - under the terms of the GNU General Public License version 2 only, as
  - published by the Free Software Foundation.  Terwer designates this
  - particular file as subject to the "Classpath" exception as provided
  - by Terwer in the LICENSE file that accompanied this code.
  -
  - This code is distributed in the hope that it will be useful, but WITHOUT
  - ANY WARRANTY; without even the implied warranty of MERCHANTABILITY or
  - FITNESS FOR A PARTICULAR PURPOSE.  See the GNU General Public License
  - version 2 for more details (a copy is included in the LICENSE file that
  - accompanied this code).
  -
  - You should have received a copy of the GNU General Public License version
  - 2 along with this work; if not, write to the Free Software Foundation,
  - Inc., 51 Franklin St, Fifth Floor, Boston, MA 02110-1301 USA.
  -
  - Please contact Terwer, Shenzhen, Guangdong, China, youweics@163.com
  - or visit www.terwer.space if you need additional information or have any
  - questions.
  -->

<svg xmlns="http://www.w3.org/2000/svg" viewBox="0 0 576 512"><!--! Font Awesome Free 6.3.0 by @fontawesome - https://fontawesome.com License - https://fontawesome.com/license/free (Icons: CC BY 4.0, Fonts: SIL OFL 1.1, Code: MIT License) Copyright 2023 Fonticons, Inc. --><path d="M64 144c0-26.5 21.5-48 48-48s48 21.5 48 48V256H64V144zM0 144V368c0 61.9 50.1 112 112 112s112-50.1 112-112V189.6c1.8 19.1 8.2 38 19.8 54.8L372.3 431.7c35.5 51.7 105.3 64.3 156 28.1s63-107.5 27.5-159.2L427.3 113.3C391.8 61.5 321.9 49 271.3 85.2c-28 20-44.3 50.8-47.3 83V144c0-61.9-50.1-112-112-112S0 82.1 0 144zm296.6 64.2c-16-23.3-10-55.3 11.9-71c21.2-15.1 50.5-10.3 66 12.2l67 97.6L361.6 303l-65-94.8zM491 407.7c-.8 .6-1.6 1.1-2.4 1.6l4-2.8c-.5 .4-1 .8-1.6 1.2z"/></svg>