<!--
  - Copyright (c) 2023, Terwer . All rights reserved.
  - DO NOT ALTER OR REMOVE COPYRIGHT NOTICES OR THIS FILE HEADER.
  -
  - This code is free software; you can redistribute it and/or modify it
  - under the terms of the GNU General Public License version 2 only, as
  - published by the Free Software Foundation.  Terwer designates this
  - particular file as subject to the "Classpath" exception as provided
  - by Terwer in the LICENSE file that accompanied this code.
  -
  - This code is distributed in the hope that it will be useful, but WITHOUT
  - ANY WARRANTY; without even the implied warranty of MERCHANTABILITY or
  - FITNESS FOR A PARTICULAR PURPOSE.  See the GNU General Public License
  - version 2 for more details (a copy is included in the LICENSE file that
  - accompanied this code).
  -
  - You should have received a copy of the GNU General Public License version
  - 2 along with this work; if not, write to the Free Software Foundation,
  - Inc., 51 Franklin St, Fifth Floor, Boston, MA 02110-1301 USA.
  -
  - Please contact Terwer, Shenzhen, Guangdong, China, youweics@163.com
  - or visit www.terwer.space if you need additional information or have any
  - questions.
  -->

<svg xmlns="http://www.w3.org/2000/svg" viewBox="0 0 448 512"><!--! Font Awesome Free 6.3.0 by @fontawesome - https://fontawesome.com License - https://fontawesome.com/license/free (Icons: CC BY 4.0, Fonts: SIL OFL 1.1, Code: MIT License) Copyright 2023 Fonticons, Inc. --><path d="M248 48V256h48V58.7c23.9 13.8 40 39.7 40 69.3V256h48V128C384 57.3 326.7 0 256 0H192C121.3 0 64 57.3 64 128V256h48V128c0-29.6 16.1-55.5 40-69.3V256h48V48h48zM48 288c-12.1 0-23.2 6.8-28.6 17.7l-16 32c-5 9.9-4.4 21.7 1.4 31.1S20.9 384 32 384l0 96c0 17.7 14.3 32 32 32s32-14.3 32-32V384H352v96c0 17.7 14.3 32 32 32s32-14.3 32-32V384c11.1 0 21.4-5.7 27.2-15.2s6.4-21.2 1.4-31.1l-16-32C423.2 294.8 412.1 288 400 288H48z"/></svg>