<!--
  - Copyright (c) 2023, Terwer . All rights reserved.
  - DO NOT ALTER OR REMOVE COPYRIGHT NOTICES OR THIS FILE HEADER.
  -
  - This code is free software; you can redistribute it and/or modify it
  - under the terms of the GNU General Public License version 2 only, as
  - published by the Free Software Foundation.  Terwer designates this
  - particular file as subject to the "Classpath" exception as provided
  - by Terwer in the LICENSE file that accompanied this code.
  -
  - This code is distributed in the hope that it will be useful, but WITHOUT
  - ANY WARRANTY; without even the implied warranty of MERCHANTABILITY or
  - FITNESS FOR A PARTICULAR PURPOSE.  See the GNU General Public License
  - version 2 for more details (a copy is included in the LICENSE file that
  - accompanied this code).
  -
  - You should have received a copy of the GNU General Public License version
  - 2 along with this work; if not, write to the Free Software Foundation,
  - Inc., 51 Franklin St, Fifth Floor, Boston, MA 02110-1301 USA.
  -
  - Please contact Terwer, Shenzhen, Guangdong, China, youweics@163.com
  - or visit www.terwer.space if you need additional information or have any
  - questions.
  -->

<svg xmlns="http://www.w3.org/2000/svg" viewBox="0 0 640 512"><!--! Font Awesome Free 6.3.0 by @fontawesome - https://fontawesome.com License - https://fontawesome.com/license/free (Icons: CC BY 4.0, Fonts: SIL OFL 1.1, Code: MIT License) Copyright 2023 Fonticons, Inc. --><path d="M160 0a64 64 0 1 1 0 128A64 64 0 1 1 160 0zM88 480V400H70.2c-10.9 0-18.6-10.7-15.2-21.1l31.1-93.4L57.5 323.3c-10.7 14.1-30.8 16.8-44.8 6.2s-16.8-30.7-6.2-44.8L65.4 207c22.4-29.6 57.5-47 94.6-47s72.2 17.4 94.6 47l58.9 77.7c10.7 14.1 7.9 34.2-6.2 44.8s-34.2 7.9-44.8-6.2l-28.6-37.8L265 378.9c3.5 10.4-4.3 21.1-15.2 21.1H232v80c0 17.7-14.3 32-32 32s-32-14.3-32-32V400H152v80c0 17.7-14.3 32-32 32s-32-14.3-32-32zM480 0a64 64 0 1 1 0 128A64 64 0 1 1 480 0zm-8 384v96c0 17.7-14.3 32-32 32s-32-14.3-32-32V300.5L395.1 321c-9.4 15-29.2 19.4-44.1 10s-19.4-29.2-10-44.1l51.7-82.1c17.6-27.9 48.3-44.9 81.2-44.9h12.3c33 0 63.7 16.9 81.2 44.9L619.1 287c9.4 15 4.9 34.7-10 44.1s-34.7 4.9-44.1-10L552 300.5V480c0 17.7-14.3 32-32 32s-32-14.3-32-32V384H472z"/></svg>