<!--
  - Copyright (c) 2023, Terwer . All rights reserved.
  - DO NOT ALTER OR REMOVE COPYRIGHT NOTICES OR THIS FILE HEADER.
  -
  - This code is free software; you can redistribute it and/or modify it
  - under the terms of the GNU General Public License version 2 only, as
  - published by the Free Software Foundation.  Terwer designates this
  - particular file as subject to the "Classpath" exception as provided
  - by Terwer in the LICENSE file that accompanied this code.
  -
  - This code is distributed in the hope that it will be useful, but WITHOUT
  - ANY WARRANTY; without even the implied warranty of MERCHANTABILITY or
  - FITNESS FOR A PARTICULAR PURPOSE.  See the GNU General Public License
  - version 2 for more details (a copy is included in the LICENSE file that
  - accompanied this code).
  -
  - You should have received a copy of the GNU General Public License version
  - 2 along with this work; if not, write to the Free Software Foundation,
  - Inc., 51 Franklin St, Fifth Floor, Boston, MA 02110-1301 USA.
  -
  - Please contact Terwer, Shenzhen, Guangdong, China, youweics@163.com
  - or visit www.terwer.space if you need additional information or have any
  - questions.
  -->

<svg xmlns="http://www.w3.org/2000/svg" viewBox="0 0 384 512"><!--! Font Awesome Free 6.3.0 by @fontawesome - https://fontawesome.com License - https://fontawesome.com/license/free (Icons: CC BY 4.0, Fonts: SIL OFL 1.1, Code: MIT License) Copyright 2023 Fonticons, Inc. --><path d="M240 64A64 64 0 1 0 112 64a64 64 0 1 0 128 0zM136.9 169.3c-23.7-8.4-44.5-24.3-58.8-45.8L58.6 94.2C48.8 79.5 29 75.6 14.2 85.4S-4.4 115 5.4 129.8L24.9 159c18.1 27.1 42.8 48.4 71.1 62.4V480c0 17.7 14.3 32 32 32s32-14.3 32-32V384h32v96c0 17.7 14.3 32 32 32s32-14.3 32-32V221.6c29.1-14.2 54.4-36.2 72.7-64.2l18.2-27.9c9.6-14.8 5.4-34.6-9.4-44.3s-34.6-5.5-44.3 9.4L275 122.4c-21.8 33.4-58.9 53.6-98.8 53.6c-12.6 0-24.9-2-36.6-5.8c-.9-.3-1.8-.7-2.7-.9z"/></svg>