<!--
  - Copyright (c) 2023, Terwer . All rights reserved.
  - DO NOT ALTER OR REMOVE COPYRIGHT NOTICES OR THIS FILE HEADER.
  -
  - This code is free software; you can redistribute it and/or modify it
  - under the terms of the GNU General Public License version 2 only, as
  - published by the Free Software Foundation.  Terwer designates this
  - particular file as subject to the "Classpath" exception as provided
  - by Terwer in the LICENSE file that accompanied this code.
  -
  - This code is distributed in the hope that it will be useful, but WITHOUT
  - ANY WARRANTY; without even the implied warranty of MERCHANTABILITY or
  - FITNESS FOR A PARTICULAR PURPOSE.  See the GNU General Public License
  - version 2 for more details (a copy is included in the LICENSE file that
  - accompanied this code).
  -
  - You should have received a copy of the GNU General Public License version
  - 2 along with this work; if not, write to the Free Software Foundation,
  - Inc., 51 Franklin St, Fifth Floor, Boston, MA 02110-1301 USA.
  -
  - Please contact Terwer, Shenzhen, Guangdong, China, youweics@163.com
  - or visit www.terwer.space if you need additional information or have any
  - questions.
  -->

<svg xmlns="http://www.w3.org/2000/svg" viewBox="0 0 320 512"><!--! Font Awesome Free 6.3.0 by @fontawesome - https://fontawesome.com License - https://fontawesome.com/license/free (Icons: CC BY 4.0, Fonts: SIL OFL 1.1, Code: MIT License) Copyright 2023 Fonticons, Inc. --><path d="M224 64A64 64 0 1 0 96 64a64 64 0 1 0 128 0zM88 400v80c0 17.7 14.3 32 32 32s32-14.3 32-32V400h16v80c0 17.7 14.3 32 32 32s32-14.3 32-32V400h17.8c10.9 0 18.6-10.7 15.2-21.1l-31.1-93.4 28.6 37.8c10.7 14.1 30.8 16.8 44.8 6.2s16.8-30.7 6.2-44.8L254.6 207c-22.4-29.6-57.5-47-94.6-47s-72.2 17.4-94.6 47L6.5 284.7c-10.7 14.1-7.9 34.2 6.2 44.8s34.2 7.9 44.8-6.2l28.7-37.8L55 378.9C51.6 389.3 59.3 400 70.2 400H88z"/></svg>