<!--
  - Copyright (c) 2023, Terwer . All rights reserved.
  - DO NOT ALTER OR REMOVE COPYRIGHT NOTICES OR THIS FILE HEADER.
  -
  - This code is free software; you can redistribute it and/or modify it
  - under the terms of the GNU General Public License version 2 only, as
  - published by the Free Software Foundation.  Terwer designates this
  - particular file as subject to the "Classpath" exception as provided
  - by Terwer in the LICENSE file that accompanied this code.
  -
  - This code is distributed in the hope that it will be useful, but WITHOUT
  - ANY WARRANTY; without even the implied warranty of MERCHANTABILITY or
  - FITNESS FOR A PARTICULAR PURPOSE.  See the GNU General Public License
  - version 2 for more details (a copy is included in the LICENSE file that
  - accompanied this code).
  -
  - You should have received a copy of the GNU General Public License version
  - 2 along with this work; if not, write to the Free Software Foundation,
  - Inc., 51 Franklin St, Fifth Floor, Boston, MA 02110-1301 USA.
  -
  - Please contact Terwer, Shenzhen, Guangdong, China, youweics@163.com
  - or visit www.terwer.space if you need additional information or have any
  - questions.
  -->

<svg xmlns="http://www.w3.org/2000/svg" viewBox="0 0 640 512"><!--! Font Awesome Free 6.3.0 by @fontawesome - https://fontawesome.com License - https://fontawesome.com/license/free (Icons: CC BY 4.0, Fonts: SIL OFL 1.1, Code: MIT License) Copyright 2023 Fonticons, Inc. --><path d="M344 24c0-13.3-10.7-24-24-24s-24 10.7-24 24V48H264c-13.3 0-24 10.7-24 24s10.7 24 24 24h32v46.4L183.3 210c-14.5 8.7-23.3 24.3-23.3 41.2V512h96V416c0-35.3 28.7-64 64-64s64 28.7 64 64v96h96V251.2c0-16.9-8.8-32.5-23.3-41.2L344 142.4V96h32c13.3 0 24-10.7 24-24s-10.7-24-24-24H344V24zM24.9 330.3C9.5 338.8 0 354.9 0 372.4V464c0 26.5 21.5 48 48 48h80V273.6L24.9 330.3zM592 512c26.5 0 48-21.5 48-48V372.4c0-17.5-9.5-33.6-24.9-42.1L512 273.6V512h80z"/></svg>