<!--
  - Copyright (c) 2023, Terwer . All rights reserved.
  - DO NOT ALTER OR REMOVE COPYRIGHT NOTICES OR THIS FILE HEADER.
  -
  - This code is free software; you can redistribute it and/or modify it
  - under the terms of the GNU General Public License version 2 only, as
  - published by the Free Software Foundation.  Terwer designates this
  - particular file as subject to the "Classpath" exception as provided
  - by Terwer in the LICENSE file that accompanied this code.
  -
  - This code is distributed in the hope that it will be useful, but WITHOUT
  - ANY WARRANTY; without even the implied warranty of MERCHANTABILITY or
  - FITNESS FOR A PARTICULAR PURPOSE.  See the GNU General Public License
  - version 2 for more details (a copy is included in the LICENSE file that
  - accompanied this code).
  -
  - You should have received a copy of the GNU General Public License version
  - 2 along with this work; if not, write to the Free Software Foundation,
  - Inc., 51 Franklin St, Fifth Floor, Boston, MA 02110-1301 USA.
  -
  - Please contact Terwer, Shenzhen, Guangdong, China, youweics@163.com
  - or visit www.terwer.space if you need additional information or have any
  - questions.
  -->

<svg xmlns="http://www.w3.org/2000/svg" viewBox="0 0 576 512"><!--! Font Awesome Free 6.3.0 by @fontawesome - https://fontawesome.com License - https://fontawesome.com/license/free (Icons: CC BY 4.0, Fonts: SIL OFL 1.1, Code: MIT License) Copyright 2023 Fonticons, Inc. --><path d="M0 96C0 60.7 28.7 32 64 32H512c35.3 0 64 28.7 64 64V416c0 35.3-28.7 64-64 64H64c-35.3 0-64-28.7-64-64V96zM200 208c14.2 0 27 6.1 35.8 16c8.8 9.9 24 10.7 33.9 1.9s10.7-24 1.9-33.9c-17.5-19.6-43.1-32-71.5-32c-53 0-96 43-96 96s43 96 96 96c28.4 0 54-12.4 71.5-32c8.8-9.9 8-25-1.9-33.9s-25-8-33.9 1.9c-8.8 9.9-21.6 16-35.8 16c-26.5 0-48-21.5-48-48s21.5-48 48-48zm144 48c0-26.5 21.5-48 48-48c14.2 0 27 6.1 35.8 16c8.8 9.9 24 10.7 33.9 1.9s10.7-24 1.9-33.9c-17.5-19.6-43.1-32-71.5-32c-53 0-96 43-96 96s43 96 96 96c28.4 0 54-12.4 71.5-32c8.8-9.9 8-25-1.9-33.9s-25-8-33.9 1.9c-8.8 9.9-21.6 16-35.8 16c-26.5 0-48-21.5-48-48z"/></svg>