<!--
  - Copyright (c) 2023, Terwer . All rights reserved.
  - DO NOT ALTER OR REMOVE COPYRIGHT NOTICES OR THIS FILE HEADER.
  -
  - This code is free software; you can redistribute it and/or modify it
  - under the terms of the GNU General Public License version 2 only, as
  - published by the Free Software Foundation.  Terwer designates this
  - particular file as subject to the "Classpath" exception as provided
  - by Terwer in the LICENSE file that accompanied this code.
  -
  - This code is distributed in the hope that it will be useful, but WITHOUT
  - ANY WARRANTY; without even the implied warranty of MERCHANTABILITY or
  - FITNESS FOR A PARTICULAR PURPOSE.  See the GNU General Public License
  - version 2 for more details (a copy is included in the LICENSE file that
  - accompanied this code).
  -
  - You should have received a copy of the GNU General Public License version
  - 2 along with this work; if not, write to the Free Software Foundation,
  - Inc., 51 Franklin St, Fifth Floor, Boston, MA 02110-1301 USA.
  -
  - Please contact Terwer, Shenzhen, Guangdong, China, youweics@163.com
  - or visit www.terwer.space if you need additional information or have any
  - questions.
  -->

<svg xmlns="http://www.w3.org/2000/svg" viewBox="0 0 512 512"><!--! Font Awesome Free 6.3.0 by @fontawesome - https://fontawesome.com License - https://fontawesome.com/license/free (Icons: CC BY 4.0, Fonts: SIL OFL 1.1, Code: MIT License) Copyright 2023 Fonticons, Inc. --><path d="M96 320c-53 0-96-43-96-96c0-42.5 27.6-78.6 65.9-91.2C64.7 126.1 64 119.1 64 112C64 50.1 114.1 0 176 0c43.1 0 80.5 24.3 99.2 60c14.7-17.1 36.5-28 60.8-28c44.2 0 80 35.8 80 80c0 5.5-.6 10.8-1.6 16c.5 0 1.1 0 1.6 0c53 0 96 43 96 96s-43 96-96 96H96zm-6.8 52c1.3-2.5 3.9-4 6.8-4s5.4 1.5 6.8 4l35.1 64.6c4.1 7.5 6.2 15.8 6.2 24.3v3c0 26.5-21.5 48-48 48s-48-21.5-48-48v-3c0-8.5 2.1-16.9 6.2-24.3L89.2 372zm160 0c1.3-2.5 3.9-4 6.8-4s5.4 1.5 6.8 4l35.1 64.6c4.1 7.5 6.2 15.8 6.2 24.3v3c0 26.5-21.5 48-48 48s-48-21.5-48-48v-3c0-8.5 2.1-16.9 6.2-24.3L249.2 372zm124.9 64.6L409.2 372c1.3-2.5 3.9-4 6.8-4s5.4 1.5 6.8 4l35.1 64.6c4.1 7.5 6.2 15.8 6.2 24.3v3c0 26.5-21.5 48-48 48s-48-21.5-48-48v-3c0-8.5 2.1-16.9 6.2-24.3z"/></svg>