<!--
  - Copyright (c) 2023, Terwer . All rights reserved.
  - DO NOT ALTER OR REMOVE COPYRIGHT NOTICES OR THIS FILE HEADER.
  -
  - This code is free software; you can redistribute it and/or modify it
  - under the terms of the GNU General Public License version 2 only, as
  - published by the Free Software Foundation.  Terwer designates this
  - particular file as subject to the "Classpath" exception as provided
  - by Terwer in the LICENSE file that accompanied this code.
  -
  - This code is distributed in the hope that it will be useful, but WITHOUT
  - ANY WARRANTY; without even the implied warranty of MERCHANTABILITY or
  - FITNESS FOR A PARTICULAR PURPOSE.  See the GNU General Public License
  - version 2 for more details (a copy is included in the LICENSE file that
  - accompanied this code).
  -
  - You should have received a copy of the GNU General Public License version
  - 2 along with this work; if not, write to the Free Software Foundation,
  - Inc., 51 Franklin St, Fifth Floor, Boston, MA 02110-1301 USA.
  -
  - Please contact Terwer, Shenzhen, Guangdong, China, youweics@163.com
  - or visit www.terwer.space if you need additional information or have any
  - questions.
  -->

<svg xmlns="http://www.w3.org/2000/svg" viewBox="0 0 512 512"><!--! Font Awesome Free 6.3.0 by @fontawesome - https://fontawesome.com License - https://fontawesome.com/license/free (Icons: CC BY 4.0, Fonts: SIL OFL 1.1, Code: MIT License) Copyright 2023 Fonticons, Inc. --><path d="M448 416l0-64L64 352l0 64 384 0zm0 64L64 480c-35.3 0-64-28.7-64-64l0-64c0-35.3 28.7-64 64-64l384 0c35.3 0 64 28.7 64 64l0 64c0 35.3-28.7 64-64 64zM288 160c0 35.3-28.7 64-64 64L64 224c-35.3 0-64-28.7-64-64L0 96C0 60.7 28.7 32 64 32l144 0 16 0 144 0c44.2 0 80 35.8 80 80l0 16 38.1 0c21.4 0 32.1 25.9 17 41L433 239c-9.4 9.4-24.6 9.4-33.9 0L329 169c-15.1-15.1-4.4-41 17-41l38.1 0 0-16c0-8.8-7.2-16-16-16l-80 0 0 64z"/></svg>