<!--
  - Copyright (c) 2023, Terwer . All rights reserved.
  - DO NOT ALTER OR REMOVE COPYRIGHT NOTICES OR THIS FILE HEADER.
  -
  - This code is free software; you can redistribute it and/or modify it
  - under the terms of the GNU General Public License version 2 only, as
  - published by the Free Software Foundation.  Terwer designates this
  - particular file as subject to the "Classpath" exception as provided
  - by Terwer in the LICENSE file that accompanied this code.
  -
  - This code is distributed in the hope that it will be useful, but WITHOUT
  - ANY WARRANTY; without even the implied warranty of MERCHANTABILITY or
  - FITNESS FOR A PARTICULAR PURPOSE.  See the GNU General Public License
  - version 2 for more details (a copy is included in the LICENSE file that
  - accompanied this code).
  -
  - You should have received a copy of the GNU General Public License version
  - 2 along with this work; if not, write to the Free Software Foundation,
  - Inc., 51 Franklin St, Fifth Floor, Boston, MA 02110-1301 USA.
  -
  - Please contact Terwer, Shenzhen, Guangdong, China, youweics@163.com
  - or visit www.terwer.space if you need additional information or have any
  - questions.
  -->

<svg xmlns="http://www.w3.org/2000/svg" viewBox="0 0 512 512"><!--! Font Awesome Free 6.3.0 by @fontawesome - https://fontawesome.com License - https://fontawesome.com/license/free (Icons: CC BY 4.0, Fonts: SIL OFL 1.1, Code: MIT License) Copyright 2023 Fonticons, Inc. --><path d="M439 7c9.4-9.4 24.6-9.4 33.9 0l32 32c9.4 9.4 9.4 24.6 0 33.9l-87 87 39 39c6.9 6.9 8.9 17.2 5.2 26.2s-12.5 14.8-22.2 14.8H296c-13.3 0-24-10.7-24-24V72c0-9.7 5.8-18.5 14.8-22.2s19.3-1.7 26.2 5.2l39 39L439 7zM72 272H216c13.3 0 24 10.7 24 24V440c0 9.7-5.8 18.5-14.8 22.2s-19.3 1.7-26.2-5.2l-39-39L73 505c-9.4 9.4-24.6 9.4-33.9 0L7 473c-9.4-9.4-9.4-24.6 0-33.9l87-87L55 313c-6.9-6.9-8.9-17.2-5.2-26.2s12.5-14.8 22.2-14.8z"/></svg>