<!--
  - Copyright (c) 2023, Terwer . All rights reserved.
  - DO NOT ALTER OR REMOVE COPYRIGHT NOTICES OR THIS FILE HEADER.
  -
  - This code is free software; you can redistribute it and/or modify it
  - under the terms of the GNU General Public License version 2 only, as
  - published by the Free Software Foundation.  Terwer designates this
  - particular file as subject to the "Classpath" exception as provided
  - by Terwer in the LICENSE file that accompanied this code.
  -
  - This code is distributed in the hope that it will be useful, but WITHOUT
  - ANY WARRANTY; without even the implied warranty of MERCHANTABILITY or
  - FITNESS FOR A PARTICULAR PURPOSE.  See the GNU General Public License
  - version 2 for more details (a copy is included in the LICENSE file that
  - accompanied this code).
  -
  - You should have received a copy of the GNU General Public License version
  - 2 along with this work; if not, write to the Free Software Foundation,
  - Inc., 51 Franklin St, Fifth Floor, Boston, MA 02110-1301 USA.
  -
  - Please contact Terwer, Shenzhen, Guangdong, China, youweics@163.com
  - or visit www.terwer.space if you need additional information or have any
  - questions.
  -->

<svg xmlns="http://www.w3.org/2000/svg" viewBox="0 0 576 512"><!--! Font Awesome Free 6.3.0 by @fontawesome - https://fontawesome.com License - https://fontawesome.com/license/free (Icons: CC BY 4.0, Fonts: SIL OFL 1.1, Code: MIT License) Copyright 2023 Fonticons, Inc. --><path d="M499.6 11.3c6.7-10.7 20.5-14.5 31.7-8.5s15.8 19.5 10.6 31L404.8 338.6c2.2 2.3 4.3 4.7 6.3 7.1l97.2-54.7c10.5-5.9 23.6-3.1 30.9 6.4s6.3 23-2.2 31.5l-87 87H378.5c-13.2-37.3-48.7-64-90.5-64s-77.4 26.7-90.5 64H117.8L42.3 363.7c-9.7-6.7-13.1-19.6-7.9-30.3s17.4-15.9 28.7-12.4l97.2 30.4c3-3.9 6.1-7.7 9.4-11.3L107.4 236.3c-6.1-10.1-3.9-23.1 5.1-30.7s22.2-7.5 31.1 .1L246 293.6c1.5-.4 3-.8 4.5-1.1l13.6-142.7c1.2-12.3 11.5-21.7 23.9-21.7s22.7 9.4 23.9 21.7l13.5 141.9L499.6 11.3zM64 448v0H512v0h32c17.7 0 32 14.3 32 32s-14.3 32-32 32H32c-17.7 0-32-14.3-32-32s14.3-32 32-32H64zM288 0c13.3 0 24 10.7 24 24V72c0 13.3-10.7 24-24 24s-24-10.7-24-24V24c0-13.3 10.7-24 24-24z"/></svg>