<!--
  - Copyright (c) 2023, Terwer . All rights reserved.
  - DO NOT ALTER OR REMOVE COPYRIGHT NOTICES OR THIS FILE HEADER.
  -
  - This code is free software; you can redistribute it and/or modify it
  - under the terms of the GNU General Public License version 2 only, as
  - published by the Free Software Foundation.  Terwer designates this
  - particular file as subject to the "Classpath" exception as provided
  - by Terwer in the LICENSE file that accompanied this code.
  -
  - This code is distributed in the hope that it will be useful, but WITHOUT
  - ANY WARRANTY; without even the implied warranty of MERCHANTABILITY or
  - FITNESS FOR A PARTICULAR PURPOSE.  See the GNU General Public License
  - version 2 for more details (a copy is included in the LICENSE file that
  - accompanied this code).
  -
  - You should have received a copy of the GNU General Public License version
  - 2 along with this work; if not, write to the Free Software Foundation,
  - Inc., 51 Franklin St, Fifth Floor, Boston, MA 02110-1301 USA.
  -
  - Please contact Terwer, Shenzhen, Guangdong, China, youweics@163.com
  - or visit www.terwer.space if you need additional information or have any
  - questions.
  -->

<svg xmlns="http://www.w3.org/2000/svg" viewBox="0 0 512 512"><!--! Font Awesome Free 6.3.0 by @fontawesome - https://fontawesome.com License - https://fontawesome.com/license/free (Icons: CC BY 4.0, Fonts: SIL OFL 1.1, Code: MIT License) Copyright 2023 Fonticons, Inc. --><path d="M0 256a256 256 0 1 0 512 0A256 256 0 1 0 0 256zm240 80c0-8.8 7.2-16 16-16c45 0 85.6 20.5 115.7 53.1c6 6.5 5.6 16.6-.9 22.6s-16.6 5.6-22.6-.9c-25-27.1-57.4-42.9-92.3-42.9c-8.8 0-16-7.2-16-16zm-80 80c-26.5 0-48-21-48-47c0-20 28.6-60.4 41.6-77.7c3.2-4.4 9.6-4.4 12.8 0C179.6 308.6 208 349 208 369c0 26-21.5 47-48 47zM367.6 208a32 32 0 1 1 -64 0 32 32 0 1 1 64 0zm-192-32a32 32 0 1 1 0 64 32 32 0 1 1 0-64z"/></svg>