<!--
  - Copyright (c) 2023, Terwer . All rights reserved.
  - DO NOT ALTER OR REMOVE COPYRIGHT NOTICES OR THIS FILE HEADER.
  -
  - This code is free software; you can redistribute it and/or modify it
  - under the terms of the GNU General Public License version 2 only, as
  - published by the Free Software Foundation.  Terwer designates this
  - particular file as subject to the "Classpath" exception as provided
  - by Terwer in the LICENSE file that accompanied this code.
  -
  - This code is distributed in the hope that it will be useful, but WITHOUT
  - ANY WARRANTY; without even the implied warranty of MERCHANTABILITY or
  - FITNESS FOR A PARTICULAR PURPOSE.  See the GNU General Public License
  - version 2 for more details (a copy is included in the LICENSE file that
  - accompanied this code).
  -
  - You should have received a copy of the GNU General Public License version
  - 2 along with this work; if not, write to the Free Software Foundation,
  - Inc., 51 Franklin St, Fifth Floor, Boston, MA 02110-1301 USA.
  -
  - Please contact Terwer, Shenzhen, Guangdong, China, youweics@163.com
  - or visit www.terwer.space if you need additional information or have any
  - questions.
  -->

<svg xmlns="http://www.w3.org/2000/svg" viewBox="0 0 512 512"><!--! Font Awesome Free 6.3.0 by @fontawesome - https://fontawesome.com License - https://fontawesome.com/license/free (Icons: CC BY 4.0, Fonts: SIL OFL 1.1, Code: MIT License) Copyright 2023 Fonticons, Inc. --><path d="M352 493.4c-29.6 12-62.1 18.6-96 18.6s-66.4-6.6-96-18.6V288c0-8.8-7.2-16-16-16s-16 7.2-16 16V477.8C51.5 433.5 0 350.8 0 256C0 114.6 114.6 0 256 0S512 114.6 512 256c0 94.8-51.5 177.5-128 221.8V288c0-8.8-7.2-16-16-16s-16 7.2-16 16V493.4zM195.2 233.6c5.3 7.1 15.3 8.5 22.4 3.2s8.5-15.3 3.2-22.4c-30.4-40.5-91.2-40.5-121.6 0c-5.3 7.1-3.9 17.1 3.2 22.4s17.1 3.9 22.4-3.2c17.6-23.5 52.8-23.5 70.4 0zm121.6 0c17.6-23.5 52.8-23.5 70.4 0c5.3 7.1 15.3 8.5 22.4 3.2s8.5-15.3 3.2-22.4c-30.4-40.5-91.2-40.5-121.6 0c-5.3 7.1-3.9 17.1 3.2 22.4s17.1 3.9 22.4-3.2zM208 336v32c0 26.5 21.5 48 48 48s48-21.5 48-48V336c0-26.5-21.5-48-48-48s-48 21.5-48 48z"/></svg>