<!--
  - Copyright (c) 2023, Terwer . All rights reserved.
  - DO NOT ALTER OR REMOVE COPYRIGHT NOTICES OR THIS FILE HEADER.
  -
  - This code is free software; you can redistribute it and/or modify it
  - under the terms of the GNU General Public License version 2 only, as
  - published by the Free Software Foundation.  Terwer designates this
  - particular file as subject to the "Classpath" exception as provided
  - by Terwer in the LICENSE file that accompanied this code.
  -
  - This code is distributed in the hope that it will be useful, but WITHOUT
  - ANY WARRANTY; without even the implied warranty of MERCHANTABILITY or
  - FITNESS FOR A PARTICULAR PURPOSE.  See the GNU General Public License
  - version 2 for more details (a copy is included in the LICENSE file that
  - accompanied this code).
  -
  - You should have received a copy of the GNU General Public License version
  - 2 along with this work; if not, write to the Free Software Foundation,
  - Inc., 51 Franklin St, Fifth Floor, Boston, MA 02110-1301 USA.
  -
  - Please contact Terwer, Shenzhen, Guangdong, China, youweics@163.com
  - or visit www.terwer.space if you need additional information or have any
  - questions.
  -->

<svg xmlns="http://www.w3.org/2000/svg" viewBox="0 0 512 512"><!--! Font Awesome Free 6.3.0 by @fontawesome - https://fontawesome.com License - https://fontawesome.com/license/free (Icons: CC BY 4.0, Fonts: SIL OFL 1.1, Code: MIT License) Copyright 2023 Fonticons, Inc. --><path d="M258.6 0c-1.7 0-3.4 .1-5.1 .5C168 17 115.6 102.3 130.5 189.3c2.9 17 8.4 32.9 15.9 47.4L32 224H29.4C13.2 224 0 237.2 0 253.4c0 1.7 .1 3.4 .5 5.1C17 344 102.3 396.4 189.3 381.5c17-2.9 32.9-8.4 47.4-15.9L224 480v2.6c0 16.2 13.2 29.4 29.4 29.4c1.7 0 3.4-.1 5.1-.5C344 495 396.4 409.7 381.5 322.7c-2.9-17-8.4-32.9-15.9-47.4L480 288h2.6c16.2 0 29.4-13.2 29.4-29.4c0-1.7-.1-3.4-.5-5.1C495 168 409.7 115.6 322.7 130.5c-17 2.9-32.9 8.4-47.4 15.9L288 32V29.4C288 13.2 274.8 0 258.6 0zM256 224a32 32 0 1 1 0 64 32 32 0 1 1 0-64z"/></svg>