<!--
  - Copyright (c) 2023, Terwer . All rights reserved.
  - DO NOT ALTER OR REMOVE COPYRIGHT NOTICES OR THIS FILE HEADER.
  -
  - This code is free software; you can redistribute it and/or modify it
  - under the terms of the GNU General Public License version 2 only, as
  - published by the Free Software Foundation.  Terwer designates this
  - particular file as subject to the "Classpath" exception as provided
  - by Terwer in the LICENSE file that accompanied this code.
  -
  - This code is distributed in the hope that it will be useful, but WITHOUT
  - ANY WARRANTY; without even the implied warranty of MERCHANTABILITY or
  - FITNESS FOR A PARTICULAR PURPOSE.  See the GNU General Public License
  - version 2 for more details (a copy is included in the LICENSE file that
  - accompanied this code).
  -
  - You should have received a copy of the GNU General Public License version
  - 2 along with this work; if not, write to the Free Software Foundation,
  - Inc., 51 Franklin St, Fifth Floor, Boston, MA 02110-1301 USA.
  -
  - Please contact Terwer, Shenzhen, Guangdong, China, youweics@163.com
  - or visit www.terwer.space if you need additional information or have any
  - questions.
  -->

<svg xmlns="http://www.w3.org/2000/svg" viewBox="0 0 512 512"><!--! Font Awesome Free 6.3.0 by @fontawesome - https://fontawesome.com License - https://fontawesome.com/license/free (Icons: CC BY 4.0, Fonts: SIL OFL 1.1, Code: MIT License) Copyright 2023 Fonticons, Inc. --><path d="M192 96v12L96 96c-17.7 0-32 14.3-32 32s14.3 32 32 32l96-12 31-3.9 1-.1 1 .1 31 3.9 96 12c17.7 0 32-14.3 32-32s-14.3-32-32-32l-96 12V96c0-17.7-14.3-32-32-32s-32 14.3-32 32zM32 256c-17.7 0-32 14.3-32 32v64c0 17.7 14.3 32 32 32H132.1c20.2 29 53.9 48 91.9 48s71.7-19 91.9-48H352c17.7 0 32 14.3 32 32s14.3 32 32 32h64c17.7 0 32-14.3 32-32c0-88.4-71.6-160-160-160H320l-22.6-22.6c-6-6-14.1-9.4-22.6-9.4H256V180.2l-32-4-32 4V224H173.3c-8.5 0-16.6 3.4-22.6 9.4L128 256H32z"/></svg>