<!--
  - Copyright (c) 2023, Terwer . All rights reserved.
  - DO NOT ALTER OR REMOVE COPYRIGHT NOTICES OR THIS FILE HEADER.
  -
  - This code is free software; you can redistribute it and/or modify it
  - under the terms of the GNU General Public License version 2 only, as
  - published by the Free Software Foundation.  Terwer designates this
  - particular file as subject to the "Classpath" exception as provided
  - by Terwer in the LICENSE file that accompanied this code.
  -
  - This code is distributed in the hope that it will be useful, but WITHOUT
  - ANY WARRANTY; without even the implied warranty of MERCHANTABILITY or
  - FITNESS FOR A PARTICULAR PURPOSE.  See the GNU General Public License
  - version 2 for more details (a copy is included in the LICENSE file that
  - accompanied this code).
  -
  - You should have received a copy of the GNU General Public License version
  - 2 along with this work; if not, write to the Free Software Foundation,
  - Inc., 51 Franklin St, Fifth Floor, Boston, MA 02110-1301 USA.
  -
  - Please contact Terwer, Shenzhen, Guangdong, China, youweics@163.com
  - or visit www.terwer.space if you need additional information or have any
  - questions.
  -->

<svg xmlns="http://www.w3.org/2000/svg" viewBox="0 0 384 512"><!--! Font Awesome Free 6.3.0 by @fontawesome - https://fontawesome.com License - https://fontawesome.com/license/free (Icons: CC BY 4.0, Fonts: SIL OFL 1.1, Code: MIT License) Copyright 2023 Fonticons, Inc. --><path d="M40.1 467.1l-11.2 9c-3.2 2.5-7.1 3.9-11.1 3.9C8 480 0 472 0 462.2V192C0 86 86 0 192 0S384 86 384 192V462.2c0 9.8-8 17.8-17.8 17.8c-4 0-7.9-1.4-11.1-3.9l-11.2-9c-13.4-10.7-32.8-9-44.1 3.9L269.3 506c-3.3 3.8-8.2 6-13.3 6s-9.9-2.2-13.3-6l-26.6-30.5c-12.7-14.6-35.4-14.6-48.2 0L141.3 506c-3.3 3.8-8.2 6-13.3 6s-9.9-2.2-13.3-6L84.2 471c-11.3-12.9-30.7-14.6-44.1-3.9zM160 192a32 32 0 1 0 -64 0 32 32 0 1 0 64 0zm96 32a32 32 0 1 0 0-64 32 32 0 1 0 0 64z"/></svg>