<!--
  - Copyright (c) 2023, Terwer . All rights reserved.
  - DO NOT ALTER OR REMOVE COPYRIGHT NOTICES OR THIS FILE HEADER.
  -
  - This code is free software; you can redistribute it and/or modify it
  - under the terms of the GNU General Public License version 2 only, as
  - published by the Free Software Foundation.  Terwer designates this
  - particular file as subject to the "Classpath" exception as provided
  - by Terwer in the LICENSE file that accompanied this code.
  -
  - This code is distributed in the hope that it will be useful, but WITHOUT
  - ANY WARRANTY; without even the implied warranty of MERCHANTABILITY or
  - FITNESS FOR A PARTICULAR PURPOSE.  See the GNU General Public License
  - version 2 for more details (a copy is included in the LICENSE file that
  - accompanied this code).
  -
  - You should have received a copy of the GNU General Public License version
  - 2 along with this work; if not, write to the Free Software Foundation,
  - Inc., 51 Franklin St, Fifth Floor, Boston, MA 02110-1301 USA.
  -
  - Please contact Terwer, Shenzhen, Guangdong, China, youweics@163.com
  - or visit www.terwer.space if you need additional information or have any
  - questions.
  -->

<svg xmlns="http://www.w3.org/2000/svg" viewBox="0 0 384 512"><!--! Font Awesome Free 6.3.0 by @fontawesome - https://fontawesome.com License - https://fontawesome.com/license/free (Icons: CC BY 4.0, Fonts: SIL OFL 1.1, Code: MIT License) Copyright 2023 Fonticons, Inc. --><path d="M32 0C23.1 0 14.6 3.7 8.6 10.2S-.6 25.4 .1 34.3L28.9 437.7c3 41.9 37.8 74.3 79.8 74.3H275.3c42 0 76.8-32.4 79.8-74.3L383.9 34.3c.6-8.9-2.4-17.6-8.5-24.1S360.9 0 352 0H32zM83 297.5L66.4 64H317.6L301 297.5 288 304c-20.1 10.1-43.9 10.1-64 0s-43.9-10.1-64 0s-43.9 10.1-64 0l-13-6.5zM256 196c0-24-33.7-70.1-52.2-93.5c-6.1-7.7-17.5-7.7-23.6 0C161.7 125.9 128 172 128 196c0 33.1 28.7 60 64 60s64-26.9 64-60z"/></svg>