<!--
  - Copyright (c) 2023, Terwer . All rights reserved.
  - DO NOT ALTER OR REMOVE COPYRIGHT NOTICES OR THIS FILE HEADER.
  -
  - This code is free software; you can redistribute it and/or modify it
  - under the terms of the GNU General Public License version 2 only, as
  - published by the Free Software Foundation.  Terwer designates this
  - particular file as subject to the "Classpath" exception as provided
  - by Terwer in the LICENSE file that accompanied this code.
  -
  - This code is distributed in the hope that it will be useful, but WITHOUT
  - ANY WARRANTY; without even the implied warranty of MERCHANTABILITY or
  - FITNESS FOR A PARTICULAR PURPOSE.  See the GNU General Public License
  - version 2 for more details (a copy is included in the LICENSE file that
  - accompanied this code).
  -
  - You should have received a copy of the GNU General Public License version
  - 2 along with this work; if not, write to the Free Software Foundation,
  - Inc., 51 Franklin St, Fifth Floor, Boston, MA 02110-1301 USA.
  -
  - Please contact Terwer, Shenzhen, Guangdong, China, youweics@163.com
  - or visit www.terwer.space if you need additional information or have any
  - questions.
  -->

<svg xmlns="http://www.w3.org/2000/svg" viewBox="0 0 448 512"><!--! Font Awesome Free 6.3.0 by @fontawesome - https://fontawesome.com License - https://fontawesome.com/license/free (Icons: CC BY 4.0, Fonts: SIL OFL 1.1, Code: MIT License) Copyright 2023 Fonticons, Inc. --><path d="M128 136c0-22.1-17.9-40-40-40L40 96C17.9 96 0 113.9 0 136l0 48c0 22.1 17.9 40 40 40H88c22.1 0 40-17.9 40-40V136zm0 192c0-22.1-17.9-40-40-40H40c-22.1 0-40 17.9-40 40v48c0 22.1 17.9 40 40 40H88c22.1 0 40-17.9 40-40V328zm32-192v48c0 22.1 17.9 40 40 40h48c22.1 0 40-17.9 40-40V136c0-22.1-17.9-40-40-40l-48 0c-22.1 0-40 17.9-40 40zM288 328c0-22.1-17.9-40-40-40H200c-22.1 0-40 17.9-40 40l0 48c0 22.1 17.9 40 40 40h48c22.1 0 40-17.9 40-40V328zm32-192v48c0 22.1 17.9 40 40 40h48c22.1 0 40-17.9 40-40V136c0-22.1-17.9-40-40-40l-48 0c-22.1 0-40 17.9-40 40zM448 328c0-22.1-17.9-40-40-40H360c-22.1 0-40 17.9-40 40v48c0 22.1 17.9 40 40 40h48c22.1 0 40-17.9 40-40V328z"/></svg>