<!--
  - Copyright (c) 2023, Terwer . All rights reserved.
  - DO NOT ALTER OR REMOVE COPYRIGHT NOTICES OR THIS FILE HEADER.
  -
  - This code is free software; you can redistribute it and/or modify it
  - under the terms of the GNU General Public License version 2 only, as
  - published by the Free Software Foundation.  Terwer designates this
  - particular file as subject to the "Classpath" exception as provided
  - by Terwer in the LICENSE file that accompanied this code.
  -
  - This code is distributed in the hope that it will be useful, but WITHOUT
  - ANY WARRANTY; without even the implied warranty of MERCHANTABILITY or
  - FITNESS FOR A PARTICULAR PURPOSE.  See the GNU General Public License
  - version 2 for more details (a copy is included in the LICENSE file that
  - accompanied this code).
  -
  - You should have received a copy of the GNU General Public License version
  - 2 along with this work; if not, write to the Free Software Foundation,
  - Inc., 51 Franklin St, Fifth Floor, Boston, MA 02110-1301 USA.
  -
  - Please contact Terwer, Shenzhen, Guangdong, China, youweics@163.com
  - or visit www.terwer.space if you need additional information or have any
  - questions.
  -->

<svg xmlns="http://www.w3.org/2000/svg" viewBox="0 0 448 512"><!--! Font Awesome Free 6.3.0 by @fontawesome - https://fontawesome.com License - https://fontawesome.com/license/free (Icons: CC BY 4.0, Fonts: SIL OFL 1.1, Code: MIT License) Copyright 2023 Fonticons, Inc. --><path d="M128 0C101.5 0 80 21.5 80 48V96v28.5V176c0 8.8-7.2 16-16 16s-16-7.2-16-16V149.3l-9 7.5C24.4 169 16 187 16 206V244c0 38 16.9 74 46.1 98.3L112 384v96c0 17.7 14.3 32 32 32H304c17.7 0 32-14.3 32-32V374.7c46.9-19 80-65 80-118.7V176 160 144c0-26.5-21.5-48-48-48c-12.4 0-23.6 4.7-32.1 12.3C334 83.5 313.3 64 288 64c-12.4 0-23.6 4.7-32.1 12.3C254 51.5 233.3 32 208 32c-12.4 0-23.6 4.7-32.1 12.3C174 19.5 153.3 0 128 0z"/></svg>