<!--
  - Copyright (c) 2023, Terwer . All rights reserved.
  - DO NOT ALTER OR REMOVE COPYRIGHT NOTICES OR THIS FILE HEADER.
  -
  - This code is free software; you can redistribute it and/or modify it
  - under the terms of the GNU General Public License version 2 only, as
  - published by the Free Software Foundation.  Terwer designates this
  - particular file as subject to the "Classpath" exception as provided
  - by Terwer in the LICENSE file that accompanied this code.
  -
  - This code is distributed in the hope that it will be useful, but WITHOUT
  - ANY WARRANTY; without even the implied warranty of MERCHANTABILITY or
  - FITNESS FOR A PARTICULAR PURPOSE.  See the GNU General Public License
  - version 2 for more details (a copy is included in the LICENSE file that
  - accompanied this code).
  -
  - You should have received a copy of the GNU General Public License version
  - 2 along with this work; if not, write to the Free Software Foundation,
  - Inc., 51 Franklin St, Fifth Floor, Boston, MA 02110-1301 USA.
  -
  - Please contact Terwer, Shenzhen, Guangdong, China, youweics@163.com
  - or visit www.terwer.space if you need additional information or have any
  - questions.
  -->

<svg xmlns="http://www.w3.org/2000/svg" viewBox="0 0 384 512"><!--! Font Awesome Free 6.3.0 by @fontawesome - https://fontawesome.com License - https://fontawesome.com/license/free (Icons: CC BY 4.0, Fonts: SIL OFL 1.1, Code: MIT License) Copyright 2023 Fonticons, Inc. --><path d="M32 480c0 17.7 14.3 32 32 32s32-14.3 32-32V272H32V480zM224 320c0 17.7 14.3 32 32 32s32-14.3 32-32V256c0-17.7-14.3-32-32-32s-32 14.3-32 32v64zm-64 64c17.7 0 32-14.3 32-32V304c0-17.7-14.3-32-32-32s-32 14.3-32 32v48c0 17.7 14.3 32 32 32zm160-96c0 17.7 14.3 32 32 32s32-14.3 32-32V224c0-17.7-14.3-32-32-32s-32 14.3-32 32v64zm-96-88l0 .6c9.4-5.4 20.3-8.6 32-8.6c13.2 0 25.4 4 35.6 10.8c8.7-24.9 32.5-42.8 60.4-42.8c11.7 0 22.6 3.1 32 8.6V160C384 71.6 312.4 0 224 0H162.3C119.8 0 79.1 16.9 49.1 46.9L37.5 58.5C13.5 82.5 0 115.1 0 149v27c0 35.3 28.7 64 64 64h88c22.1 0 40-17.9 40-40s-17.9-40-40-40H96c-8.8 0-16-7.2-16-16s7.2-16 16-16h56c39.8 0 72 32.2 72 72z"/></svg>