<!--
  - Copyright (c) 2023, Terwer . All rights reserved.
  - DO NOT ALTER OR REMOVE COPYRIGHT NOTICES OR THIS FILE HEADER.
  -
  - This code is free software; you can redistribute it and/or modify it
  - under the terms of the GNU General Public License version 2 only, as
  - published by the Free Software Foundation.  Terwer designates this
  - particular file as subject to the "Classpath" exception as provided
  - by Terwer in the LICENSE file that accompanied this code.
  -
  - This code is distributed in the hope that it will be useful, but WITHOUT
  - ANY WARRANTY; without even the implied warranty of MERCHANTABILITY or
  - FITNESS FOR A PARTICULAR PURPOSE.  See the GNU General Public License
  - version 2 for more details (a copy is included in the LICENSE file that
  - accompanied this code).
  -
  - You should have received a copy of the GNU General Public License version
  - 2 along with this work; if not, write to the Free Software Foundation,
  - Inc., 51 Franklin St, Fifth Floor, Boston, MA 02110-1301 USA.
  -
  - Please contact Terwer, Shenzhen, Guangdong, China, youweics@163.com
  - or visit www.terwer.space if you need additional information or have any
  - questions.
  -->

<svg xmlns="http://www.w3.org/2000/svg" viewBox="0 0 640 512"><!--! Font Awesome Free 6.3.0 by @fontawesome - https://fontawesome.com License - https://fontawesome.com/license/free (Icons: CC BY 4.0, Fonts: SIL OFL 1.1, Code: MIT License) Copyright 2023 Fonticons, Inc. --><path d="M192 48c0-26.5 21.5-48 48-48H400c26.5 0 48 21.5 48 48V512H368V432c0-26.5-21.5-48-48-48s-48 21.5-48 48v80H192V48zM48 96H160V512H48c-26.5 0-48-21.5-48-48V320H80c8.8 0 16-7.2 16-16s-7.2-16-16-16H0V224H80c8.8 0 16-7.2 16-16s-7.2-16-16-16H0V144c0-26.5 21.5-48 48-48zm544 0c26.5 0 48 21.5 48 48v48H560c-8.8 0-16 7.2-16 16s7.2 16 16 16h80v64H560c-8.8 0-16 7.2-16 16s7.2 16 16 16h80V464c0 26.5-21.5 48-48 48H480V96H592zM312 64c-8.8 0-16 7.2-16 16v24H272c-8.8 0-16 7.2-16 16v16c0 8.8 7.2 16 16 16h24v24c0 8.8 7.2 16 16 16h16c8.8 0 16-7.2 16-16V152h24c8.8 0 16-7.2 16-16V120c0-8.8-7.2-16-16-16H344V80c0-8.8-7.2-16-16-16H312z"/></svg>