<!--
  - Copyright (c) 2023, Terwer . All rights reserved.
  - DO NOT ALTER OR REMOVE COPYRIGHT NOTICES OR THIS FILE HEADER.
  -
  - This code is free software; you can redistribute it and/or modify it
  - under the terms of the GNU General Public License version 2 only, as
  - published by the Free Software Foundation.  Terwer designates this
  - particular file as subject to the "Classpath" exception as provided
  - by Terwer in the LICENSE file that accompanied this code.
  -
  - This code is distributed in the hope that it will be useful, but WITHOUT
  - ANY WARRANTY; without even the implied warranty of MERCHANTABILITY or
  - FITNESS FOR A PARTICULAR PURPOSE.  See the GNU General Public License
  - version 2 for more details (a copy is included in the LICENSE file that
  - accompanied this code).
  -
  - You should have received a copy of the GNU General Public License version
  - 2 along with this work; if not, write to the Free Software Foundation,
  - Inc., 51 Franklin St, Fifth Floor, Boston, MA 02110-1301 USA.
  -
  - Please contact Terwer, Shenzhen, Guangdong, China, youweics@163.com
  - or visit www.terwer.space if you need additional information or have any
  - questions.
  -->

<svg xmlns="http://www.w3.org/2000/svg" viewBox="0 0 640 512"><!--! Font Awesome Free 6.3.0 by @fontawesome - https://fontawesome.com License - https://fontawesome.com/license/free (Icons: CC BY 4.0, Fonts: SIL OFL 1.1, Code: MIT License) Copyright 2023 Fonticons, Inc. --><path d="M218.3 8.5c12.3-11.3 31.2-11.3 43.4 0l208 192c6.7 6.2 10.3 14.8 10.3 23.5H336c-19.1 0-36.3 8.4-48 21.7V208c0-8.8-7.2-16-16-16H208c-8.8 0-16 7.2-16 16v64c0 8.8 7.2 16 16 16h64V416H112c-26.5 0-48-21.5-48-48V256H32c-13.2 0-25-8.1-29.8-20.3s-1.6-26.2 8.1-35.2l208-192zM352 304V448H544V304H352zm-48-16c0-17.7 14.3-32 32-32H560c17.7 0 32 14.3 32 32V448h32c8.8 0 16 7.2 16 16c0 26.5-21.5 48-48 48H544 352 304c-26.5 0-48-21.5-48-48c0-8.8 7.2-16 16-16h32V288z"/></svg>