<!--
  - Copyright (c) 2023, Terwer . All rights reserved.
  - DO NOT ALTER OR REMOVE COPYRIGHT NOTICES OR THIS FILE HEADER.
  -
  - This code is free software; you can redistribute it and/or modify it
  - under the terms of the GNU General Public License version 2 only, as
  - published by the Free Software Foundation.  Terwer designates this
  - particular file as subject to the "Classpath" exception as provided
  - by Terwer in the LICENSE file that accompanied this code.
  -
  - This code is distributed in the hope that it will be useful, but WITHOUT
  - ANY WARRANTY; without even the implied warranty of MERCHANTABILITY or
  - FITNESS FOR A PARTICULAR PURPOSE.  See the GNU General Public License
  - version 2 for more details (a copy is included in the LICENSE file that
  - accompanied this code).
  -
  - You should have received a copy of the GNU General Public License version
  - 2 along with this work; if not, write to the Free Software Foundation,
  - Inc., 51 Franklin St, Fifth Floor, Boston, MA 02110-1301 USA.
  -
  - Please contact Terwer, Shenzhen, Guangdong, China, youweics@163.com
  - or visit www.terwer.space if you need additional information or have any
  - questions.
  -->

<svg xmlns="http://www.w3.org/2000/svg" viewBox="0 0 576 512"><!--! Font Awesome Free 6.3.0 by @fontawesome - https://fontawesome.com License - https://fontawesome.com/license/free (Icons: CC BY 4.0, Fonts: SIL OFL 1.1, Code: MIT License) Copyright 2023 Fonticons, Inc. --><path d="M60 120l228 71.2L516 120 288 48.8 60 120zM278.5 1.5c6.2-1.9 12.9-1.9 19.1 0l256 80C566.9 85.6 576 98 576 112v16 0 21.2L292.8 237.7c-3.1 1-6.4 1-9.5 0L0 149.2V128 112C0 98 9.1 85.6 22.5 81.5l256-80zm23.9 266.8L576 182.8v46.5l-52.8 16.5c-8.4 2.6-13.1 11.6-10.5 20s11.6 13.1 20 10.5L576 262.8V400c0 14-9.1 26.4-22.5 30.5l-256 80c-6.2 1.9-12.9 1.9-19.1 0l-256-80C9.1 426.4 0 414 0 400V262.8l43.2 13.5c8.4 2.6 17.4-2.1 20-10.5s-2.1-17.4-10.5-20L0 229.2V182.8l273.7 85.5c9.3 2.9 19.3 2.9 28.6 0zm-185.5-2.6c-8.4-2.6-17.4 2.1-20 10.5s2.1 17.4 10.5 20l64 20c8.4 2.6 17.4-2.1 20-10.5s-2.1-17.4-10.5-20l-64-20zm352 30.5c8.4-2.6 13.1-11.6 10.5-20s-11.6-13.1-20-10.5l-64 20c-8.4 2.6-13.1 11.6-10.5 20s11.6 13.1 20 10.5l64-20zm-224 9.5c-8.4-2.6-17.4 2.1-20 10.5s2.1 17.4 10.5 20l38.5 12c9.3 2.9 19.3 2.9 28.6 0l38.5-12c8.4-2.6 13.1-11.6 10.5-20s-11.6-13.1-20-10.5l-38.5 12c-3.1 1-6.4 1-9.5 0l-38.5-12z"/></svg>