<!--
  - Copyright (c) 2023, Terwer . All rights reserved.
  - DO NOT ALTER OR REMOVE COPYRIGHT NOTICES OR THIS FILE HEADER.
  -
  - This code is free software; you can redistribute it and/or modify it
  - under the terms of the GNU General Public License version 2 only, as
  - published by the Free Software Foundation.  Terwer designates this
  - particular file as subject to the "Classpath" exception as provided
  - by Terwer in the LICENSE file that accompanied this code.
  -
  - This code is distributed in the hope that it will be useful, but WITHOUT
  - ANY WARRANTY; without even the implied warranty of MERCHANTABILITY or
  - FITNESS FOR A PARTICULAR PURPOSE.  See the GNU General Public License
  - version 2 for more details (a copy is included in the LICENSE file that
  - accompanied this code).
  -
  - You should have received a copy of the GNU General Public License version
  - 2 along with this work; if not, write to the Free Software Foundation,
  - Inc., 51 Franklin St, Fifth Floor, Boston, MA 02110-1301 USA.
  -
  - Please contact Terwer, Shenzhen, Guangdong, China, youweics@163.com
  - or visit www.terwer.space if you need additional information or have any
  - questions.
  -->

<svg xmlns="http://www.w3.org/2000/svg" viewBox="0 0 576 512"><!--! Font Awesome Free 6.3.0 by @fontawesome - https://fontawesome.com License - https://fontawesome.com/license/free (Icons: CC BY 4.0, Fonts: SIL OFL 1.1, Code: MIT License) Copyright 2023 Fonticons, Inc. --><path d="M291.2 388.4c31.2-18.8 64.7-36.4 101.1-36.4H448c4.6 0 9.1-.2 13.6-.7l85.3 121.9c4 5.7 11.3 8.2 17.9 6.1s11.2-8.3 11.2-15.3V224c0-70.7-57.3-128-128-128H392.3c-36.4 0-69.9-17.6-101.1-36.4C262.3 42.1 228.3 32 192 32C86 32 0 118 0 224c0 71.1 38.6 133.1 96 166.3V456c0 13.3 10.7 24 24 24s24-10.7 24-24V410c15.3 3.9 31.4 6 48 6c5.4 0 10.7-.2 16-.7V456c0 13.3 10.7 24 24 24s24-10.7 24-24V405.1c12.4-4.4 24.2-10 35.2-16.7zM448 200a24 24 0 1 1 0 48 24 24 0 1 1 0-48z"/></svg>