<!--
  - Copyright (c) 2023, Terwer . All rights reserved.
  - DO NOT ALTER OR REMOVE COPYRIGHT NOTICES OR THIS FILE HEADER.
  -
  - This code is free software; you can redistribute it and/or modify it
  - under the terms of the GNU General Public License version 2 only, as
  - published by the Free Software Foundation.  Terwer designates this
  - particular file as subject to the "Classpath" exception as provided
  - by Terwer in the LICENSE file that accompanied this code.
  -
  - This code is distributed in the hope that it will be useful, but WITHOUT
  - ANY WARRANTY; without even the implied warranty of MERCHANTABILITY or
  - FITNESS FOR A PARTICULAR PURPOSE.  See the GNU General Public License
  - version 2 for more details (a copy is included in the LICENSE file that
  - accompanied this code).
  -
  - You should have received a copy of the GNU General Public License version
  - 2 along with this work; if not, write to the Free Software Foundation,
  - Inc., 51 Franklin St, Fifth Floor, Boston, MA 02110-1301 USA.
  -
  - Please contact Terwer, Shenzhen, Guangdong, China, youweics@163.com
  - or visit www.terwer.space if you need additional information or have any
  - questions.
  -->

<svg xmlns="http://www.w3.org/2000/svg" viewBox="0 0 512 512"><!--! Font Awesome Free 6.3.0 by @fontawesome - https://fontawesome.com License - https://fontawesome.com/license/free (Icons: CC BY 4.0, Fonts: SIL OFL 1.1, Code: MIT License) Copyright 2023 Fonticons, Inc. --><path d="M504.3 273.6c4.9-4.5 7.7-10.9 7.7-17.6s-2.8-13-7.7-17.6l-112-104c-7-6.5-17.2-8.2-25.9-4.4s-14.4 12.5-14.4 22l0 56-192 0 0-56c0-9.5-5.7-18.2-14.4-22s-18.9-2.1-25.9 4.4l-112 104C2.8 243 0 249.3 0 256s2.8 13 7.7 17.6l112 104c7 6.5 17.2 8.2 25.9 4.4s14.4-12.5 14.4-22l0-56 192 0 0 56c0 9.5 5.7 18.2 14.4 22s18.9 2.1 25.9-4.4l112-104z"/></svg>