<!--
  - Copyright (c) 2023, Terwer . All rights reserved.
  - DO NOT ALTER OR REMOVE COPYRIGHT NOTICES OR THIS FILE HEADER.
  -
  - This code is free software; you can redistribute it and/or modify it
  - under the terms of the GNU General Public License version 2 only, as
  - published by the Free Software Foundation.  Terwer designates this
  - particular file as subject to the "Classpath" exception as provided
  - by Terwer in the LICENSE file that accompanied this code.
  -
  - This code is distributed in the hope that it will be useful, but WITHOUT
  - ANY WARRANTY; without even the implied warranty of MERCHANTABILITY or
  - FITNESS FOR A PARTICULAR PURPOSE.  See the GNU General Public License
  - version 2 for more details (a copy is included in the LICENSE file that
  - accompanied this code).
  -
  - You should have received a copy of the GNU General Public License version
  - 2 along with this work; if not, write to the Free Software Foundation,
  - Inc., 51 Franklin St, Fifth Floor, Boston, MA 02110-1301 USA.
  -
  - Please contact Terwer, Shenzhen, Guangdong, China, youweics@163.com
  - or visit www.terwer.space if you need additional information or have any
  - questions.
  -->

<svg xmlns="http://www.w3.org/2000/svg" viewBox="0 0 448 512"><!--! Font Awesome Free 6.3.0 by @fontawesome - https://fontawesome.com License - https://fontawesome.com/license/free (Icons: CC BY 4.0, Fonts: SIL OFL 1.1, Code: MIT License) Copyright 2023 Fonticons, Inc. --><path d="M168 32H24C10.7 32 0 42.7 0 56V200c0 9.7 5.8 18.5 14.8 22.2s19.3 1.7 26.2-5.2l40-40 79 79L81 335 41 295c-6.9-6.9-17.2-8.9-26.2-5.2S0 302.3 0 312V456c0 13.3 10.7 24 24 24H168c9.7 0 18.5-5.8 22.2-14.8s1.7-19.3-5.2-26.2l-40-40 79-79 79 79-40 40c-6.9 6.9-8.9 17.2-5.2 26.2s12.5 14.8 22.2 14.8H424c13.3 0 24-10.7 24-24V312c0-9.7-5.8-18.5-14.8-22.2s-19.3-1.7-26.2 5.2l-40 40-79-79 79-79 40 40c6.9 6.9 17.2 8.9 26.2 5.2s14.8-12.5 14.8-22.2V56c0-13.3-10.7-24-24-24H280c-9.7 0-18.5 5.8-22.2 14.8s-1.7 19.3 5.2 26.2l40 40-79 79-79-79 40-40c6.9-6.9 8.9-17.2 5.2-26.2S177.7 32 168 32z"/></svg>