<!--
  - Copyright (c) 2023, Terwer . All rights reserved.
  - DO NOT ALTER OR REMOVE COPYRIGHT NOTICES OR THIS FILE HEADER.
  -
  - This code is free software; you can redistribute it and/or modify it
  - under the terms of the GNU General Public License version 2 only, as
  - published by the Free Software Foundation.  Terwer designates this
  - particular file as subject to the "Classpath" exception as provided
  - by Terwer in the LICENSE file that accompanied this code.
  -
  - This code is distributed in the hope that it will be useful, but WITHOUT
  - ANY WARRANTY; without even the implied warranty of MERCHANTABILITY or
  - FITNESS FOR A PARTICULAR PURPOSE.  See the GNU General Public License
  - version 2 for more details (a copy is included in the LICENSE file that
  - accompanied this code).
  -
  - You should have received a copy of the GNU General Public License version
  - 2 along with this work; if not, write to the Free Software Foundation,
  - Inc., 51 Franklin St, Fifth Floor, Boston, MA 02110-1301 USA.
  -
  - Please contact Terwer, Shenzhen, Guangdong, China, youweics@163.com
  - or visit www.terwer.space if you need additional information or have any
  - questions.
  -->

<svg xmlns="http://www.w3.org/2000/svg" viewBox="0 0 384 512"><!--! Font Awesome Free 6.3.0 by @fontawesome - https://fontawesome.com License - https://fontawesome.com/license/free (Icons: CC BY 4.0, Fonts: SIL OFL 1.1, Code: MIT License) Copyright 2023 Fonticons, Inc. --><path d="M56.1 7C69.8-4 90-1.8 101 12c17.6 22 44.7 36 75 36s57.3-14 75-36c11.1-13.8 31.2-16 45-5s16 31.2 5 45c-7.8 9.7-16.6 18.4-26.4 26.1C321.3 109.7 352 163.3 352 224c0 89.1-66.2 162.7-152 174.4V424h32c13.3 0 24 10.7 24 24s-10.7 24-24 24H200v16c0 13.3-10.7 24-24 24s-24-10.7-24-24V472H120c-13.3 0-24-10.7-24-24s10.7-24 24-24h32V398.4C66.2 386.7 0 313.1 0 224C0 163.3 30.7 109.7 77.5 78.1C67.7 70.5 58.9 61.7 51.1 52c-11.1-13.8-8.8-33.9 5-45zM64 224a112 112 0 1 0 224 0A112 112 0 1 0 64 224z"/></svg>