<!--
  - Copyright (c) 2023, Terwer . All rights reserved.
  - DO NOT ALTER OR REMOVE COPYRIGHT NOTICES OR THIS FILE HEADER.
  -
  - This code is free software; you can redistribute it and/or modify it
  - under the terms of the GNU General Public License version 2 only, as
  - published by the Free Software Foundation.  Terwer designates this
  - particular file as subject to the "Classpath" exception as provided
  - by Terwer in the LICENSE file that accompanied this code.
  -
  - This code is distributed in the hope that it will be useful, but WITHOUT
  - ANY WARRANTY; without even the implied warranty of MERCHANTABILITY or
  - FITNESS FOR A PARTICULAR PURPOSE.  See the GNU General Public License
  - version 2 for more details (a copy is included in the LICENSE file that
  - accompanied this code).
  -
  - You should have received a copy of the GNU General Public License version
  - 2 along with this work; if not, write to the Free Software Foundation,
  - Inc., 51 Franklin St, Fifth Floor, Boston, MA 02110-1301 USA.
  -
  - Please contact Terwer, Shenzhen, Guangdong, China, youweics@163.com
  - or visit www.terwer.space if you need additional information or have any
  - questions.
  -->

<svg xmlns="http://www.w3.org/2000/svg" viewBox="0 0 512 512"><!--! Font Awesome Free 6.3.0 by @fontawesome - https://fontawesome.com License - https://fontawesome.com/license/free (Icons: CC BY 4.0, Fonts: SIL OFL 1.1, Code: MIT License) Copyright 2023 Fonticons, Inc. --><path d="M493.7 .9L299.4 75.6l2.3-29.3c1-12.8-12.8-21.5-24-15.1L101.3 133.4C38.6 169.7 0 236.6 0 309C0 421.1 90.9 512 203 512c72.4 0 139.4-38.6 175.7-101.3L480.8 234.3c6.5-11.1-2.2-25-15.1-24l-29.3 2.3L511.1 18.3c.6-1.5 .9-3.2 .9-4.8C512 6 506 0 498.5 0c-1.7 0-3.3 .3-4.8 .9zM192 192a128 128 0 1 1 0 256 128 128 0 1 1 0-256zm0 96a32 32 0 1 0 -64 0 32 32 0 1 0 64 0zm16 96a16 16 0 1 0 0-32 16 16 0 1 0 0 32z"/></svg>