<!--
  - Copyright (c) 2023, Terwer . All rights reserved.
  - DO NOT ALTER OR REMOVE COPYRIGHT NOTICES OR THIS FILE HEADER.
  -
  - This code is free software; you can redistribute it and/or modify it
  - under the terms of the GNU General Public License version 2 only, as
  - published by the Free Software Foundation.  Terwer designates this
  - particular file as subject to the "Classpath" exception as provided
  - by Terwer in the LICENSE file that accompanied this code.
  -
  - This code is distributed in the hope that it will be useful, but WITHOUT
  - ANY WARRANTY; without even the implied warranty of MERCHANTABILITY or
  - FITNESS FOR A PARTICULAR PURPOSE.  See the GNU General Public License
  - version 2 for more details (a copy is included in the LICENSE file that
  - accompanied this code).
  -
  - You should have received a copy of the GNU General Public License version
  - 2 along with this work; if not, write to the Free Software Foundation,
  - Inc., 51 Franklin St, Fifth Floor, Boston, MA 02110-1301 USA.
  -
  - Please contact Terwer, Shenzhen, Guangdong, China, youweics@163.com
  - or visit www.terwer.space if you need additional information or have any
  - questions.
  -->

<svg xmlns="http://www.w3.org/2000/svg" viewBox="0 0 448 512"><!--! Font Awesome Free 6.3.0 by @fontawesome - https://fontawesome.com License - https://fontawesome.com/license/free (Icons: CC BY 4.0, Fonts: SIL OFL 1.1, Code: MIT License) Copyright 2023 Fonticons, Inc. --><path d="M122.6 46.3c-7.8-11.7-22.4-17-35.9-12.9S64 49.9 64 64V256H32c-17.7 0-32 14.3-32 32s14.3 32 32 32H64V448c0 17.7 14.3 32 32 32s32-14.3 32-32V320H228.2l97.2 145.8c7.8 11.7 22.4 17 35.9 12.9s22.7-16.5 22.7-30.6V320h32c17.7 0 32-14.3 32-32s-14.3-32-32-32H384V64c0-17.7-14.3-32-32-32s-32 14.3-32 32V256H262.5L122.6 46.3zM305.1 320H320v22.3L305.1 320zM185.5 256H128V169.7L185.5 256z"/></svg>