<!--
  - Copyright (c) 2023, Terwer . All rights reserved.
  - DO NOT ALTER OR REMOVE COPYRIGHT NOTICES OR THIS FILE HEADER.
  -
  - This code is free software; you can redistribute it and/or modify it
  - under the terms of the GNU General Public License version 2 only, as
  - published by the Free Software Foundation.  Terwer designates this
  - particular file as subject to the "Classpath" exception as provided
  - by Terwer in the LICENSE file that accompanied this code.
  -
  - This code is distributed in the hope that it will be useful, but WITHOUT
  - ANY WARRANTY; without even the implied warranty of MERCHANTABILITY or
  - FITNESS FOR A PARTICULAR PURPOSE.  See the GNU General Public License
  - version 2 for more details (a copy is included in the LICENSE file that
  - accompanied this code).
  -
  - You should have received a copy of the GNU General Public License version
  - 2 along with this work; if not, write to the Free Software Foundation,
  - Inc., 51 Franklin St, Fifth Floor, Boston, MA 02110-1301 USA.
  -
  - Please contact Terwer, Shenzhen, Guangdong, China, youweics@163.com
  - or visit www.terwer.space if you need additional information or have any
  - questions.
  -->

<svg xmlns="http://www.w3.org/2000/svg" viewBox="0 0 576 512"><!--! Font Awesome Free 6.3.0 by @fontawesome - https://fontawesome.com License - https://fontawesome.com/license/free (Icons: CC BY 4.0, Fonts: SIL OFL 1.1, Code: MIT License) Copyright 2023 Fonticons, Inc. --><path d="M528.3 61.3c-11.4-42.7-55.3-68-98-56.6L414.9 8.8C397.8 13.4 387.7 31 392.3 48l24.5 91.4L308.5 167.5l-6.3-18.1C297.7 136.6 285.6 128 272 128s-25.7 8.6-30.2 21.4l-13.6 39L96 222.6V184c0-13.3-10.7-24-24-24s-24 10.7-24 24V448H32c-17.7 0-32 14.3-32 32s14.3 32 32 32H544c17.7 0 32-14.3 32-32s-14.3-32-32-32H406.7L340 257.5l-62.2 16.1L305.3 352H238.7L265 277l-74.6 19.3L137.3 448H96V288.8l337.4-87.5 25.2 94c4.6 17.1 22.1 27.2 39.2 22.6l15.5-4.1c42.7-11.4 68-55.3 56.6-98L528.3 61.3zM205.1 448l11.2-32H327.7l11.2 32H205.1z"/></svg>