<!--
  - Copyright (c) 2023, Terwer . All rights reserved.
  - DO NOT ALTER OR REMOVE COPYRIGHT NOTICES OR THIS FILE HEADER.
  -
  - This code is free software; you can redistribute it and/or modify it
  - under the terms of the GNU General Public License version 2 only, as
  - published by the Free Software Foundation.  Terwer designates this
  - particular file as subject to the "Classpath" exception as provided
  - by Terwer in the LICENSE file that accompanied this code.
  -
  - This code is distributed in the hope that it will be useful, but WITHOUT
  - ANY WARRANTY; without even the implied warranty of MERCHANTABILITY or
  - FITNESS FOR A PARTICULAR PURPOSE.  See the GNU General Public License
  - version 2 for more details (a copy is included in the LICENSE file that
  - accompanied this code).
  -
  - You should have received a copy of the GNU General Public License version
  - 2 along with this work; if not, write to the Free Software Foundation,
  - Inc., 51 Franklin St, Fifth Floor, Boston, MA 02110-1301 USA.
  -
  - Please contact Terwer, Shenzhen, Guangdong, China, youweics@163.com
  - or visit www.terwer.space if you need additional information or have any
  - questions.
  -->

<svg xmlns="http://www.w3.org/2000/svg" viewBox="0 0 640 512"><!--! Font Awesome Free 6.3.0 by @fontawesome - https://fontawesome.com License - https://fontawesome.com/license/free (Icons: CC BY 4.0, Fonts: SIL OFL 1.1, Code: MIT License) Copyright 2023 Fonticons, Inc. --><path d="M400 96a48 48 0 1 0 0-96 48 48 0 1 0 0 96zm27.2 64l-61.8-48.8c-17.3-13.6-41.7-13.8-59.1-.3l-83.1 64.2c-30.7 23.8-28.5 70.8 4.3 91.6L288 305.1V416c0 17.7 14.3 32 32 32s32-14.3 32-32V288c0-10.7-5.3-20.7-14.2-26.6L295 232.9l60.3-48.5L396 217c5.7 4.5 12.7 7 20 7h64c17.7 0 32-14.3 32-32s-14.3-32-32-32H427.2zM56 384a72 72 0 1 1 144 0A72 72 0 1 1 56 384zm200 0A128 128 0 1 0 0 384a128 128 0 1 0 256 0zm184 0a72 72 0 1 1 144 0 72 72 0 1 1 -144 0zm200 0a128 128 0 1 0 -256 0 128 128 0 1 0 256 0z"/></svg>