<!--
  - Copyright (c) 2023, Terwer . All rights reserved.
  - DO NOT ALTER OR REMOVE COPYRIGHT NOTICES OR THIS FILE HEADER.
  -
  - This code is free software; you can redistribute it and/or modify it
  - under the terms of the GNU General Public License version 2 only, as
  - published by the Free Software Foundation.  Terwer designates this
  - particular file as subject to the "Classpath" exception as provided
  - by Terwer in the LICENSE file that accompanied this code.
  -
  - This code is distributed in the hope that it will be useful, but WITHOUT
  - ANY WARRANTY; without even the implied warranty of MERCHANTABILITY or
  - FITNESS FOR A PARTICULAR PURPOSE.  See the GNU General Public License
  - version 2 for more details (a copy is included in the LICENSE file that
  - accompanied this code).
  -
  - You should have received a copy of the GNU General Public License version
  - 2 along with this work; if not, write to the Free Software Foundation,
  - Inc., 51 Franklin St, Fifth Floor, Boston, MA 02110-1301 USA.
  -
  - Please contact Terwer, Shenzhen, Guangdong, China, youweics@163.com
  - or visit www.terwer.space if you need additional information or have any
  - questions.
  -->

<svg xmlns="http://www.w3.org/2000/svg" viewBox="0 0 448 512"><!--! Font Awesome Free 6.3.0 by @fontawesome - https://fontawesome.com License - https://fontawesome.com/license/free (Icons: CC BY 4.0, Fonts: SIL OFL 1.1, Code: MIT License) Copyright 2023 Fonticons, Inc. --><path d="M256 0c17.7 0 32 14.3 32 32l0 9.8c0 54.6-27.9 104.6-72.5 133.6l.2 .3L272.5 256l87.5 0c15.1 0 29.3 7.1 38.4 19.2l43.2 57.6c10.6 14.1 7.7 34.2-6.4 44.8s-34.2 7.7-44.8-6.4L352 320l-96 0h-1.4l92.3 142.6c9.6 14.8 5.4 34.6-9.5 44.3s-34.6 5.4-44.3-9.5L132.5 249.2c-2.9 9.2-4.5 19-4.5 29l0 73.8c0 17.7-14.3 32-32 32s-32-14.3-32-32V278.2c0-65.1 39.6-123.7 100.1-147.9C200.3 115.8 224 80.8 224 41.8l0-9.8c0-17.7 14.3-32 32-32zM80 32a48 48 0 1 1 0 96 48 48 0 1 1 0-96z"/></svg>