<!--
  - Copyright (c) 2023, Terwer . All rights reserved.
  - DO NOT ALTER OR REMOVE COPYRIGHT NOTICES OR THIS FILE HEADER.
  -
  - This code is free software; you can redistribute it and/or modify it
  - under the terms of the GNU General Public License version 2 only, as
  - published by the Free Software Foundation.  Terwer designates this
  - particular file as subject to the "Classpath" exception as provided
  - by Terwer in the LICENSE file that accompanied this code.
  -
  - This code is distributed in the hope that it will be useful, but WITHOUT
  - ANY WARRANTY; without even the implied warranty of MERCHANTABILITY or
  - FITNESS FOR A PARTICULAR PURPOSE.  See the GNU General Public License
  - version 2 for more details (a copy is included in the LICENSE file that
  - accompanied this code).
  -
  - You should have received a copy of the GNU General Public License version
  - 2 along with this work; if not, write to the Free Software Foundation,
  - Inc., 51 Franklin St, Fifth Floor, Boston, MA 02110-1301 USA.
  -
  - Please contact Terwer, Shenzhen, Guangdong, China, youweics@163.com
  - or visit www.terwer.space if you need additional information or have any
  - questions.
  -->

<svg xmlns="http://www.w3.org/2000/svg" viewBox="0 0 640 512"><!--! Font Awesome Free 6.3.0 by @fontawesome - https://fontawesome.com License - https://fontawesome.com/license/free (Icons: CC BY 4.0, Fonts: SIL OFL 1.1, Code: MIT License) Copyright 2023 Fonticons, Inc. --><path d="M64 64l224 0 0 9.8c0 39-23.7 74-59.9 88.4C167.6 186.5 128 245 128 310.2l0 73.8s0 0 0 0H64V64zm288 0l224 0V384H508.3l-3.7-4.5-75.2-90.2c-9.1-10.9-22.6-17.3-36.9-17.3l-71.1 0-41-63.1c-.3-.5-.6-1-1-1.4c44.7-29 72.5-79 72.5-133.6l0-9.8zm73 320H379.2l42.7 64H592c26.5 0 48-21.5 48-48V48c0-26.5-21.5-48-48-48H48C21.5 0 0 21.5 0 48V400c0 26.5 21.5 48 48 48H308.2l33.2 49.8c9.8 14.7 29.7 18.7 44.4 8.9s18.7-29.7 8.9-44.4L310.5 336l74.6 0 40 48zm-159.5 0H192s0 0 0 0l0-73.8c0-10.2 1.6-20.1 4.7-29.5L265.5 384zM192 128a48 48 0 1 0 -96 0 48 48 0 1 0 96 0z"/></svg>