<!--
  - Copyright (c) 2023, Terwer . All rights reserved.
  - DO NOT ALTER OR REMOVE COPYRIGHT NOTICES OR THIS FILE HEADER.
  -
  - This code is free software; you can redistribute it and/or modify it
  - under the terms of the GNU General Public License version 2 only, as
  - published by the Free Software Foundation.  Terwer designates this
  - particular file as subject to the "Classpath" exception as provided
  - by Terwer in the LICENSE file that accompanied this code.
  -
  - This code is distributed in the hope that it will be useful, but WITHOUT
  - ANY WARRANTY; without even the implied warranty of MERCHANTABILITY or
  - FITNESS FOR A PARTICULAR PURPOSE.  See the GNU General Public License
  - version 2 for more details (a copy is included in the LICENSE file that
  - accompanied this code).
  -
  - You should have received a copy of the GNU General Public License version
  - 2 along with this work; if not, write to the Free Software Foundation,
  - Inc., 51 Franklin St, Fifth Floor, Boston, MA 02110-1301 USA.
  -
  - Please contact Terwer, Shenzhen, Guangdong, China, youweics@163.com
  - or visit www.terwer.space if you need additional information or have any
  - questions.
  -->

<svg xmlns="http://www.w3.org/2000/svg" viewBox="0 0 576 512"><!--! Font Awesome Free 6.3.0 by @fontawesome - https://fontawesome.com License - https://fontawesome.com/license/free (Icons: CC BY 4.0, Fonts: SIL OFL 1.1, Code: MIT License) Copyright 2023 Fonticons, Inc. --><path d="M112 96c-26.5 0-48 21.5-48 48V256h96V144c0-26.5-21.5-48-48-48zM0 144C0 82.1 50.1 32 112 32s112 50.1 112 112V368c0 61.9-50.1 112-112 112S0 429.9 0 368V144zM554.9 399.4c-7.1 12.3-23.7 13.1-33.8 3.1L333.5 214.9c-10-10-9.3-26.7 3.1-33.8C360 167.7 387.1 160 416 160c88.4 0 160 71.6 160 160c0 28.9-7.7 56-21.1 79.4zm-59.5 59.5C472 472.3 444.9 480 416 480c-88.4 0-160-71.6-160-160c0-28.9 7.7-56 21.1-79.4c7.1-12.3 23.7-13.1 33.8-3.1L498.5 425.1c10 10 9.3 26.7-3.1 33.8z"/></svg>