<!--
  - Copyright (c) 2023, Terwer . All rights reserved.
  - DO NOT ALTER OR REMOVE COPYRIGHT NOTICES OR THIS FILE HEADER.
  -
  - This code is free software; you can redistribute it and/or modify it
  - under the terms of the GNU General Public License version 2 only, as
  - published by the Free Software Foundation.  Terwer designates this
  - particular file as subject to the "Classpath" exception as provided
  - by Terwer in the LICENSE file that accompanied this code.
  -
  - This code is distributed in the hope that it will be useful, but WITHOUT
  - ANY WARRANTY; without even the implied warranty of MERCHANTABILITY or
  - FITNESS FOR A PARTICULAR PURPOSE.  See the GNU General Public License
  - version 2 for more details (a copy is included in the LICENSE file that
  - accompanied this code).
  -
  - You should have received a copy of the GNU General Public License version
  - 2 along with this work; if not, write to the Free Software Foundation,
  - Inc., 51 Franklin St, Fifth Floor, Boston, MA 02110-1301 USA.
  -
  - Please contact Terwer, Shenzhen, Guangdong, China, youweics@163.com
  - or visit www.terwer.space if you need additional information or have any
  - questions.
  -->

<svg xmlns="http://www.w3.org/2000/svg" viewBox="0 0 512 512"><!--! Font Awesome Free 6.3.0 by @fontawesome - https://fontawesome.com License - https://fontawesome.com/license/free (Icons: CC BY 4.0, Fonts: SIL OFL 1.1, Code: MIT License) Copyright 2023 Fonticons, Inc. --><path d="M192 93.7C192 59.5 221 0 256 0c36 0 64 59.5 64 93.7l0 66.3L497.8 278.5c8.9 5.9 14.2 15.9 14.2 26.6v56.7c0 10.9-10.7 18.6-21.1 15.2L320 320v80l57.6 43.2c4 3 6.4 7.8 6.4 12.8v42c0 7.8-6.3 14-14 14c-1.3 0-2.6-.2-3.9-.5L256 480 145.9 511.5c-1.3 .4-2.6 .5-3.9 .5c-7.8 0-14-6.3-14-14V456c0-5 2.4-9.8 6.4-12.8L192 400V320L21.1 377C10.7 380.4 0 372.7 0 361.8V305.1c0-10.7 5.3-20.7 14.2-26.6L192 160V93.7z"/></svg>