<!--
  - Copyright (c) 2023, Terwer . All rights reserved.
  - DO NOT ALTER OR REMOVE COPYRIGHT NOTICES OR THIS FILE HEADER.
  -
  - This code is free software; you can redistribute it and/or modify it
  - under the terms of the GNU General Public License version 2 only, as
  - published by the Free Software Foundation.  Terwer designates this
  - particular file as subject to the "Classpath" exception as provided
  - by Terwer in the LICENSE file that accompanied this code.
  -
  - This code is distributed in the hope that it will be useful, but WITHOUT
  - ANY WARRANTY; without even the implied warranty of MERCHANTABILITY or
  - FITNESS FOR A PARTICULAR PURPOSE.  See the GNU General Public License
  - version 2 for more details (a copy is included in the LICENSE file that
  - accompanied this code).
  -
  - You should have received a copy of the GNU General Public License version
  - 2 along with this work; if not, write to the Free Software Foundation,
  - Inc., 51 Franklin St, Fifth Floor, Boston, MA 02110-1301 USA.
  -
  - Please contact Terwer, Shenzhen, Guangdong, China, youweics@163.com
  - or visit www.terwer.space if you need additional information or have any
  - questions.
  -->

<svg xmlns="http://www.w3.org/2000/svg" viewBox="0 0 512 512"><!--! Font Awesome Free 6.3.0 by @fontawesome - https://fontawesome.com License - https://fontawesome.com/license/free (Icons: CC BY 4.0, Fonts: SIL OFL 1.1, Code: MIT License) Copyright 2023 Fonticons, Inc. --><path d="M176 32c44.2 0 80 35.8 80 80v16c0 8.8-7.2 16-16 16c-44.2 0-80-35.8-80-80V48c0-8.8 7.2-16 16-16zM56 64h48c13.3 0 24 10.7 24 24s-10.7 24-24 24H56c-13.3 0-24-10.7-24-24s10.7-24 24-24zM24 136H136c13.3 0 24 10.7 24 24s-10.7 24-24 24H24c-13.3 0-24-10.7-24-24s10.7-24 24-24zm8 96c0-13.3 10.7-24 24-24h48c13.3 0 24 10.7 24 24s-10.7 24-24 24H56c-13.3 0-24-10.7-24-24zM272 48c0-8.8 7.2-16 16-16c44.2 0 80 35.8 80 80v16c0 8.8-7.2 16-16 16c-44.2 0-80-35.8-80-80V48zM400 32c44.2 0 80 35.8 80 80v16c0 8.8-7.2 16-16 16c-44.2 0-80-35.8-80-80V48c0-8.8 7.2-16 16-16zm80 160v16c0 44.2-35.8 80-80 80c-8.8 0-16-7.2-16-16V256c0-44.2 35.8-80 80-80c8.8 0 16 7.2 16 16zM352 176c8.8 0 16 7.2 16 16v16c0 44.2-35.8 80-80 80c-8.8 0-16-7.2-16-16V256c0-44.2 35.8-80 80-80zm-96 16v16c0 44.2-35.8 80-80 80c-8.8 0-16-7.2-16-16V256c0-44.2 35.8-80 80-80c8.8 0 16 7.2 16 16zM3.5 347.6C1.6 332.9 13 320 27.8 320H484.2c14.8 0 26.2 12.9 24.4 27.6C502.3 397.8 464.2 437 416 446v2c0 17.7-14.3 32-32 32H128c-17.7 0-32-14.3-32-32v-2c-48.2-9-86.3-48.2-92.5-98.4z"/></svg>