<!--
  - Copyright (c) 2023, Terwer . All rights reserved.
  - DO NOT ALTER OR REMOVE COPYRIGHT NOTICES OR THIS FILE HEADER.
  -
  - This code is free software; you can redistribute it and/or modify it
  - under the terms of the GNU General Public License version 2 only, as
  - published by the Free Software Foundation.  Terwer designates this
  - particular file as subject to the "Classpath" exception as provided
  - by Terwer in the LICENSE file that accompanied this code.
  -
  - This code is distributed in the hope that it will be useful, but WITHOUT
  - ANY WARRANTY; without even the implied warranty of MERCHANTABILITY or
  - FITNESS FOR A PARTICULAR PURPOSE.  See the GNU General Public License
  - version 2 for more details (a copy is included in the LICENSE file that
  - accompanied this code).
  -
  - You should have received a copy of the GNU General Public License version
  - 2 along with this work; if not, write to the Free Software Foundation,
  - Inc., 51 Franklin St, Fifth Floor, Boston, MA 02110-1301 USA.
  -
  - Please contact Terwer, Shenzhen, Guangdong, China, youweics@163.com
  - or visit www.terwer.space if you need additional information or have any
  - questions.
  -->

<svg xmlns="http://www.w3.org/2000/svg" viewBox="0 0 448 512"><!--! Font Awesome Free 6.3.0 by @fontawesome - https://fontawesome.com License - https://fontawesome.com/license/free (Icons: CC BY 4.0, Fonts: SIL OFL 1.1, Code: MIT License) Copyright 2023 Fonticons, Inc. --><path d="M32 0C14.3 0 0 14.3 0 32V192v96c0 17.7 14.3 32 32 32s32-14.3 32-32V224h50.7l128 128L137.4 457.4c-12.5 12.5-12.5 32.8 0 45.3s32.8 12.5 45.3 0L288 397.3 393.4 502.6c12.5 12.5 32.8 12.5 45.3 0s12.5-32.8 0-45.3L333.3 352 438.6 246.6c12.5-12.5 12.5-32.8 0-45.3s-32.8-12.5-45.3 0L288 306.7l-85.8-85.8C251.4 209.1 288 164.8 288 112C288 50.1 237.9 0 176 0H32zM176 160H64V64H176c26.5 0 48 21.5 48 48s-21.5 48-48 48z"/></svg>