<!--
  - Copyright (c) 2023, Terwer . All rights reserved.
  - DO NOT ALTER OR REMOVE COPYRIGHT NOTICES OR THIS FILE HEADER.
  -
  - This code is free software; you can redistribute it and/or modify it
  - under the terms of the GNU General Public License version 2 only, as
  - published by the Free Software Foundation.  Terwer designates this
  - particular file as subject to the "Classpath" exception as provided
  - by Terwer in the LICENSE file that accompanied this code.
  -
  - This code is distributed in the hope that it will be useful, but WITHOUT
  - ANY WARRANTY; without even the implied warranty of MERCHANTABILITY or
  - FITNESS FOR A PARTICULAR PURPOSE.  See the GNU General Public License
  - version 2 for more details (a copy is included in the LICENSE file that
  - accompanied this code).
  -
  - You should have received a copy of the GNU General Public License version
  - 2 along with this work; if not, write to the Free Software Foundation,
  - Inc., 51 Franklin St, Fifth Floor, Boston, MA 02110-1301 USA.
  -
  - Please contact Terwer, Shenzhen, Guangdong, China, youweics@163.com
  - or visit www.terwer.space if you need additional information or have any
  - questions.
  -->

<svg xmlns="http://www.w3.org/2000/svg" viewBox="0 0 640 512"><!--! Font Awesome Free 6.3.0 by @fontawesome - https://fontawesome.com License - https://fontawesome.com/license/free (Icons: CC BY 4.0, Fonts: SIL OFL 1.1, Code: MIT License) Copyright 2023 Fonticons, Inc. --><path d="M320 96C178.6 96 64 210.6 64 352v96c0 17.7-14.3 32-32 32s-32-14.3-32-32V352C0 175.3 143.3 32 320 32s320 143.3 320 320v96c0 17.7-14.3 32-32 32s-32-14.3-32-32V352C576 210.6 461.4 96 320 96zm0 192c-35.3 0-64 28.7-64 64v96c0 17.7-14.3 32-32 32s-32-14.3-32-32V352c0-70.7 57.3-128 128-128s128 57.3 128 128v96c0 17.7-14.3 32-32 32s-32-14.3-32-32V352c0-35.3-28.7-64-64-64zM160 352v96c0 17.7-14.3 32-32 32s-32-14.3-32-32V352c0-123.7 100.3-224 224-224s224 100.3 224 224v96c0 17.7-14.3 32-32 32s-32-14.3-32-32V352c0-88.4-71.6-160-160-160s-160 71.6-160 160z"/></svg>