<!--
  - Copyright (c) 2023, Terwer . All rights reserved.
  - DO NOT ALTER OR REMOVE COPYRIGHT NOTICES OR THIS FILE HEADER.
  -
  - This code is free software; you can redistribute it and/or modify it
  - under the terms of the GNU General Public License version 2 only, as
  - published by the Free Software Foundation.  Terwer designates this
  - particular file as subject to the "Classpath" exception as provided
  - by Terwer in the LICENSE file that accompanied this code.
  -
  - This code is distributed in the hope that it will be useful, but WITHOUT
  - ANY WARRANTY; without even the implied warranty of MERCHANTABILITY or
  - FITNESS FOR A PARTICULAR PURPOSE.  See the GNU General Public License
  - version 2 for more details (a copy is included in the LICENSE file that
  - accompanied this code).
  -
  - You should have received a copy of the GNU General Public License version
  - 2 along with this work; if not, write to the Free Software Foundation,
  - Inc., 51 Franklin St, Fifth Floor, Boston, MA 02110-1301 USA.
  -
  - Please contact Terwer, Shenzhen, Guangdong, China, youweics@163.com
  - or visit www.terwer.space if you need additional information or have any
  - questions.
  -->

<svg xmlns="http://www.w3.org/2000/svg" viewBox="0 0 640 512"><!--! Font Awesome Free 6.3.0 by @fontawesome - https://fontawesome.com License - https://fontawesome.com/license/free (Icons: CC BY 4.0, Fonts: SIL OFL 1.1, Code: MIT License) Copyright 2023 Fonticons, Inc. --><path d="M24 64H56 80V88v88 80 80 88 24H56 24c-13.3 0-24-10.7-24-24s10.7-24 24-24h8V360H24c-13.3 0-24-10.7-24-24s10.7-24 24-24h8V280H24c-13.3 0-24-10.7-24-24s10.7-24 24-24h8V200H24c-13.3 0-24-10.7-24-24s10.7-24 24-24h8V112H24C10.7 112 0 101.3 0 88S10.7 64 24 64zm88 0H528V448H112V64zM640 88c0 13.3-10.7 24-24 24h-8v40h8c13.3 0 24 10.7 24 24s-10.7 24-24 24h-8v32h8c13.3 0 24 10.7 24 24s-10.7 24-24 24h-8v32h8c13.3 0 24 10.7 24 24s-10.7 24-24 24h-8v40h8c13.3 0 24 10.7 24 24s-10.7 24-24 24H584 560V424 336 256 176 88 64h24 32c13.3 0 24 10.7 24 24z"/></svg>