<!--
  - Copyright (c) 2023, Terwer . All rights reserved.
  - DO NOT ALTER OR REMOVE COPYRIGHT NOTICES OR THIS FILE HEADER.
  -
  - This code is free software; you can redistribute it and/or modify it
  - under the terms of the GNU General Public License version 2 only, as
  - published by the Free Software Foundation.  Terwer designates this
  - particular file as subject to the "Classpath" exception as provided
  - by Terwer in the LICENSE file that accompanied this code.
  -
  - This code is distributed in the hope that it will be useful, but WITHOUT
  - ANY WARRANTY; without even the implied warranty of MERCHANTABILITY or
  - FITNESS FOR A PARTICULAR PURPOSE.  See the GNU General Public License
  - version 2 for more details (a copy is included in the LICENSE file that
  - accompanied this code).
  -
  - You should have received a copy of the GNU General Public License version
  - 2 along with this work; if not, write to the Free Software Foundation,
  - Inc., 51 Franklin St, Fifth Floor, Boston, MA 02110-1301 USA.
  -
  - Please contact Terwer, Shenzhen, Guangdong, China, youweics@163.com
  - or visit www.terwer.space if you need additional information or have any
  - questions.
  -->

<svg xmlns="http://www.w3.org/2000/svg" viewBox="0 0 512 512"><!--! Font Awesome Free 6.3.0 by @fontawesome - https://fontawesome.com License - https://fontawesome.com/license/free (Icons: CC BY 4.0, Fonts: SIL OFL 1.1, Code: MIT License) Copyright 2023 Fonticons, Inc. --><path d="M.2 468.9C2.7 493.1 23.1 512 48 512l96 0 320 0c26.5 0 48-21.5 48-48l0-96c0-26.5-21.5-48-48-48l-48 0 0 80c0 8.8-7.2 16-16 16s-16-7.2-16-16l0-80-64 0 0 80c0 8.8-7.2 16-16 16s-16-7.2-16-16l0-80-64 0 0 80c0 8.8-7.2 16-16 16s-16-7.2-16-16l0-80-80 0c-8.8 0-16-7.2-16-16s7.2-16 16-16l80 0 0-64-80 0c-8.8 0-16-7.2-16-16s7.2-16 16-16l80 0 0-64-80 0c-8.8 0-16-7.2-16-16s7.2-16 16-16l80 0 0-48c0-26.5-21.5-48-48-48L48 0C21.5 0 0 21.5 0 48L0 368l0 96c0 1.7 .1 3.3 .2 4.9z"/></svg>