<!--
  - Copyright (c) 2023, Terwer . All rights reserved.
  - DO NOT ALTER OR REMOVE COPYRIGHT NOTICES OR THIS FILE HEADER.
  -
  - This code is free software; you can redistribute it and/or modify it
  - under the terms of the GNU General Public License version 2 only, as
  - published by the Free Software Foundation.  Terwer designates this
  - particular file as subject to the "Classpath" exception as provided
  - by Terwer in the LICENSE file that accompanied this code.
  -
  - This code is distributed in the hope that it will be useful, but WITHOUT
  - ANY WARRANTY; without even the implied warranty of MERCHANTABILITY or
  - FITNESS FOR A PARTICULAR PURPOSE.  See the GNU General Public License
  - version 2 for more details (a copy is included in the LICENSE file that
  - accompanied this code).
  -
  - You should have received a copy of the GNU General Public License version
  - 2 along with this work; if not, write to the Free Software Foundation,
  - Inc., 51 Franklin St, Fifth Floor, Boston, MA 02110-1301 USA.
  -
  - Please contact Terwer, Shenzhen, Guangdong, China, youweics@163.com
  - or visit www.terwer.space if you need additional information or have any
  - questions.
  -->

<svg xmlns="http://www.w3.org/2000/svg" viewBox="0 0 512 512"><!--! Font Awesome Free 6.3.0 by @fontawesome - https://fontawesome.com License - https://fontawesome.com/license/free (Icons: CC BY 4.0, Fonts: SIL OFL 1.1, Code: MIT License) Copyright 2023 Fonticons, Inc. --><path d="M256 192l-39.5-39.5c4.9-12.6 7.5-26.2 7.5-40.5C224 50.1 173.9 0 112 0S0 50.1 0 112s50.1 112 112 112c14.3 0 27.9-2.7 40.5-7.5L192 256l-39.5 39.5c-12.6-4.9-26.2-7.5-40.5-7.5C50.1 288 0 338.1 0 400s50.1 112 112 112s112-50.1 112-112c0-14.3-2.7-27.9-7.5-40.5L499.2 76.8c7.1-7.1 7.1-18.5 0-25.6c-28.3-28.3-74.1-28.3-102.4 0L256 192zm22.6 150.6L396.8 460.8c28.3 28.3 74.1 28.3 102.4 0c7.1-7.1 7.1-18.5 0-25.6L342.6 278.6l-64 64zM64 112a48 48 0 1 1 96 0 48 48 0 1 1 -96 0zm48 240a48 48 0 1 1 0 96 48 48 0 1 1 0-96z"/></svg>