<!--
  - Copyright (c) 2023, Terwer . All rights reserved.
  - DO NOT ALTER OR REMOVE COPYRIGHT NOTICES OR THIS FILE HEADER.
  -
  - This code is free software; you can redistribute it and/or modify it
  - under the terms of the GNU General Public License version 2 only, as
  - published by the Free Software Foundation.  Terwer designates this
  - particular file as subject to the "Classpath" exception as provided
  - by Terwer in the LICENSE file that accompanied this code.
  -
  - This code is distributed in the hope that it will be useful, but WITHOUT
  - ANY WARRANTY; without even the implied warranty of MERCHANTABILITY or
  - FITNESS FOR A PARTICULAR PURPOSE.  See the GNU General Public License
  - version 2 for more details (a copy is included in the LICENSE file that
  - accompanied this code).
  -
  - You should have received a copy of the GNU General Public License version
  - 2 along with this work; if not, write to the Free Software Foundation,
  - Inc., 51 Franklin St, Fifth Floor, Boston, MA 02110-1301 USA.
  -
  - Please contact Terwer, Shenzhen, Guangdong, China, youweics@163.com
  - or visit www.terwer.space if you need additional information or have any
  - questions.
  -->

<svg xmlns="http://www.w3.org/2000/svg" viewBox="0 0 512 512"><!--! Font Awesome Free 6.3.0 by @fontawesome - https://fontawesome.com License - https://fontawesome.com/license/free (Icons: CC BY 4.0, Fonts: SIL OFL 1.1, Code: MIT License) Copyright 2023 Fonticons, Inc. --><path d="M253.4 2.9C249.2 1 244.7 0 240 0s-9.2 1-13.4 2.9L38.3 82.8C16.3 92.1-.1 113.8 0 140c.5 99.2 41.3 280.7 213.6 363.2c16.7 8 36.1 8 52.8 0C438.7 420.7 479.5 239.2 480 140c.1-26.2-16.3-47.9-38.3-57.2L253.4 2.9zM240 112c8.8 0 16 7.2 16 16c0 33 39.9 49.5 63.2 26.2c6.2-6.2 16.4-6.2 22.6 0s6.2 16.4 0 22.6C318.5 200.1 335 240 368 240c8.8 0 16 7.2 16 16s-7.2 16-16 16c-33 0-49.5 39.9-26.2 63.2c6.2 6.2 6.2 16.4 0 22.6s-16.4 6.2-22.6 0C295.9 334.5 256 351 256 384c0 8.8-7.2 16-16 16s-16-7.2-16-16c0-33-39.9-49.5-63.2-26.2c-6.2 6.2-16.4 6.2-22.6 0s-6.2-16.4 0-22.6C161.5 311.9 145 272 112 272c-8.8 0-16-7.2-16-16s7.2-16 16-16c33 0 49.5-39.9 26.2-63.2c-6.2-6.2-6.2-16.4 0-22.6s16.4-6.2 22.6 0C184.1 177.5 224 161 224 128c0-8.8 7.2-16 16-16zM216 256a24 24 0 1 0 0-48 24 24 0 1 0 0 48zm72 32a16 16 0 1 0 -32 0 16 16 0 1 0 32 0z"/></svg>