<!--
  - Copyright (c) 2023, Terwer . All rights reserved.
  - DO NOT ALTER OR REMOVE COPYRIGHT NOTICES OR THIS FILE HEADER.
  -
  - This code is free software; you can redistribute it and/or modify it
  - under the terms of the GNU General Public License version 2 only, as
  - published by the Free Software Foundation.  Terwer designates this
  - particular file as subject to the "Classpath" exception as provided
  - by Terwer in the LICENSE file that accompanied this code.
  -
  - This code is distributed in the hope that it will be useful, but WITHOUT
  - ANY WARRANTY; without even the implied warranty of MERCHANTABILITY or
  - FITNESS FOR A PARTICULAR PURPOSE.  See the GNU General Public License
  - version 2 for more details (a copy is included in the LICENSE file that
  - accompanied this code).
  -
  - You should have received a copy of the GNU General Public License version
  - 2 along with this work; if not, write to the Free Software Foundation,
  - Inc., 51 Franklin St, Fifth Floor, Boston, MA 02110-1301 USA.
  -
  - Please contact Terwer, Shenzhen, Guangdong, China, youweics@163.com
  - or visit www.terwer.space if you need additional information or have any
  - questions.
  -->

<svg xmlns="http://www.w3.org/2000/svg" viewBox="0 0 512 512"><!--! Font Awesome Free 6.3.0 by @fontawesome - https://fontawesome.com License - https://fontawesome.com/license/free (Icons: CC BY 4.0, Fonts: SIL OFL 1.1, Code: MIT License) Copyright 2023 Fonticons, Inc. --><path d="M218 32H58C40.3 32 26 46.3 26 64v64c0 17.7 14.3 32 32 32H435.4c4.2 0 8.3-1.7 11.3-4.7l48-48c6.2-6.2 6.2-16.4 0-22.6l-48-48c-3-3-7.1-4.7-11.3-4.7H282c0-17.7-14.3-32-32-32s-32 14.3-32 32zM474 256c0-17.7-14.3-32-32-32H282V192H218v32H64.6c-4.2 0-8.3 1.7-11.3 4.7l-48 48c-6.2 6.2-6.2 16.4 0 22.6l48 48c3 3 7.1 4.7 11.3 4.7H442c17.7 0 32-14.3 32-32V256zM282 480V384H218v96c0 17.7 14.3 32 32 32s32-14.3 32-32z"/></svg>