<!--
  - Copyright (c) 2023, Terwer . All rights reserved.
  - DO NOT ALTER OR REMOVE COPYRIGHT NOTICES OR THIS FILE HEADER.
  -
  - This code is free software; you can redistribute it and/or modify it
  - under the terms of the GNU General Public License version 2 only, as
  - published by the Free Software Foundation.  Terwer designates this
  - particular file as subject to the "Classpath" exception as provided
  - by Terwer in the LICENSE file that accompanied this code.
  -
  - This code is distributed in the hope that it will be useful, but WITHOUT
  - ANY WARRANTY; without even the implied warranty of MERCHANTABILITY or
  - FITNESS FOR A PARTICULAR PURPOSE.  See the GNU General Public License
  - version 2 for more details (a copy is included in the LICENSE file that
  - accompanied this code).
  -
  - You should have received a copy of the GNU General Public License version
  - 2 along with this work; if not, write to the Free Software Foundation,
  - Inc., 51 Franklin St, Fifth Floor, Boston, MA 02110-1301 USA.
  -
  - Please contact Terwer, Shenzhen, Guangdong, China, youweics@163.com
  - or visit www.terwer.space if you need additional information or have any
  - questions.
  -->

<svg xmlns="http://www.w3.org/2000/svg" viewBox="0 0 448 512"><!--! Font Awesome Free 6.3.0 by @fontawesome - https://fontawesome.com License - https://fontawesome.com/license/free (Icons: CC BY 4.0, Fonts: SIL OFL 1.1, Code: MIT License) Copyright 2023 Fonticons, Inc. --><path d="M368 128c0 44.4-25.4 83.5-64 106.4V256c0 17.7-14.3 32-32 32H176c-17.7 0-32-14.3-32-32V234.4c-38.6-23-64-62.1-64-106.4C80 57.3 144.5 0 224 0s144 57.3 144 128zM168 176a32 32 0 1 0 0-64 32 32 0 1 0 0 64zm144-32a32 32 0 1 0 -64 0 32 32 0 1 0 64 0zM3.4 273.7c7.9-15.8 27.1-22.2 42.9-14.3L224 348.2l177.7-88.8c15.8-7.9 35-1.5 42.9 14.3s1.5 35-14.3 42.9L295.6 384l134.8 67.4c15.8 7.9 22.2 27.1 14.3 42.9s-27.1 22.2-42.9 14.3L224 419.8 46.3 508.6c-15.8 7.9-35 1.5-42.9-14.3s-1.5-35 14.3-42.9L152.4 384 17.7 316.6C1.9 308.7-4.5 289.5 3.4 273.7z"/></svg>