<!--
  - Copyright (c) 2023, Terwer . All rights reserved.
  - DO NOT ALTER OR REMOVE COPYRIGHT NOTICES OR THIS FILE HEADER.
  -
  - This code is free software; you can redistribute it and/or modify it
  - under the terms of the GNU General Public License version 2 only, as
  - published by the Free Software Foundation.  Terwer designates this
  - particular file as subject to the "Classpath" exception as provided
  - by Terwer in the LICENSE file that accompanied this code.
  -
  - This code is distributed in the hope that it will be useful, but WITHOUT
  - ANY WARRANTY; without even the implied warranty of MERCHANTABILITY or
  - FITNESS FOR A PARTICULAR PURPOSE.  See the GNU General Public License
  - version 2 for more details (a copy is included in the LICENSE file that
  - accompanied this code).
  -
  - You should have received a copy of the GNU General Public License version
  - 2 along with this work; if not, write to the Free Software Foundation,
  - Inc., 51 Franklin St, Fifth Floor, Boston, MA 02110-1301 USA.
  -
  - Please contact Terwer, Shenzhen, Guangdong, China, youweics@163.com
  - or visit www.terwer.space if you need additional information or have any
  - questions.
  -->

<svg xmlns="http://www.w3.org/2000/svg" viewBox="0 0 640 512"><!--! Font Awesome Free 6.3.0 by @fontawesome - https://fontawesome.com License - https://fontawesome.com/license/free (Icons: CC BY 4.0, Fonts: SIL OFL 1.1, Code: MIT License) Copyright 2023 Fonticons, Inc. --><path d="M32 32C14.3 32 0 46.3 0 64S14.3 96 32 96V256c0 53 43 96 96 96v32h64V352H384v32h64V352c53 0 96-43 96-96V160c17.7 0 32-14.3 32-32s-14.3-32-32-32H512 480c-17.7 0-32 14.3-32 32v41.3c0 30.2-24.5 54.7-54.7 54.7c-75.5 0-145.6-38.9-185.6-102.9l-4.3-6.9C174.2 67.6 125 37.6 70.7 32.7c-2.2-.5-4.4-.7-6.7-.7H55 32zM640 384c0-17.7-14.3-32-32-32s-32 14.3-32 32v8c0 13.3-10.7 24-24 24H64c-17.7 0-32 14.3-32 32s14.3 32 32 32H552c48.6 0 88-39.4 88-88v-8z"/></svg>