<!--
  - Copyright (c) 2023, Terwer . All rights reserved.
  - DO NOT ALTER OR REMOVE COPYRIGHT NOTICES OR THIS FILE HEADER.
  -
  - This code is free software; you can redistribute it and/or modify it
  - under the terms of the GNU General Public License version 2 only, as
  - published by the Free Software Foundation.  Terwer designates this
  - particular file as subject to the "Classpath" exception as provided
  - by Terwer in the LICENSE file that accompanied this code.
  -
  - This code is distributed in the hope that it will be useful, but WITHOUT
  - ANY WARRANTY; without even the implied warranty of MERCHANTABILITY or
  - FITNESS FOR A PARTICULAR PURPOSE.  See the GNU General Public License
  - version 2 for more details (a copy is included in the LICENSE file that
  - accompanied this code).
  -
  - You should have received a copy of the GNU General Public License version
  - 2 along with this work; if not, write to the Free Software Foundation,
  - Inc., 51 Franklin St, Fifth Floor, Boston, MA 02110-1301 USA.
  -
  - Please contact Terwer, Shenzhen, Guangdong, China, youweics@163.com
  - or visit www.terwer.space if you need additional information or have any
  - questions.
  -->

<svg xmlns="http://www.w3.org/2000/svg" viewBox="0 0 512 512"><!--! Font Awesome Free 6.3.0 by @fontawesome - https://fontawesome.com License - https://fontawesome.com/license/free (Icons: CC BY 4.0, Fonts: SIL OFL 1.1, Code: MIT License) Copyright 2023 Fonticons, Inc. --><path d="M0 416c0-17.7 14.3-32 32-32l54.7 0c12.3-28.3 40.5-48 73.3-48s61 19.7 73.3 48L480 384c17.7 0 32 14.3 32 32s-14.3 32-32 32l-246.7 0c-12.3 28.3-40.5 48-73.3 48s-61-19.7-73.3-48L32 448c-17.7 0-32-14.3-32-32zm192 0a32 32 0 1 0 -64 0 32 32 0 1 0 64 0zM384 256a32 32 0 1 0 -64 0 32 32 0 1 0 64 0zm-32-80c32.8 0 61 19.7 73.3 48l54.7 0c17.7 0 32 14.3 32 32s-14.3 32-32 32l-54.7 0c-12.3 28.3-40.5 48-73.3 48s-61-19.7-73.3-48L32 288c-17.7 0-32-14.3-32-32s14.3-32 32-32l246.7 0c12.3-28.3 40.5-48 73.3-48zM192 64a32 32 0 1 0 0 64 32 32 0 1 0 0-64zm73.3 0L480 64c17.7 0 32 14.3 32 32s-14.3 32-32 32l-214.7 0c-12.3 28.3-40.5 48-73.3 48s-61-19.7-73.3-48L32 128C14.3 128 0 113.7 0 96S14.3 64 32 64l86.7 0C131 35.7 159.2 16 192 16s61 19.7 73.3 48z"/></svg>