<!--
  - Copyright (c) 2023, Terwer . All rights reserved.
  - DO NOT ALTER OR REMOVE COPYRIGHT NOTICES OR THIS FILE HEADER.
  -
  - This code is free software; you can redistribute it and/or modify it
  - under the terms of the GNU General Public License version 2 only, as
  - published by the Free Software Foundation.  Terwer designates this
  - particular file as subject to the "Classpath" exception as provided
  - by Terwer in the LICENSE file that accompanied this code.
  -
  - This code is distributed in the hope that it will be useful, but WITHOUT
  - ANY WARRANTY; without even the implied warranty of MERCHANTABILITY or
  - FITNESS FOR A PARTICULAR PURPOSE.  See the GNU General Public License
  - version 2 for more details (a copy is included in the LICENSE file that
  - accompanied this code).
  -
  - You should have received a copy of the GNU General Public License version
  - 2 along with this work; if not, write to the Free Software Foundation,
  - Inc., 51 Franklin St, Fifth Floor, Boston, MA 02110-1301 USA.
  -
  - Please contact Terwer, Shenzhen, Guangdong, China, youweics@163.com
  - or visit www.terwer.space if you need additional information or have any
  - questions.
  -->

<svg xmlns="http://www.w3.org/2000/svg" viewBox="0 0 512 512"><!--! Font Awesome Free 6.3.0 by @fontawesome - https://fontawesome.com License - https://fontawesome.com/license/free (Icons: CC BY 4.0, Fonts: SIL OFL 1.1, Code: MIT License) Copyright 2023 Fonticons, Inc. --><path d="M186 32c0-17.7 14.3-32 32-32h32c17.7 0 32 14.3 32 32V172.9l122-70.4c15.3-8.8 34.9-3.6 43.7 11.7l16 27.7c8.8 15.3 3.6 34.9-11.7 43.7L330 256l122 70.4c15.3 8.8 20.5 28.4 11.7 43.7l-16 27.7c-8.8 15.3-28.4 20.6-43.7 11.7L282 339.1V480c0 17.7-14.3 32-32 32H218c-17.7 0-32-14.3-32-32V339.1L64 409.6c-15.3 8.8-34.9 3.6-43.7-11.7l-16-27.7C-4.5 354.8 .7 335.3 16 326.4L138 256 16 185.6C.7 176.7-4.5 157.2 4.3 141.9l16-27.7C29.1 98.8 48.7 93.6 64 102.4l122 70.4V32z"/></svg>