<!--
  - Copyright (c) 2023, Terwer . All rights reserved.
  - DO NOT ALTER OR REMOVE COPYRIGHT NOTICES OR THIS FILE HEADER.
  -
  - This code is free software; you can redistribute it and/or modify it
  - under the terms of the GNU General Public License version 2 only, as
  - published by the Free Software Foundation.  Terwer designates this
  - particular file as subject to the "Classpath" exception as provided
  - by Terwer in the LICENSE file that accompanied this code.
  -
  - This code is distributed in the hope that it will be useful, but WITHOUT
  - ANY WARRANTY; without even the implied warranty of MERCHANTABILITY or
  - FITNESS FOR A PARTICULAR PURPOSE.  See the GNU General Public License
  - version 2 for more details (a copy is included in the LICENSE file that
  - accompanied this code).
  -
  - You should have received a copy of the GNU General Public License version
  - 2 along with this work; if not, write to the Free Software Foundation,
  - Inc., 51 Franklin St, Fifth Floor, Boston, MA 02110-1301 USA.
  -
  - Please contact Terwer, Shenzhen, Guangdong, China, youweics@163.com
  - or visit www.terwer.space if you need additional information or have any
  - questions.
  -->

<svg xmlns="http://www.w3.org/2000/svg" viewBox="0 0 512 512"><!--! Font Awesome Free 6.3.0 by @fontawesome - https://fontawesome.com License - https://fontawesome.com/license/free (Icons: CC BY 4.0, Fonts: SIL OFL 1.1, Code: MIT License) Copyright 2023 Fonticons, Inc. --><path d="M0 256a256 256 0 1 1 512 0A256 256 0 1 1 0 256zM312.6 63.7c-6.2-6.2-16.4-6.2-22.6 0L256 97.6 222.1 63.7c-6.2-6.2-16.4-6.2-22.6 0s-6.2 16.4 0 22.6l33.9 33.9-45.3 45.3-56.6-56.6c-6.2-6.2-16.4-6.2-22.6 0s-6.2 16.4 0 22.6l56.6 56.6-45.3 45.3L86.3 199.4c-6.2-6.2-16.4-6.2-22.6 0s-6.2 16.4 0 22.6L97.6 256 63.7 289.9c-6.2 6.2-6.2 16.4 0 22.6s16.4 6.2 22.6 0l33.9-33.9 45.3 45.3-56.6 56.6c-6.2 6.2-6.2 16.4 0 22.6s16.4 6.2 22.6 0l56.6-56.6 45.3 45.3-33.9 33.9c-6.2 6.2-6.2 16.4 0 22.6s16.4 6.2 22.6 0L256 414.4l33.9 33.9c6.2 6.2 16.4 6.2 22.6 0s6.2-16.4 0-22.6l-33.9-33.9 45.3-45.3 56.6 56.6c6.2 6.2 16.4 6.2 22.6 0s6.2-16.4 0-22.6l-56.6-56.6 45.3-45.3 33.9 33.9c6.2 6.2 16.4 6.2 22.6 0s6.2-16.4 0-22.6L414.4 256l33.9-33.9c6.2-6.2 6.2-16.4 0-22.6s-16.4-6.2-22.6 0l-33.9 33.9-45.3-45.3 56.6-56.6c6.2-6.2 6.2-16.4 0-22.6s-16.4-6.2-22.6 0l-56.6 56.6-45.3-45.3 33.9-33.9c6.2-6.2 6.2-16.4 0-22.6zM142.9 256l45.3-45.3L233.4 256l-45.3 45.3L142.9 256zm67.9 67.9L256 278.6l45.3 45.3L256 369.1l-45.3-45.3zM278.6 256l45.3-45.3L369.1 256l-45.3 45.3L278.6 256zm22.6-67.9L256 233.4l-45.3-45.3L256 142.9l45.3 45.3z"/></svg>