<!--
  - Copyright (c) 2023, Terwer . All rights reserved.
  - DO NOT ALTER OR REMOVE COPYRIGHT NOTICES OR THIS FILE HEADER.
  -
  - This code is free software; you can redistribute it and/or modify it
  - under the terms of the GNU General Public License version 2 only, as
  - published by the Free Software Foundation.  Terwer designates this
  - particular file as subject to the "Classpath" exception as provided
  - by Terwer in the LICENSE file that accompanied this code.
  -
  - This code is distributed in the hope that it will be useful, but WITHOUT
  - ANY WARRANTY; without even the implied warranty of MERCHANTABILITY or
  - FITNESS FOR A PARTICULAR PURPOSE.  See the GNU General Public License
  - version 2 for more details (a copy is included in the LICENSE file that
  - accompanied this code).
  -
  - You should have received a copy of the GNU General Public License version
  - 2 along with this work; if not, write to the Free Software Foundation,
  - Inc., 51 Franklin St, Fifth Floor, Boston, MA 02110-1301 USA.
  -
  - Please contact Terwer, Shenzhen, Guangdong, China, youweics@163.com
  - or visit www.terwer.space if you need additional information or have any
  - questions.
  -->

<svg xmlns="http://www.w3.org/2000/svg" viewBox="0 0 512 512"><!--! Font Awesome Free 6.3.0 by @fontawesome - https://fontawesome.com License - https://fontawesome.com/license/free (Icons: CC BY 4.0, Fonts: SIL OFL 1.1, Code: MIT License) Copyright 2023 Fonticons, Inc. --><path d="M480 32c0-11.1-5.7-21.4-15.2-27.2s-21.2-6.4-31.1-1.4l-32 16c-15.8 7.9-22.2 27.1-14.3 42.9C393 73.5 404.3 80 416 80v80c-17.7 0-32 14.3-32 32s14.3 32 32 32h32 32c17.7 0 32-14.3 32-32s-14.3-32-32-32V32zM32 64C14.3 64 0 78.3 0 96s14.3 32 32 32H47.3l89.6 128L47.3 384H32c-17.7 0-32 14.3-32 32s14.3 32 32 32H64c10.4 0 20.2-5.1 26.2-13.6L176 311.8l85.8 122.6c6 8.6 15.8 13.6 26.2 13.6h32c17.7 0 32-14.3 32-32s-14.3-32-32-32H304.7L215.1 256l89.6-128H320c17.7 0 32-14.3 32-32s-14.3-32-32-32H288c-10.4 0-20.2 5.1-26.2 13.6L176 200.2 90.2 77.6C84.2 69.1 74.4 64 64 64H32z"/></svg>