<!--
  - Copyright (c) 2023, Terwer . All rights reserved.
  - DO NOT ALTER OR REMOVE COPYRIGHT NOTICES OR THIS FILE HEADER.
  -
  - This code is free software; you can redistribute it and/or modify it
  - under the terms of the GNU General Public License version 2 only, as
  - published by the Free Software Foundation.  Terwer designates this
  - particular file as subject to the "Classpath" exception as provided
  - by Terwer in the LICENSE file that accompanied this code.
  -
  - This code is distributed in the hope that it will be useful, but WITHOUT
  - ANY WARRANTY; without even the implied warranty of MERCHANTABILITY or
  - FITNESS FOR A PARTICULAR PURPOSE.  See the GNU General Public License
  - version 2 for more details (a copy is included in the LICENSE file that
  - accompanied this code).
  -
  - You should have received a copy of the GNU General Public License version
  - 2 along with this work; if not, write to the Free Software Foundation,
  - Inc., 51 Franklin St, Fifth Floor, Boston, MA 02110-1301 USA.
  -
  - Please contact Terwer, Shenzhen, Guangdong, China, youweics@163.com
  - or visit www.terwer.space if you need additional information or have any
  - questions.
  -->

<svg xmlns="http://www.w3.org/2000/svg" viewBox="0 0 512 512"><!--! Font Awesome Free 6.3.0 by @fontawesome - https://fontawesome.com License - https://fontawesome.com/license/free (Icons: CC BY 4.0, Fonts: SIL OFL 1.1, Code: MIT License) Copyright 2023 Fonticons, Inc. --><path d="M0 32C0 14.3 14.3 0 32 0H160c17.7 0 32 14.3 32 32V416c0 53-43 96-96 96s-96-43-96-96V32zM223.6 425.9c.3-3.3 .4-6.6 .4-9.9V154l75.4-75.4c12.5-12.5 32.8-12.5 45.3 0l90.5 90.5c12.5 12.5 12.5 32.8 0 45.3L223.6 425.9zM182.8 512l192-192H480c17.7 0 32 14.3 32 32V480c0 17.7-14.3 32-32 32H182.8zM128 64H64v64h64V64zM64 192v64h64V192H64zM96 440a24 24 0 1 0 0-48 24 24 0 1 0 0 48z"/></svg>