<!--
  - Copyright (c) 2023, Terwer . All rights reserved.
  - DO NOT ALTER OR REMOVE COPYRIGHT NOTICES OR THIS FILE HEADER.
  -
  - This code is free software; you can redistribute it and/or modify it
  - under the terms of the GNU General Public License version 2 only, as
  - published by the Free Software Foundation.  Terwer designates this
  - particular file as subject to the "Classpath" exception as provided
  - by Terwer in the LICENSE file that accompanied this code.
  -
  - This code is distributed in the hope that it will be useful, but WITHOUT
  - ANY WARRANTY; without even the implied warranty of MERCHANTABILITY or
  - FITNESS FOR A PARTICULAR PURPOSE.  See the GNU General Public License
  - version 2 for more details (a copy is included in the LICENSE file that
  - accompanied this code).
  -
  - You should have received a copy of the GNU General Public License version
  - 2 along with this work; if not, write to the Free Software Foundation,
  - Inc., 51 Franklin St, Fifth Floor, Boston, MA 02110-1301 USA.
  -
  - Please contact Terwer, Shenzhen, Guangdong, China, youweics@163.com
  - or visit www.terwer.space if you need additional information or have any
  - questions.
  -->

<svg xmlns="http://www.w3.org/2000/svg" viewBox="0 0 512 512"><!--! Font Awesome Free 6.3.0 by @fontawesome - https://fontawesome.com License - https://fontawesome.com/license/free (Icons: CC BY 4.0, Fonts: SIL OFL 1.1, Code: MIT License) Copyright 2023 Fonticons, Inc. --><path d="M192 0c-17.7 0-32 14.3-32 32V64c0 .1 0 .1 0 .2c-38.6 2.2-72.3 27.3-85.2 64.1L39.6 228.8C16.4 238.4 0 261.3 0 288V432v48c0 17.7 14.3 32 32 32H64c17.7 0 32-14.3 32-32V432H416v48c0 17.7 14.3 32 32 32h32c17.7 0 32-14.3 32-32V432 288c0-26.7-16.4-49.6-39.6-59.2L437.2 128.3c-12.9-36.8-46.6-62-85.2-64.1c0-.1 0-.1 0-.2V32c0-17.7-14.3-32-32-32H192zM165.4 128H346.6c13.6 0 25.7 8.6 30.2 21.4L402.9 224H109.1l26.1-74.6c4.5-12.8 16.6-21.4 30.2-21.4zM96 288a32 32 0 1 1 0 64 32 32 0 1 1 0-64zm288 32a32 32 0 1 1 64 0 32 32 0 1 1 -64 0z"/></svg>