<!--
  - Copyright (c) 2023, Terwer . All rights reserved.
  - DO NOT ALTER OR REMOVE COPYRIGHT NOTICES OR THIS FILE HEADER.
  -
  - This code is free software; you can redistribute it and/or modify it
  - under the terms of the GNU General Public License version 2 only, as
  - published by the Free Software Foundation.  Terwer designates this
  - particular file as subject to the "Classpath" exception as provided
  - by Terwer in the LICENSE file that accompanied this code.
  -
  - This code is distributed in the hope that it will be useful, but WITHOUT
  - ANY WARRANTY; without even the implied warranty of MERCHANTABILITY or
  - FITNESS FOR A PARTICULAR PURPOSE.  See the GNU General Public License
  - version 2 for more details (a copy is included in the LICENSE file that
  - accompanied this code).
  -
  - You should have received a copy of the GNU General Public License version
  - 2 along with this work; if not, write to the Free Software Foundation,
  - Inc., 51 Franklin St, Fifth Floor, Boston, MA 02110-1301 USA.
  -
  - Please contact Terwer, Shenzhen, Guangdong, China, youweics@163.com
  - or visit www.terwer.space if you need additional information or have any
  - questions.
  -->

<svg xmlns="http://www.w3.org/2000/svg" viewBox="0 0 512 512"><!--! Font Awesome Free 6.3.0 by @fontawesome - https://fontawesome.com License - https://fontawesome.com/license/free (Icons: CC BY 4.0, Fonts: SIL OFL 1.1, Code: MIT License) Copyright 2023 Fonticons, Inc. --><path d="M96 382.1V293.3c0-14.9 5.9-29.1 16.4-39.6l27.3-27.3 57 57c6.2 6.2 16.4 6.2 22.6 0s6.2-16.4 0-22.6l-57-57 41.4-41.4 57 57c6.2 6.2 16.4 6.2 22.6 0s6.2-16.4 0-22.6l-57-57 41.4-41.4 57 57c6.2 6.2 16.4 6.2 22.6 0s6.2-16.4 0-22.6l-57-57 45.5-45.5C355.2 10.9 381.4 0 408.8 0C465.8 0 512 46.2 512 103.2c0 27.4-10.9 53.6-30.2 73L258.3 399.6c-10.5 10.5-24.7 16.4-39.6 16.4H129.9L41 505c-9.4 9.4-24.6 9.4-33.9 0s-9.4-24.6 0-33.9l89-89z"/></svg>