<!--
  - Copyright (c) 2023, Terwer . All rights reserved.
  - DO NOT ALTER OR REMOVE COPYRIGHT NOTICES OR THIS FILE HEADER.
  -
  - This code is free software; you can redistribute it and/or modify it
  - under the terms of the GNU General Public License version 2 only, as
  - published by the Free Software Foundation.  Terwer designates this
  - particular file as subject to the "Classpath" exception as provided
  - by Terwer in the LICENSE file that accompanied this code.
  -
  - This code is distributed in the hope that it will be useful, but WITHOUT
  - ANY WARRANTY; without even the implied warranty of MERCHANTABILITY or
  - FITNESS FOR A PARTICULAR PURPOSE.  See the GNU General Public License
  - version 2 for more details (a copy is included in the LICENSE file that
  - accompanied this code).
  -
  - You should have received a copy of the GNU General Public License version
  - 2 along with this work; if not, write to the Free Software Foundation,
  - Inc., 51 Franklin St, Fifth Floor, Boston, MA 02110-1301 USA.
  -
  - Please contact Terwer, Shenzhen, Guangdong, China, youweics@163.com
  - or visit www.terwer.space if you need additional information or have any
  - questions.
  -->

<svg xmlns="http://www.w3.org/2000/svg" viewBox="0 0 384 512"><!--! Font Awesome Free 6.3.0 by @fontawesome - https://fontawesome.com License - https://fontawesome.com/license/free (Icons: CC BY 4.0, Fonts: SIL OFL 1.1, Code: MIT License) Copyright 2023 Fonticons, Inc. --><path d="M154.1 52.1C137.3 39.1 116.7 32 95.5 32C42.7 32 0 74.7 0 127.5v6.2c0 15.8 3.7 31.3 10.7 45.5l23.5 47.1c4.5 8.9 7.6 18.4 9.4 28.2L80.4 460.2c2 11.2 11.6 19.4 22.9 19.8s21.4-7.4 24-18.4l28.9-121.3C160.2 323.7 175 312 192 312s31.8 11.7 35.8 28.3l28.9 121.3c2.6 11.1 12.7 18.8 24 18.4s20.9-8.6 22.9-19.8l36.7-205.8c1.8-9.8 4.9-19.3 9.4-28.2l23.5-47.1c7.1-14.1 10.7-29.7 10.7-45.5v-2.1c0-55-44.6-99.6-99.6-99.6c-24.1 0-47.4 8.8-65.6 24.6l-3.2 2.8 19.5 15.2c7 5.4 8.2 15.5 2.8 22.5s-15.5 8.2-22.5 2.8l-24.4-19-37-28.8z"/></svg>