<!--
  - Copyright (c) 2023, Terwer . All rights reserved.
  - DO NOT ALTER OR REMOVE COPYRIGHT NOTICES OR THIS FILE HEADER.
  -
  - This code is free software; you can redistribute it and/or modify it
  - under the terms of the GNU General Public License version 2 only, as
  - published by the Free Software Foundation.  Terwer designates this
  - particular file as subject to the "Classpath" exception as provided
  - by Terwer in the LICENSE file that accompanied this code.
  -
  - This code is distributed in the hope that it will be useful, but WITHOUT
  - ANY WARRANTY; without even the implied warranty of MERCHANTABILITY or
  - FITNESS FOR A PARTICULAR PURPOSE.  See the GNU General Public License
  - version 2 for more details (a copy is included in the LICENSE file that
  - accompanied this code).
  -
  - You should have received a copy of the GNU General Public License version
  - 2 along with this work; if not, write to the Free Software Foundation,
  - Inc., 51 Franklin St, Fifth Floor, Boston, MA 02110-1301 USA.
  -
  - Please contact Terwer, Shenzhen, Guangdong, China, youweics@163.com
  - or visit www.terwer.space if you need additional information or have any
  - questions.
  -->

<svg xmlns="http://www.w3.org/2000/svg" viewBox="0 0 448 512"><!--! Font Awesome Free 6.3.0 by @fontawesome - https://fontawesome.com License - https://fontawesome.com/license/free (Icons: CC BY 4.0, Fonts: SIL OFL 1.1, Code: MIT License) Copyright 2023 Fonticons, Inc. --><path d="M0 32V45.6C0 62.7 1.7 79.6 5 96H357.8c3.2-6.9 7.5-13.3 13-18.8l38.6-38.6c4.2-4.2 6.6-10 6.6-16C416 10.1 405.9 0 393.4 0H32C14.3 0 0 14.3 0 32zm352.2 96H13.6c12.2 35.9 32.3 68.7 58.8 96H412l-47.2-62.9c-7.3-9.7-11.6-21.2-12.6-33.1zm-226 138.2l116.4 68.5c8.2 4.8 15.8 10.7 22.5 17.3H445c2-9.8 3-19.9 3-30.1c0-23-5.3-45.5-15.3-65.9H110.2c5.2 3.6 10.5 7 16 10.2zM288 384c10.3 21.4 13.8 45.5 9.9 69l-5.9 35.7c-2 12.2 7.4 23.4 19.8 23.4c5.3 0 10.4-2.1 14.2-5.9l78.2-78.2c12.8-12.8 23.1-27.7 30.4-43.9H288z"/></svg>