<!--
  - Copyright (c) 2023, Terwer . All rights reserved.
  - DO NOT ALTER OR REMOVE COPYRIGHT NOTICES OR THIS FILE HEADER.
  -
  - This code is free software; you can redistribute it and/or modify it
  - under the terms of the GNU General Public License version 2 only, as
  - published by the Free Software Foundation.  Terwer designates this
  - particular file as subject to the "Classpath" exception as provided
  - by Terwer in the LICENSE file that accompanied this code.
  -
  - This code is distributed in the hope that it will be useful, but WITHOUT
  - ANY WARRANTY; without even the implied warranty of MERCHANTABILITY or
  - FITNESS FOR A PARTICULAR PURPOSE.  See the GNU General Public License
  - version 2 for more details (a copy is included in the LICENSE file that
  - accompanied this code).
  -
  - You should have received a copy of the GNU General Public License version
  - 2 along with this work; if not, write to the Free Software Foundation,
  - Inc., 51 Franklin St, Fifth Floor, Boston, MA 02110-1301 USA.
  -
  - Please contact Terwer, Shenzhen, Guangdong, China, youweics@163.com
  - or visit www.terwer.space if you need additional information or have any
  - questions.
  -->

<svg xmlns="http://www.w3.org/2000/svg" viewBox="0 0 512 512"><!--! Font Awesome Free 6.3.0 by @fontawesome - https://fontawesome.com License - https://fontawesome.com/license/free (Icons: CC BY 4.0, Fonts: SIL OFL 1.1, Code: MIT License) Copyright 2023 Fonticons, Inc. --><path d="M241.7 3.4c9-4.5 19.6-4.5 28.6 0l160 80c15.8 7.9 22.2 27.1 14.3 42.9C439 137.5 427.7 144 416 144v80c0 17.7-14.3 32-32 32h-4.9l32 192H480c17.7 0 32 14.3 32 32s-14.3 32-32 32H384.5c-.4 0-.8 0-1.1 0H128.6c-.4 0-.8 0-1.1 0H32c-17.7 0-32-14.3-32-32s14.3-32 32-32h68.9l32-192H128c-17.7 0-32-14.3-32-32V144c-11.7 0-23-6.5-28.6-17.7c-7.9-15.8-1.5-35 14.3-42.9l160-80zM314.5 448L256 399.2 197.5 448h117zM197.8 256l-4.7 28.3L256 336.8l62.9-52.5L314.2 256H197.8zm-13.9 83.2l-11.2 67L218.5 368l-34.6-28.8zM293.5 368l45.8 38.1-11.2-67L293.5 368zM176 128c-8.8 0-16 7.2-16 16s7.2 16 16 16H336c8.8 0 16-7.2 16-16s-7.2-16-16-16H176z"/></svg>