<!--
  - Copyright (c) 2023, Terwer . All rights reserved.
  - DO NOT ALTER OR REMOVE COPYRIGHT NOTICES OR THIS FILE HEADER.
  -
  - This code is free software; you can redistribute it and/or modify it
  - under the terms of the GNU General Public License version 2 only, as
  - published by the Free Software Foundation.  Terwer designates this
  - particular file as subject to the "Classpath" exception as provided
  - by Terwer in the LICENSE file that accompanied this code.
  -
  - This code is distributed in the hope that it will be useful, but WITHOUT
  - ANY WARRANTY; without even the implied warranty of MERCHANTABILITY or
  - FITNESS FOR A PARTICULAR PURPOSE.  See the GNU General Public License
  - version 2 for more details (a copy is included in the LICENSE file that
  - accompanied this code).
  -
  - You should have received a copy of the GNU General Public License version
  - 2 along with this work; if not, write to the Free Software Foundation,
  - Inc., 51 Franklin St, Fifth Floor, Boston, MA 02110-1301 USA.
  -
  - Please contact Terwer, Shenzhen, Guangdong, China, youweics@163.com
  - or visit www.terwer.space if you need additional information or have any
  - questions.
  -->

<svg xmlns="http://www.w3.org/2000/svg" viewBox="0 0 640 512"><!--! Font Awesome Free 6.3.0 by @fontawesome - https://fontawesome.com License - https://fontawesome.com/license/free (Icons: CC BY 4.0, Fonts: SIL OFL 1.1, Code: MIT License) Copyright 2023 Fonticons, Inc. --><path d="M345.6 108.8c-8.3-11-22.7-15.5-35.7-11.2S288 114.2 288 128V384c0 17.7 14.3 32 32 32s32-14.3 32-32V224l86.4 115.2c6 8.1 15.5 12.8 25.6 12.8s19.6-4.7 25.6-12.8L576 224V384c0 17.7 14.3 32 32 32s32-14.3 32-32V128c0-13.8-8.8-26-21.9-30.4s-27.5 .1-35.7 11.2L464 266.7 345.6 108.8zM0 128c0 17.7 14.3 32 32 32H96V384c0 17.7 14.3 32 32 32s32-14.3 32-32V160h64c17.7 0 32-14.3 32-32s-14.3-32-32-32H32C14.3 96 0 110.3 0 128z"/></svg>