<!--
  - Copyright (c) 2023, Terwer . All rights reserved.
  - DO NOT ALTER OR REMOVE COPYRIGHT NOTICES OR THIS FILE HEADER.
  -
  - This code is free software; you can redistribute it and/or modify it
  - under the terms of the GNU General Public License version 2 only, as
  - published by the Free Software Foundation.  Terwer designates this
  - particular file as subject to the "Classpath" exception as provided
  - by Terwer in the LICENSE file that accompanied this code.
  -
  - This code is distributed in the hope that it will be useful, but WITHOUT
  - ANY WARRANTY; without even the implied warranty of MERCHANTABILITY or
  - FITNESS FOR A PARTICULAR PURPOSE.  See the GNU General Public License
  - version 2 for more details (a copy is included in the LICENSE file that
  - accompanied this code).
  -
  - You should have received a copy of the GNU General Public License version
  - 2 along with this work; if not, write to the Free Software Foundation,
  - Inc., 51 Franklin St, Fifth Floor, Boston, MA 02110-1301 USA.
  -
  - Please contact Terwer, Shenzhen, Guangdong, China, youweics@163.com
  - or visit www.terwer.space if you need additional information or have any
  - questions.
  -->

<svg xmlns="http://www.w3.org/2000/svg" viewBox="0 0 640 512"><!--! Font Awesome Free 6.3.0 by @fontawesome - https://fontawesome.com License - https://fontawesome.com/license/free (Icons: CC BY 4.0, Fonts: SIL OFL 1.1, Code: MIT License) Copyright 2023 Fonticons, Inc. --><path d="M640 0V400c0 61.9-50.1 112-112 112c-61 0-110.5-48.7-112-109.3L48.4 502.9c-17.1 4.6-34.6-5.4-39.3-22.5s5.4-34.6 22.5-39.3L352 353.8V64c0-35.3 28.7-64 64-64H640zM576 400a48 48 0 1 0 -96 0 48 48 0 1 0 96 0zM23.1 207.7c-4.6-17.1 5.6-34.6 22.6-39.2l46.4-12.4 20.7 77.3c2.3 8.5 11.1 13.6 19.6 11.3l30.9-8.3c8.5-2.3 13.6-11.1 11.3-19.6l-20.7-77.3 46.4-12.4c17.1-4.6 34.6 5.6 39.2 22.6l41.4 154.5c4.6 17.1-5.6 34.6-22.6 39.2L103.7 384.9c-17.1 4.6-34.6-5.6-39.2-22.6L23.1 207.7z"/></svg>