<!--
  - Copyright (c) 2023, Terwer . All rights reserved.
  - DO NOT ALTER OR REMOVE COPYRIGHT NOTICES OR THIS FILE HEADER.
  -
  - This code is free software; you can redistribute it and/or modify it
  - under the terms of the GNU General Public License version 2 only, as
  - published by the Free Software Foundation.  Terwer designates this
  - particular file as subject to the "Classpath" exception as provided
  - by Terwer in the LICENSE file that accompanied this code.
  -
  - This code is distributed in the hope that it will be useful, but WITHOUT
  - ANY WARRANTY; without even the implied warranty of MERCHANTABILITY or
  - FITNESS FOR A PARTICULAR PURPOSE.  See the GNU General Public License
  - version 2 for more details (a copy is included in the LICENSE file that
  - accompanied this code).
  -
  - You should have received a copy of the GNU General Public License version
  - 2 along with this work; if not, write to the Free Software Foundation,
  - Inc., 51 Franklin St, Fifth Floor, Boston, MA 02110-1301 USA.
  -
  - Please contact Terwer, Shenzhen, Guangdong, China, youweics@163.com
  - or visit www.terwer.space if you need additional information or have any
  - questions.
  -->

<svg xmlns="http://www.w3.org/2000/svg" viewBox="0 0 640 512"><!--! Font Awesome Free 6.3.0 by @fontawesome - https://fontawesome.com License - https://fontawesome.com/license/free (Icons: CC BY 4.0, Fonts: SIL OFL 1.1, Code: MIT License) Copyright 2023 Fonticons, Inc. --><path d="M368.6 96l76.8 96H288V96h80.6zM224 80V192H64c-17.7 0-32 14.3-32 32v64c-17.7 0-32 14.3-32 32s14.3 32 32 32H65.1c-.7 5.2-1.1 10.6-1.1 16c0 61.9 50.1 112 112 112s112-50.1 112-112c0-5.4-.4-10.8-1.1-16h66.3c-.7 5.2-1.1 10.6-1.1 16c0 61.9 50.1 112 112 112s112-50.1 112-112c0-5.4-.4-10.8-1.1-16H608c17.7 0 32-14.3 32-32s-14.3-32-32-32V224c0-17.7-14.3-32-32-32H527.4L418.6 56c-12.1-15.2-30.5-24-50-24H272c-26.5 0-48 21.5-48 48zm0 288a48 48 0 1 1 -96 0 48 48 0 1 1 96 0zm288 0a48 48 0 1 1 -96 0 48 48 0 1 1 96 0z"/></svg>