<!--
  - Copyright (c) 2023, Terwer . All rights reserved.
  - DO NOT ALTER OR REMOVE COPYRIGHT NOTICES OR THIS FILE HEADER.
  -
  - This code is free software; you can redistribute it and/or modify it
  - under the terms of the GNU General Public License version 2 only, as
  - published by the Free Software Foundation.  Terwer designates this
  - particular file as subject to the "Classpath" exception as provided
  - by Terwer in the LICENSE file that accompanied this code.
  -
  - This code is distributed in the hope that it will be useful, but WITHOUT
  - ANY WARRANTY; without even the implied warranty of MERCHANTABILITY or
  - FITNESS FOR A PARTICULAR PURPOSE.  See the GNU General Public License
  - version 2 for more details (a copy is included in the LICENSE file that
  - accompanied this code).
  -
  - You should have received a copy of the GNU General Public License version
  - 2 along with this work; if not, write to the Free Software Foundation,
  - Inc., 51 Franklin St, Fifth Floor, Boston, MA 02110-1301 USA.
  -
  - Please contact Terwer, Shenzhen, Guangdong, China, youweics@163.com
  - or visit www.terwer.space if you need additional information or have any
  - questions.
  -->

<svg xmlns="http://www.w3.org/2000/svg" viewBox="0 0 640 512"><!--! Font Awesome Free 6.3.0 by @fontawesome - https://fontawesome.com License - https://fontawesome.com/license/free (Icons: CC BY 4.0, Fonts: SIL OFL 1.1, Code: MIT License) Copyright 2023 Fonticons, Inc. --><path d="M224 256A128 128 0 1 0 224 0a128 128 0 1 0 0 256zm-45.7 48C79.8 304 0 383.8 0 482.3C0 498.7 13.3 512 29.7 512H392.6c-5.4-9.4-8.6-20.3-8.6-32V352c0-2.1 .1-4.2 .3-6.3c-31-26-71-41.7-114.6-41.7H178.3zM528 240c17.7 0 32 14.3 32 32v48H496V272c0-17.7 14.3-32 32-32zm-80 32v48c-17.7 0-32 14.3-32 32V480c0 17.7 14.3 32 32 32H608c17.7 0 32-14.3 32-32V352c0-17.7-14.3-32-32-32V272c0-44.2-35.8-80-80-80s-80 35.8-80 80z"/></svg>