<!--
  - Copyright (c) 2023, Terwer . All rights reserved.
  - DO NOT ALTER OR REMOVE COPYRIGHT NOTICES OR THIS FILE HEADER.
  -
  - This code is free software; you can redistribute it and/or modify it
  - under the terms of the GNU General Public License version 2 only, as
  - published by the Free Software Foundation.  Terwer designates this
  - particular file as subject to the "Classpath" exception as provided
  - by Terwer in the LICENSE file that accompanied this code.
  -
  - This code is distributed in the hope that it will be useful, but WITHOUT
  - ANY WARRANTY; without even the implied warranty of MERCHANTABILITY or
  - FITNESS FOR A PARTICULAR PURPOSE.  See the GNU General Public License
  - version 2 for more details (a copy is included in the LICENSE file that
  - accompanied this code).
  -
  - You should have received a copy of the GNU General Public License version
  - 2 along with this work; if not, write to the Free Software Foundation,
  - Inc., 51 Franklin St, Fifth Floor, Boston, MA 02110-1301 USA.
  -
  - Please contact Terwer, Shenzhen, Guangdong, China, youweics@163.com
  - or visit www.terwer.space if you need additional information or have any
  - questions.
  -->

<svg xmlns="http://www.w3.org/2000/svg" viewBox="0 0 576 512"><!--! Font Awesome Free 6.3.0 by @fontawesome - https://fontawesome.com License - https://fontawesome.com/license/free (Icons: CC BY 4.0, Fonts: SIL OFL 1.1, Code: MIT License) Copyright 2023 Fonticons, Inc. --><path d="M301.1 34.8C312.6 40 320 51.4 320 64V448c0 12.6-7.4 24-18.9 29.2s-25 3.1-34.4-5.3L131.8 352H64c-35.3 0-64-28.7-64-64V224c0-35.3 28.7-64 64-64h67.8L266.7 40.1c9.4-8.4 22.9-10.4 34.4-5.3zM425 167l55 55 55-55c9.4-9.4 24.6-9.4 33.9 0s9.4 24.6 0 33.9l-55 55 55 55c9.4 9.4 9.4 24.6 0 33.9s-24.6 9.4-33.9 0l-55-55-55 55c-9.4 9.4-24.6 9.4-33.9 0s-9.4-24.6 0-33.9l55-55-55-55c-9.4-9.4-9.4-24.6 0-33.9s24.6-9.4 33.9 0z"/></svg>