<!--
  - Copyright (c) 2023, Terwer . All rights reserved.
  - DO NOT ALTER OR REMOVE COPYRIGHT NOTICES OR THIS FILE HEADER.
  -
  - This code is free software; you can redistribute it and/or modify it
  - under the terms of the GNU General Public License version 2 only, as
  - published by the Free Software Foundation.  Terwer designates this
  - particular file as subject to the "Classpath" exception as provided
  - by Terwer in the LICENSE file that accompanied this code.
  -
  - This code is distributed in the hope that it will be useful, but WITHOUT
  - ANY WARRANTY; without even the implied warranty of MERCHANTABILITY or
  - FITNESS FOR A PARTICULAR PURPOSE.  See the GNU General Public License
  - version 2 for more details (a copy is included in the LICENSE file that
  - accompanied this code).
  -
  - You should have received a copy of the GNU General Public License version
  - 2 along with this work; if not, write to the Free Software Foundation,
  - Inc., 51 Franklin St, Fifth Floor, Boston, MA 02110-1301 USA.
  -
  - Please contact Terwer, Shenzhen, Guangdong, China, youweics@163.com
  - or visit www.terwer.space if you need additional information or have any
  - questions.
  -->

<svg xmlns="http://www.w3.org/2000/svg" viewBox="0 0 384 512"><!--! Font Awesome Free 6.3.0 by @fontawesome - https://fontawesome.com License - https://fontawesome.com/license/free (Icons: CC BY 4.0, Fonts: SIL OFL 1.1, Code: MIT License) Copyright 2023 Fonticons, Inc. --><path d="M112 24c0-13.3-10.7-24-24-24S64 10.7 64 24V96H48C21.5 96 0 117.5 0 144V300.1c0 12.7 5.1 24.9 14.1 33.9l3.9 3.9c9 9 14.1 21.2 14.1 33.9V464c0 26.5 21.5 48 48 48H304c26.5 0 48-21.5 48-48V371.9c0-12.7 5.1-24.9 14.1-33.9l3.9-3.9c9-9 14.1-21.2 14.1-33.9V144c0-26.5-21.5-48-48-48H320c0-17.7-14.3-32-32-32s-32 14.3-32 32H224c0-17.7-14.3-32-32-32s-32 14.3-32 32H112V24zm0 136H272c8.8 0 16 7.2 16 16s-7.2 16-16 16H112c-8.8 0-16-7.2-16-16s7.2-16 16-16zm0 64H272c8.8 0 16 7.2 16 16s-7.2 16-16 16H112c-8.8 0-16-7.2-16-16s7.2-16 16-16zm0 64H272c8.8 0 16 7.2 16 16s-7.2 16-16 16H112c-8.8 0-16-7.2-16-16s7.2-16 16-16z"/></svg>