<!--
  - Copyright (c) 2023, Terwer . All rights reserved.
  - DO NOT ALTER OR REMOVE COPYRIGHT NOTICES OR THIS FILE HEADER.
  -
  - This code is free software; you can redistribute it and/or modify it
  - under the terms of the GNU General Public License version 2 only, as
  - published by the Free Software Foundation.  Terwer designates this
  - particular file as subject to the "Classpath" exception as provided
  - by Terwer in the LICENSE file that accompanied this code.
  -
  - This code is distributed in the hope that it will be useful, but WITHOUT
  - ANY WARRANTY; without even the implied warranty of MERCHANTABILITY or
  - FITNESS FOR A PARTICULAR PURPOSE.  See the GNU General Public License
  - version 2 for more details (a copy is included in the LICENSE file that
  - accompanied this code).
  -
  - You should have received a copy of the GNU General Public License version
  - 2 along with this work; if not, write to the Free Software Foundation,
  - Inc., 51 Franklin St, Fifth Floor, Boston, MA 02110-1301 USA.
  -
  - Please contact Terwer, Shenzhen, Guangdong, China, youweics@163.com
  - or visit www.terwer.space if you need additional information or have any
  - questions.
  -->

<svg xmlns="http://www.w3.org/2000/svg" viewBox="0 0 640 512"><!--! Font Awesome Free 6.3.0 by @fontawesome - https://fontawesome.com License - https://fontawesome.com/license/free (Icons: CC BY 4.0, Fonts: SIL OFL 1.1, Code: MIT License) Copyright 2023 Fonticons, Inc. --><path d="M0 488V171.3c0-26.2 15.9-49.7 40.2-59.4L308.1 4.8c7.6-3.1 16.1-3.1 23.8 0L599.8 111.9c24.3 9.7 40.2 33.3 40.2 59.4V488c0 13.3-10.7 24-24 24H568c-13.3 0-24-10.7-24-24V224c0-17.7-14.3-32-32-32H128c-17.7 0-32 14.3-32 32V488c0 13.3-10.7 24-24 24H24c-13.3 0-24-10.7-24-24zm488 24l-336 0c-13.3 0-24-10.7-24-24V432H512l0 56c0 13.3-10.7 24-24 24zM128 400V336H512v64H128zm0-96V224H512l0 80H128z"/></svg>