<!--
  - Copyright (c) 2023, Terwer . All rights reserved.
  - DO NOT ALTER OR REMOVE COPYRIGHT NOTICES OR THIS FILE HEADER.
  -
  - This code is free software; you can redistribute it and/or modify it
  - under the terms of the GNU General Public License version 2 only, as
  - published by the Free Software Foundation.  Terwer designates this
  - particular file as subject to the "Classpath" exception as provided
  - by Terwer in the LICENSE file that accompanied this code.
  -
  - This code is distributed in the hope that it will be useful, but WITHOUT
  - ANY WARRANTY; without even the implied warranty of MERCHANTABILITY or
  - FITNESS FOR A PARTICULAR PURPOSE.  See the GNU General Public License
  - version 2 for more details (a copy is included in the LICENSE file that
  - accompanied this code).
  -
  - You should have received a copy of the GNU General Public License version
  - 2 along with this work; if not, write to the Free Software Foundation,
  - Inc., 51 Franklin St, Fifth Floor, Boston, MA 02110-1301 USA.
  -
  - Please contact Terwer, Shenzhen, Guangdong, China, youweics@163.com
  - or visit www.terwer.space if you need additional information or have any
  - questions.
  -->

<svg xmlns="http://www.w3.org/2000/svg" viewBox="0 0 448 512"><!--! Font Awesome Free 6.3.0 by @fontawesome - https://fontawesome.com License - https://fontawesome.com/license/free (Icons: CC BY 4.0, Fonts: SIL OFL 1.1, Code: MIT License) Copyright 2023 Fonticons, Inc. --><path d="M320 48a48 48 0 1 1 96 0 48 48 0 1 1 -96 0zM204.5 121.3c-5.4-2.5-11.7-1.9-16.4 1.7l-40.9 30.7c-14.1 10.6-34.2 7.7-44.8-6.4s-7.7-34.2 6.4-44.8l40.9-30.7c23.7-17.8 55.3-21 82.1-8.4l90.4 42.5c29.1 13.7 36.8 51.6 15.2 75.5L299.1 224h97.4c30.3 0 53 27.7 47.1 57.4L415.4 422.3c-3.5 17.3-20.3 28.6-37.7 25.1s-28.6-20.3-25.1-37.7L377 288H306.7c8.6 19.6 13.3 41.2 13.3 64c0 88.4-71.6 160-160 160S0 440.4 0 352s71.6-160 160-160c11.1 0 22 1.1 32.4 3.3l54.2-54.2-42.1-19.8zM160 448a96 96 0 1 0 0-192 96 96 0 1 0 0 192z"/></svg>