<!--
  - Copyright (c) 2023, Terwer . All rights reserved.
  - DO NOT ALTER OR REMOVE COPYRIGHT NOTICES OR THIS FILE HEADER.
  -
  - This code is free software; you can redistribute it and/or modify it
  - under the terms of the GNU General Public License version 2 only, as
  - published by the Free Software Foundation.  Terwer designates this
  - particular file as subject to the "Classpath" exception as provided
  - by Terwer in the LICENSE file that accompanied this code.
  -
  - This code is distributed in the hope that it will be useful, but WITHOUT
  - ANY WARRANTY; without even the implied warranty of MERCHANTABILITY or
  - FITNESS FOR A PARTICULAR PURPOSE.  See the GNU General Public License
  - version 2 for more details (a copy is included in the LICENSE file that
  - accompanied this code).
  -
  - You should have received a copy of the GNU General Public License version
  - 2 along with this work; if not, write to the Free Software Foundation,
  - Inc., 51 Franklin St, Fifth Floor, Boston, MA 02110-1301 USA.
  -
  - Please contact Terwer, Shenzhen, Guangdong, China, youweics@163.com
  - or visit www.terwer.space if you need additional information or have any
  - questions.
  -->

<svg xmlns="http://www.w3.org/2000/svg" viewBox="0 0 640 512"><!--! Font Awesome Free 6.3.0 by @fontawesome - https://fontawesome.com License - https://fontawesome.com/license/free (Icons: CC BY 4.0, Fonts: SIL OFL 1.1, Code: MIT License) Copyright 2023 Fonticons, Inc. --><path d="M32 32C14.3 32 0 46.3 0 64S14.3 96 32 96H608c17.7 0 32-14.3 32-32s-14.3-32-32-32H32zm0 384c-17.7 0-32 14.3-32 32s14.3 32 32 32H608c17.7 0 32-14.3 32-32s-14.3-32-32-32H32zM7 167c-9.4 9.4-9.4 24.6 0 33.9l55 55L7 311c-9.4 9.4-9.4 24.6 0 33.9s24.6 9.4 33.9 0l55-55 55 55c9.4 9.4 24.6 9.4 33.9 0s9.4-24.6 0-33.9l-55-55 55-55c9.4-9.4 9.4-24.6 0-33.9s-24.6-9.4-33.9 0l-55 55L41 167c-9.4-9.4-24.6-9.4-33.9 0zM265 167c-9.4-9.4-24.6-9.4-33.9 0s-9.4 24.6 0 33.9l55 55-55 55c-9.4 9.4-9.4 24.6 0 33.9s24.6 9.4 33.9 0l55-55 55 55c9.4 9.4 24.6 9.4 33.9 0s9.4-24.6 0-33.9l-55-55 55-55c9.4-9.4 9.4-24.6 0-33.9s-24.6-9.4-33.9 0l-55 55-55-55zM455 167c-9.4 9.4-9.4 24.6 0 33.9l55 55-55 55c-9.4 9.4-9.4 24.6 0 33.9s24.6 9.4 33.9 0l55-55 55 55c9.4 9.4 24.6 9.4 33.9 0s9.4-24.6 0-33.9l-55-55 55-55c9.4-9.4 9.4-24.6 0-33.9s-24.6-9.4-33.9 0l-55 55-55-55c-9.4-9.4-24.6-9.4-33.9 0z"/></svg>