<svg id="cp_logo" version="1.1" xmlns="http://www.w3.org/2000/svg" xmlns:xlink="http://www.w3.org/1999/xlink" x="0px" y="0px" viewBox="0 0 100 98.1" style="enable-background:new 0 0 100 98.1;" xml:space="preserve" height="100" width="98.1"><path style="fill:rgb(0, 152, 209);" d="M69.09,0.09c-4.01-0.6-7.83,1.94-8.78,5.89l-3.14,13.11c-0.76,3.19-3.44,5.56-6.7,5.93l-18.6,2.13          C11.83,29.31-2.53,47.66,0.37,67.78c2.3,15.96,15.18,27.77,30.54,30.08c4.01,0.6,7.83-1.94,8.78-5.89l3.14-13.11 c0.76-3.19,3.44-5.56,6.69-5.93l18.6-2.13c20.04-2.17,34.41-20.52,31.5-40.65C97.32,14.21,84.45,2.39,69.09,0.09z M65.06,47.2  l-11.75,1.4c-1.98,0.21-3.62,1.65-4.08,3.59l-3.43,14.3c-1.01,4.22-4.5,7.39-8.8,8c-6.66,0.72-12.63-4.2-13.15-10.92                c-0.51-6.5,4.6-12.11,11.08-12.81l11.75-1.39c1.98-0.22,3.62-1.65,4.08-3.59l3.43-14.3c1.01-4.22,4.5-7.39,8.8-8          c6.66-0.72,12.63,4.19,13.15,10.92C76.66,40.89,71.55,46.5,65.06,47.2z"></path></svg>