<!--
  - Copyright (c) 2023, Terwer . All rights reserved.
  - DO NOT ALTER OR REMOVE COPYRIGHT NOTICES OR THIS FILE HEADER.
  -
  - This code is free software; you can redistribute it and/or modify it
  - under the terms of the GNU General Public License version 2 only, as
  - published by the Free Software Foundation.  Terwer designates this
  - particular file as subject to the "Classpath" exception as provided
  - by Terwer in the LICENSE file that accompanied this code.
  -
  - This code is distributed in the hope that it will be useful, but WITHOUT
  - ANY WARRANTY; without even the implied warranty of MERCHANTABILITY or
  - FITNESS FOR A PARTICULAR PURPOSE.  See the GNU General Public License
  - version 2 for more details (a copy is included in the LICENSE file that
  - accompanied this code).
  -
  - You should have received a copy of the GNU General Public License version
  - 2 along with this work; if not, write to the Free Software Foundation,
  - Inc., 51 Franklin St, Fifth Floor, Boston, MA 02110-1301 USA.
  -
  - Please contact Terwer, Shenzhen, Guangdong, China, youweics@163.com
  - or visit www.terwer.space if you need additional information or have any
  - questions.
  -->

<svg xmlns="http://www.w3.org/2000/svg" viewBox="0 0 512 512"><!--! Font Awesome Free 6.3.0 by @fontawesome - https://fontawesome.com License - https://fontawesome.com/license/free (Icons: CC BY 4.0, Fonts: SIL OFL 1.1, Code: MIT License) Copyright 2023 Fonticons, Inc. --><path d="M256 48a208 208 0 1 1 0 416 208 208 0 1 1 0-416zm0 464A256 256 0 1 0 256 0a256 256 0 1 0 0 512zM168 376c0 13.3 10.7 24 24 24H320c13.3 0 24-10.7 24-24s-10.7-24-24-24H192c-13.3 0-24 10.7-24 24zm-8-104c-26.5 0-48-21.5-48-48c0-14.3 6.3-27.2 16.2-36c-.2 1.3-.2 2.6-.2 4c0 17.7 14.3 32 32 32s32-14.3 32-32c0-1.4-.1-2.7-.2-4c10 8.8 16.2 21.7 16.2 36c0 26.5-21.5 48-48 48zm0 32a80 80 0 1 0 0-160 80 80 0 1 0 0 160zm192-32c-26.5 0-48-21.5-48-48c0-14.3 6.3-27.2 16.2-36c-.2 1.3-.2 2.6-.2 4c0 17.7 14.3 32 32 32s32-14.3 32-32c0-1.4-.1-2.7-.2-4c10 8.8 16.2 21.7 16.2 36c0 26.5-21.5 48-48 48zm0 32a80 80 0 1 0 0-160 80 80 0 1 0 0 160z"/></svg>