<!--
  - Copyright (c) 2023, Terwer . All rights reserved.
  - DO NOT ALTER OR REMOVE COPYRIGHT NOTICES OR THIS FILE HEADER.
  -
  - This code is free software; you can redistribute it and/or modify it
  - under the terms of the GNU General Public License version 2 only, as
  - published by the Free Software Foundation.  Terwer designates this
  - particular file as subject to the "Classpath" exception as provided
  - by Terwer in the LICENSE file that accompanied this code.
  -
  - This code is distributed in the hope that it will be useful, but WITHOUT
  - ANY WARRANTY; without even the implied warranty of MERCHANTABILITY or
  - FITNESS FOR A PARTICULAR PURPOSE.  See the GNU General Public License
  - version 2 for more details (a copy is included in the LICENSE file that
  - accompanied this code).
  -
  - You should have received a copy of the GNU General Public License version
  - 2 along with this work; if not, write to the Free Software Foundation,
  - Inc., 51 Franklin St, Fifth Floor, Boston, MA 02110-1301 USA.
  -
  - Please contact Terwer, Shenzhen, Guangdong, China, youweics@163.com
  - or visit www.terwer.space if you need additional information or have any
  - questions.
  -->

<svg xmlns="http://www.w3.org/2000/svg" viewBox="0 0 512 512"><!--! Font Awesome Free 6.3.0 by @fontawesome - https://fontawesome.com License - https://fontawesome.com/license/free (Icons: CC BY 4.0, Fonts: SIL OFL 1.1, Code: MIT License) Copyright 2023 Fonticons, Inc. --><path d="M80 96v16c0 17.7 14.3 32 32 32h60.8c16.6-28.7 47.6-48 83.2-48h62c-7.1-27.6-32.2-48-62-48H215.4C211.6 20.9 188.2 0 160 0s-51.6 20.9-55.4 48H64C28.7 48 0 76.7 0 112V384c0 35.3 28.7 64 64 64h96V400H64c-8.8 0-16-7.2-16-16V112c0-8.8 7.2-16 16-16H80zm64-40a16 16 0 1 1 32 0 16 16 0 1 1 -32 0zM256 464c-8.8 0-16-7.2-16-16V192c0-8.8 7.2-16 16-16H384v48c0 17.7 14.3 32 32 32h48V448c0 8.8-7.2 16-16 16H256zm192 48c35.3 0 64-28.7 64-64V227.9c0-12.7-5.1-24.9-14.1-33.9l-51.9-51.9c-9-9-21.2-14.1-33.9-14.1H256c-35.3 0-64 28.7-64 64V448c0 35.3 28.7 64 64 64H448z"/></svg>