<?xml version="1.0" encoding="utf-8"?>
<svg viewBox="0 0 340 250" color-interpolation-filters="sRGB" style="margin: auto;" xmlns="http://www.w3.org/2000/svg">
   <g data-v-2cb57da0="" fill="#0083ce" class="icon-text-wrapper icon-svg-group iconsvg" transform="matrix(1, 0, 0, 1, 49.396469, 94.824684)">
    <g class="iconsvg-imagesvg" transform="translate(0,0)">
      <g>
        <rect fill="#0083ce" fill-opacity="0" stroke-width="2" x="0" y="0" width="60" height="60.350637202144455" class="image-rect"/>
        <svg x="0" y="0" width="60" height="60.350637202144455" filtersec="colorsb6498455980" class="image-svg-svg primary" style="overflow: visible;">
          <svg xmlns="http://www.w3.org/2000/svg" viewBox="-9.5367431640625e-7 0.049999237060546875 59.86000061035156 60.209999084472656">
            <g>
              <g>
                <path d="M17.46 25.44a3.51 3.51 0 0 1-2-6.55 31.91 31.91 0 0 1-.46-3.73l-15 15 10 10a30.47 30.47 0 0 1 9.71.27A30.91 30.91 0 0 1 22 32.71a30.77 30.77 0 0 1-4.54-7.27z" fill="#0083ce"/>
                <path d="M19.49 41.87a28.93 28.93 0 0 0-8.14-.39l8.31 8.31a30.49 30.49 0 0 1-.17-7.92z" fill="#0b318f"/>
                <path d="M20.54 20.9a3.51 3.51 0 0 1-1.6 4.1 28.58 28.58 0 0 0 3.75 6.22A30.2 30.2 0 0 1 34 19.08a3.51 3.51 0 0 1 6.24-2.85 29.69 29.69 0 0 1 4.93-1.18l-15-15-13.72 13.64a27.38 27.38 0 0 0 .46 4.75 3.51 3.51 0 0 1 3.63 2.46zM23.08 34a28.87 28.87 0 0 0-1.9 6.69 31 31 0 0 1 5.92 2.11 3.52 3.52 0 0 1 5.82 3.63A30.41 30.41 0 0 1 38.37 52l8.4-8.38A30.53 30.53 0 0 1 23.08 34z" fill="#00a0e9"/>
                <path d="M46.13 16.4a29 29 0 0 0-5.67 1.21 3.5 3.5 0 0 1-6.22 2.86 28.79 28.79 0 0 0-10.89 12A28.94 28.94 0 0 0 48 42l11.86-11.88z" fill="#0b318f"/>
                <path d="M32.1 47.71a3.51 3.51 0 0 1-5.82-3.62 29 29 0 0 0-5.3-1.9 28.38 28.38 0 0 0 .62 9.52l8.53 8.55 7.15-7.15a28.12 28.12 0 0 0-5.18-5.4z" fill="#0083ce"/>
              </g>
            </g>
          </svg>
        </svg>
      </g>
    </g>
    <g transform="translate(67,0.2003192901611328)">
      <g data-gra="path-name" fill-rule="" class="tp-name iconsvg-namesvg" transform="translate(0,0)">
        <g transform="scale(1)">
          <g>
            <path d="M12.96-35.32L12.96-35.32Q15.25-33.39 13.28-30.96L13.28-30.96Q11.34-28.57 9.31-30.78L9.31-30.78Q9.09-30.87 6.25-32.4L6.25-32.4Q3.73-33.93 5.54-36.09L5.54-36.09Q7.38-38.25 9.95-36.9L9.95-36.9Q12.64-35.64 12.96-35.32ZM10.17-22.77L10.17-22.77Q12.6-21.15 10.62-18.68L10.62-18.68Q8.69-16.2 6.52-18.36L6.52-18.36Q6.3-18.59 3.51-20.07L3.51-20.07Q0.99-21.51 2.79-23.71L2.79-23.71Q4.63-25.92 7.25-24.61L7.25-24.61Q9.95-23.4 10.17-22.77ZM8.87-14.98L8.87-14.98 11.65-12.96Q14.04-11.25 13-8.55L13-8.55Q10.8-2.83 8.91 0.99L8.91 0.99Q7.69 3.65 4.77 1.8L4.77 1.8Q1.84 0 3.19-2.56L3.19-2.56Q5.67-6.84 8.87-14.98ZM36.67-2.29L36.67-2.29Q37.44-2.29 37.89-3.6L37.89-3.6 38.61-8.01Q36.41-6.03 33.75-4.18L33.75-4.18Q35.14-2.29 36.67-2.29ZM37.26-15.39L37.26-15.39 29.97-14.26Q30.64-11.29 31.14-9.76L31.14-9.76Q34.78-12.24 37.26-15.39ZM40.09-15.84L38.97-15.66 40.86-14.67Q43.47-13.37 41.67-10.89L41.67-10.89Q39.96-8.55 39.24-8.59L39.24-8.59Q41.58-6.48 41.4-6.48L41.4-6.48Q44.14-5.54 43.38-2.75L43.38-2.75Q43.38 0.36 41.67 2.34 39.96 4.32 36.31 4.32L36.31 4.32Q31.32 4.32 27.9-0.77L27.9-0.77Q23.09 1.67 19.84 2.61L19.84 2.61Q17.05 3.51 15.07 0.67L15.07 0.67Q13.14-2.16 15.97-2.88L15.97-2.88Q19.93-3.82 25.2-6.34L25.2-6.34 23.27-13.28 17.41-12.38Q14.54-11.97 14.04-14.98L14.04-14.98Q13.59-18.04 16.47-18.45L16.47-18.45 22.27-19.26 21.87-22.68 18-22.14Q15.12-21.78 14.67-24.79L14.67-24.79Q14.26-27.81 17.14-28.17L17.14-28.17 21.42-28.71Q21.15-33.48 21.15-38.38L21.15-38.38 28.04-38.38Q27.9-34.2 28.13-29.56L28.13-29.56 34.78-30.42Q32.8-32.31 31.09-33.21L31.09-33.21Q28.75-34.92 30.6-36.85L30.6-36.85Q32.49-38.79 34.92-37.17L34.92-37.17Q37.57-35.73 36.95-35.95L36.95-35.95Q39.28-34.16 37.3-31.99L37.3-31.99 35.95-30.55 40.27-31.09 40.73-28.08Q41.09-25.2 38.2-24.84L38.2-24.84 28.53-23.54 28.93-20.2 42.07-22.09 42.57-19.13Q43.02-16.25 40.09-15.84L40.09-15.84ZM58.45-34.88L58.45-34.88Q60.7-33.03 58.77-30.55L58.77-30.55Q56.88-28.08 54.77-30.11L54.77-30.11Q54.45-30.33 51.57-31.86L51.57-31.86Q49.05-33.3 50.85-35.5L50.85-35.5Q52.65-37.75 55.26-36.41L55.26-36.41Q58.05-35.1 58.45-34.88ZM55.22-22.27L55.22-22.27Q57.51-20.43 55.62-17.95L55.62-17.95Q53.73-15.52 51.84-17.77L51.84-17.77Q51.62-17.77 48.91-19.21L48.91-19.21Q46.4-20.65 48.15-22.86L48.15-22.86Q49.95-25.06 52.56-23.76L52.56-23.76Q54.9-22.77 55.22-22.27ZM54.36 0.81L54.36 0.81Q53.23 3.51 50.4 1.75L50.4 1.75Q47.56 0.04 48.83-2.56L48.83-2.56Q51.08-6.79 53.82-14.4L53.82-14.4 56.48-12.51Q58.86-10.84 57.91-8.1L57.91-8.1Q56.34-3.51 54.36 0.81ZM76.45-8.14L76.45-8.14 79.38-8.14 79.69-11.7 74.38-11.7 75.42-10.89Q77.49-8.87 76.45-8.14ZM70.88-11.7L68-11.7 67.63-9Q67.55-8.14 68.4-8.14L68.4-8.14 72.27-8.14 71.59-8.78Q69.39-10.75 70.88-11.7L70.88-11.7ZM71.95-20.7L69.12-20.7 68.76-17.59 72.67-17.77Q70.61-19.84 71.95-20.7L71.95-20.7ZM80.06-17.59L80.19-20.7 75.24-20.7 75.69-20.29Q77.76-18.18 76.91-17.59L76.91-17.59 80.06-17.59ZM89.06-17.59L89.06-14.63Q89.06-11.7 85.68-11.7L85.68-11.7 85.37-8.14 87.97-8.14 87.97-5.54Q87.97-2.61 84.69-2.61L84.69-2.61Q84.19 0.22 83.34 1.35L83.34 1.35Q81.99 3.28 79.42 3.73L79.42 3.73Q77.67 4.09 76.68 3.96L76.68 3.96Q73.75 3.92 72.94 1.26 72.13-1.4 75.06-1.3L75.06-1.3 76.41-1.21Q77.44-1.21 78.03-1.98L78.03-1.98Q78.12-2.07 78.39-2.61L78.39-2.61 63.36-2.61Q60.44-2.61 61.06-5.54L61.06-5.54Q61.06-5.67 61.97-11.7L61.97-11.7 60.98-11.7Q58.05-11.7 58.05-14.63L58.05-14.63 58.05-17.59 62.73-17.59 63.31-22.68Q62.64-21.78 59.85-23.58 57.06-25.38 58.86-27.68L58.86-27.68Q61.61-30.38 64.03-38.52L64.03-38.52 68.81-37.26Q70.38-36.9 69.84-35.37L69.84-35.37Q69.48-34.42 69.44-34.24L69.44-34.24 87.75-34.24 87.75-31.36Q87.75-28.44 84.82-28.44L84.82-28.44 66.78-28.44 65.97-26.95Q65.56-26.23 66.42-26.23L66.42-26.23 86.35-26.23 86.22-22.5 86-17.59 89.06-17.59ZM123.12-3.92L123.12-9.27 116.06-9.27 116.06-3.92Q116.06-3.06 116.91-3.06L116.91-3.06 122.27-3.06Q123.12-3.06 123.12-3.92L123.12-3.92ZM126.99 2.65L112.59 2.65Q109.66 2.65 109.66-0.27L109.66-0.27 109.66-15.07 129.91-15.07 129.91-0.27Q129.91 2.65 126.99 2.65L126.99 2.65ZM117.05-24.52L117.05-24.52Q116.5-23.85 117.36-23.85L117.36-23.85 122.89-23.85Q123.75-23.85 123.25-24.52L123.25-24.52Q121.81-26.19 120.15-29.16L120.15-29.16Q118.58-26.37 117.05-24.52ZM107.23-19.53L107.64-16.29Q108-13.41 105.16-12.73L105.16-12.73 102.96-12.15 102.96-2.38Q102.96-0.09 102.47 1.17L102.47 1.17Q102.02 2.43 100.75 3.1L100.75 3.1Q98.69 4.27 96.3 4.37L96.3 4.37Q93.38 4.27 92.56 1.48L92.56 1.48 91.62-1.62 95.67-1.62Q96.53-1.57 96.53-2.43L96.53-2.43 96.53-10.62 95.27-10.3Q92.43-9.63 91.62-12.78 90.81-15.93 93.69-16.43L93.69-16.43Q95.31-16.79 96.53-17.05L96.53-17.05 96.53-24.03 94.28-24.03Q91.35-24.03 91.35-26.95L91.35-26.95 91.35-30.11 96.53-30.11 96.53-38.48 102.96-38.48 102.96-30.11 107.5-30.11 107.5-26.95Q107.5-24.03 104.58-24.03L104.58-24.03 102.96-24.03 102.96-18.5 107.23-19.53ZM107.37-24.03L107.37-24.03Q110.84-26.77 113.4-30.6L113.4-30.6Q116.06-34.47 117.5-38.66L117.5-38.66 122-37.3Q123.66-36.85 122.98-35.19L122.98-35.19Q125.01-31.5 128.12-28.3L128.12-28.3Q131.22-25.15 132.21-24.66L132.21-24.66Q134.78-23.22 132.44-20.52L132.44-20.52Q130.14-17.82 127.62-19.75L127.62-19.75Q127.62-17.86 125.73-17.86L125.73-17.86 114.21-17.86Q112.45-17.86 112.45-19.62L112.45-19.62 111.96-19.21Q109.66-17.41 107.82-19.66L107.82-19.66 107.1-20.38Q105.08-22.36 107.37-24.03ZM154.03-17.91L154.03-28.48 160.92-28.48 160.92-17.82Q160.92-15.3 160.43-13L160.43-13Q159.97-10.75 158.63-8.23L158.63-8.23Q157.32-5.71 155.16-3.55L155.16-3.55Q153.04-1.44 149.44 0.63L149.44 0.63Q145.89 2.7 143.87 3.33L143.87 3.33Q141.12 4.27 139.37 1.89L139.37 1.89 139.05 1.48 138.69 1.08Q136.62-1.03 139.41-1.89L139.41-1.89Q141.12-2.29 144.41-3.92L144.41-3.92Q147.69-5.58 149.49-7.15L149.49-7.15Q151.29-8.78 152.37-10.75 153.45-12.73 153.72-14.31L153.72-14.31Q154.03-15.93 154.03-17.91L154.03-17.91ZM161.28-2.48L161.28-2.48Q158.58-3.65 160.34-5.94L160.34-5.94Q162.13-8.28 164.88-7.25L164.88-7.25Q166.05-6.79 170.46-4.77 174.87-2.75 174.82-2.75L174.82-2.75Q177.34-1.13 175.41 1.48L175.41 1.48Q173.47 4.14 171.05 2.34L171.05 2.34Q171.18 2.52 166.81 0.27L166.81 0.27Q162.5-1.98 161.28-2.48ZM141.66-11.34L141.66-36.45 173.47-36.45 173.47-11.61Q173.47-8.69 170.01-8.69 166.54-8.69 166.54-11.61L166.54-11.61 166.54-30.46 148.23-30.46 148.23-11.34Q148.23-8.41 144.94-8.41 141.66-8.41 141.66-11.34L141.66-11.34Z" transform="translate(-2.0399999618530273, 38.65999984741211)"/>
          </g>
        </g>
      </g>
      <g data-gra="path-slogan" fill-rule="" class="tp-slogan iconsvg-slogansvg" fill="#0083ce" transform="translate(34.06853103637695,49.029998779296875)">
        <g transform="scale(1, 1)">
          <g transform="scale(1)">
            <path d="M9.47-7.03L9.47-7.03L9.47-6.38Q9.47-5.25 9.56-4.55L9.56-4.55Q9.05-4.59 7.59-4.64L7.59-4.64L3.70-4.64Q2.67-4.59 1.88-4.55L1.88-4.55L1.88-5.44Q2.11-5.39 3.66-5.39L3.66-5.39L8.44-5.39L8.44-6.38L3.94-6.38Q2.67-6.38 2.20-6.33L2.20-6.33L2.20-7.17Q2.34-7.17 2.95-7.17L2.95-7.17Q3.70-7.13 3.94-7.13L3.94-7.13L8.44-7.13L8.44-8.20L3.80-8.20Q3.42-8.20 2.48-8.16L2.48-8.16Q2.02-8.16 1.92-8.16L1.92-8.16L1.92-9.05Q2.77-8.95 3.80-8.95L3.80-8.95L7.27-8.95Q8.25-8.95 9.14-9.05L9.14-9.05Q9.47-9.05 9.56-9.05L9.56-9.05Q9.56-8.91 9.52-8.34L9.52-8.34Q9.47-7.45 9.47-7.03ZM7.55-4.31L7.55-4.31Q8.48-4.27 8.72-4.08L8.72-4.08Q8.72-4.03 8.67-3.94L8.67-3.94Q8.53-3.66 8.53-3.33L8.53-3.33Q9-3.33 9.75-3.38L9.75-3.38Q11.06-3.38 11.34-3.42L11.34-3.42L11.34-2.48Q11.20-2.48 10.69-2.48L10.69-2.48Q9.98-2.53 9.75-2.53L9.75-2.53L8.53-2.53L8.53 0.05Q8.72 0.98 6.47 1.03L6.47 1.03Q6.42 0.47 6.05 0L6.05 0Q7.83 0.09 7.55-0.42L7.55-0.42L7.55-2.58L2.53-2.58Q0.98-2.58 0.66-2.48L0.66-2.48L0.66-3.42Q1.27-3.33 2.53-3.33L2.53-3.33L7.59-3.33Q7.59-3.84 7.55-4.31ZM2.95-1.78L3.80-2.25Q4.08-1.92 4.92-0.75L4.92-0.75L3.94-0.33Q3.80-0.70 2.95-1.78L2.95-1.78ZM18-9.66L18-9.66Q19.41-9.61 19.36-9.38L19.36-9.38Q19.36-9.33 19.31-9.23L19.31-9.23Q19.17-9 19.17-8.77L19.17-8.77Q19.17-6.75 19.27-6.05L19.27-6.05L21.33-6.38Q22.03-6.52 22.73-6.66L22.73-6.66Q22.78-6.70 22.83-6.70L22.83-6.70L23.02-5.63Q22.41-5.63 21.47-5.44L21.47-5.44L19.36-5.16Q19.41-4.45 19.88-2.67L19.88-2.67Q20.72-3.75 21.09-4.83L21.09-4.83Q22.31-4.31 22.27-4.13L22.27-4.13Q22.22-4.03 22.08-3.94L22.08-3.94Q21.84-3.84 21.80-3.75L21.80-3.75Q21.05-2.58 20.34-1.88L20.34-1.88Q21.09-0.56 21.98-0.14L21.98-0.14Q22.22 0 22.36-1.31L22.36-1.31Q22.92-0.84 23.34-0.61L23.34-0.61Q23.34-0.56 23.30-0.42L23.30-0.42Q22.97 1.27 22.22 1.03L22.22 1.03Q20.77 0.66 19.59-1.13L19.59-1.13Q18.19-0.05 16.92 0.66L16.92 0.66Q16.88 0.61 16.83 0.52L16.83 0.52Q16.50 0.19 15.94-0.09L15.94-0.09Q17.72-0.80 19.13-2.02L19.13-2.02Q18.56-3.33 18.42-5.02L18.42-5.02Q16.83-4.73 16.69-4.64L16.69-4.64L16.45-5.63Q16.55-5.63 16.78-5.67L16.78-5.67Q17.44-5.77 18.33-5.91L18.33-5.91Q18.28-6.98 18-9.66ZM20.06-8.30L21.05-8.86Q21.66-8.30 22.22-7.41L22.22-7.41L21.19-6.80Q20.77-7.55 20.06-8.30L20.06-8.30ZM14.39-9.23L14.39-9.23Q15.61-9.23 15.61-9.05L15.61-9.05Q15.61-8.95 15.52-8.77L15.52-8.77Q15.33-8.48 15.33-8.16L15.33-8.16L15.33-6.94Q15.98-6.94 16.78-6.98L16.78-6.98L16.78-6.05Q16.69-6.05 16.22-6.05L16.22-6.05Q15.52-6.09 15.33-6.09L15.33-6.09L15.33-3.98L16.73-4.55L16.78-3.61L15.33-3.09L15.33 0.09Q15.33 0.94 13.50 1.17L13.50 1.17Q13.41 1.17 13.36 1.17L13.36 1.17Q13.27 0.56 12.89-0.05L12.89-0.05Q14.20 0.14 14.44-0.38L14.44-0.38L14.44-2.77L12.94-2.16L12.80-3.14L14.44-3.70L14.44-6.09Q12.94-6 12.94-6L12.94-6L12.94-6.98Q12.94-6.98 14.44-6.89L14.44-6.89L14.44-8.44Q14.44-8.77 14.39-9.23ZM29.48-9.75L29.48-9.75Q30.70-9.75 30.70-9.56L30.70-9.56Q30.70-9.47 30.66-9.33L30.66-9.33Q30.47-9 30.47-8.63L30.47-8.63L30.47-7.59L32.16-7.59Q33.66-7.59 34.13-7.64L34.13-7.64L34.13-6.66Q33.28-6.75 32.16-6.75L32.16-6.75L30.47-6.75L30.47-5.02L32.95-5.02Q34.55-5.02 34.97-5.06L34.97-5.06L34.97-4.08Q34.03-4.17 32.95-4.17L32.95-4.17L31.17-4.17Q32.44-1.55 35.34-0.98L35.34-0.98Q34.59-0.42 34.41 0.14L34.41 0.14Q31.17-1.31 30.47-4.17L30.47-4.17L30.47-1.03Q30.47 0.61 30.52 1.08L30.52 1.08L29.48 1.08Q29.53 0.56 29.53-1.03L29.53-1.03L29.53-4.17Q28.64-1.69 25.64 0.38L25.64 0.38Q25.36-0.09 24.61-0.47L24.61-0.47Q27.42-1.59 28.69-4.17L28.69-4.17L27.05-4.17Q26.25-4.17 25.03-4.08L25.03-4.08L25.03-5.06Q25.08-5.06 25.17-5.06L25.17-5.06Q26.20-4.97 27.05-4.97L27.05-4.97L29.53-4.97L29.53-6.80L27.70-6.80Q26.77-6.80 25.83-6.70L25.83-6.70L25.83-7.73Q27.38-7.59 27.70-7.59L27.70-7.59L29.53-7.59L29.53-8.81Q29.53-9.33 29.48-9.75ZM38.48-9.42L38.48-9.42Q39.38-9.23 39.84-9.05L39.84-9.05Q39.84-9 39.75-8.86L39.75-8.86Q39.28-8.44 38.86-7.41L38.86-7.41L40.64-7.41Q41.44-7.41 42.09-7.55L42.09-7.55L42.09-6.56Q41.39-6.66 40.36-6.66L40.36-6.66Q40.36-6.23 40.31-5.53L40.31-5.53Q40.31-4.88 40.31-4.50L40.31-4.50L40.97-4.50Q41.63-4.45 42.28-4.59L42.28-4.59L42.28-3.66Q41.67-3.70 40.92-3.70L40.92-3.70L40.22-3.70L40.08-3Q41.16-2.16 42.56-0.70L42.56-0.70L41.63 0Q40.64-1.45 39.80-2.25L39.80-2.25Q39.23-0.66 37.59 0.89L37.59 0.89Q37.13 0.52 36.42 0.28L36.42 0.28Q38.86-1.08 39.33-3.70L39.33-3.70L38.34-3.70Q37.55-3.70 36.84-3.66L36.84-3.66L36.84-4.59Q37.59-4.45 38.34-4.50L38.34-4.50L39.42-4.50Q39.42-4.55 39.42-4.69L39.42-4.69Q39.52-5.77 39.47-6.66L39.47-6.66L38.53-6.66Q38.34-6.19 38.02-5.63L38.02-5.63Q37.83-5.30 37.78-5.11L37.78-5.11L36.75-5.44Q38.16-7.13 38.48-9.42ZM42.66-8.06L42.66-8.06Q42.70-8.06 42.80-8.06L42.80-8.06Q43.36-7.97 43.97-7.97L43.97-7.97L45.47-7.97Q46.50-7.97 46.64-8.06L46.64-8.06Q46.64-8.06 46.59-6.89L46.59-6.89L46.59-1.41Q46.59-0.38 46.64 0.33L46.64 0.33L45.61 0.33Q45.66 0.38 45.66-0.84L45.66-0.84L43.69-0.84Q43.69-0.05 43.73 0.47L43.73 0.47L42.70 0.47Q42.75 0.33 42.75-1.31L42.75-1.31L42.75-6.84Q42.75-7.45 42.66-8.06ZM45.66-7.17L43.69-7.17L43.69-1.64L45.66-1.64L45.66-7.17ZM55.41-9.75L55.41-9.75Q56.67-9.38 56.67-9.23L56.67-9.23Q56.67-9.19 56.58-9.14L56.58-9.14Q56.39-9.05 56.34-8.86L56.34-8.86Q55.92-8.16 55.69-7.41L55.69-7.41L57.42-7.41Q58.45-7.41 59.02-7.45L59.02-7.45Q58.64-1.31 58.55-0.23L58.55-0.23Q58.41 1.08 55.97 1.17L55.97 1.17Q55.83 0.47 55.41-0.05L55.41-0.05Q56.67 0.19 57.33-0.09L57.33-0.09Q57.66-0.05 57.80-4.27L57.80-4.27Q57.89-5.77 57.94-6.66L57.94-6.66L55.36-6.66Q54.89-5.77 54.23-4.59L54.23-4.59Q53.81-4.88 53.39-4.97L53.39-4.97L53.39-0.75Q53.39 0.42 53.44 0.75L53.44 0.75L52.36 0.75Q52.41 0.33 52.41-0.38L52.41-0.38L50.11-0.38Q50.11 0.33 50.16 0.84L50.16 0.84L49.08 0.84Q49.13 0.42 49.13-0.70L49.13-0.70L49.13-5.72Q49.13-5.91 49.08-6.61L49.08-6.61Q49.08-7.22 49.08-7.36L49.08-7.36Q49.78-7.31 50.11-7.31L50.11-7.31L50.44-7.31Q50.58-8.06 50.67-9.61L50.67-9.61Q51.98-9.47 51.89-9.28L51.89-9.28Q51.89-9.19 51.80-9.09L51.80-9.09Q51.70-9 51.66-8.86L51.66-8.86Q51.52-8.53 51.38-7.92L51.38-7.92Q51.28-7.55 51.23-7.31L51.23-7.31L52.03-7.31Q52.41-7.31 53.44-7.36L53.44-7.36Q53.39-7.03 53.39-5.86L53.39-5.86L53.39-5.20Q54.84-6.84 55.41-9.75ZM52.41-6.56L50.11-6.56L50.11-4.13L52.41-4.13L52.41-6.56ZM54.61-4.17L55.41-4.64Q55.69-4.27 56.39-2.91L56.39-2.91Q56.58-2.63 56.63-2.48L56.63-2.48L55.73-2.02Q55.59-2.58 54.61-4.17L54.61-4.17ZM52.41-3.42L50.11-3.42L50.11-1.13L52.41-1.13L52.41-3.42ZM66.98-9.66L66.98-9.66Q68.06-9.66 68.30-9.47L68.30-9.47Q68.30-9.42 68.25-9.28L68.25-9.28Q68.06-8.95 68.06-8.44L68.06-8.44L68.06-7.88L69.66-7.88Q70.17-7.88 70.92-7.92L70.92-7.92Q71.16-7.97 71.20-7.97L71.20-7.97L71.20-6.94Q71.16-6.94 71.02-6.94L71.02-6.94Q70.36-6.98 69.75-6.98L69.75-6.98L68.06-6.98L68.06-5.34Q68.48-5.30 69.75-5.39L69.75-5.39Q70.27-5.39 70.41-5.39L70.41-5.39Q69.47-2.48 68.30-1.17L68.30-1.17Q69.56-0.28 71.53-0.05L71.53-0.05Q71.11 0.23 70.83 0.98L70.83 0.98Q68.77 0.28 67.64-0.52L67.64-0.52Q66.14 0.52 64.69 1.13L64.69 1.13Q64.22 0.47 63.75 0.23L63.75 0.23Q64.92 0.05 66.94-1.13L66.94-1.13Q65.95-2.48 65.39-4.22L65.39-4.22L66-4.45Q65.53-4.45 65.06-4.36L65.06-4.36L65.06-5.44Q65.11-5.44 65.25-5.44L65.25-5.44Q65.91-5.34 66.52-5.34L66.52-5.34L67.08-5.34L67.08-6.98L66.14-6.98Q65.58-6.98 64.92-6.94L64.92-6.94Q64.73-6.94 64.69-6.94L64.69-6.94L64.69-7.97Q64.73-7.97 64.88-7.97L64.88-7.97Q65.67-7.88 66.14-7.88L66.14-7.88L67.08-7.88L67.08-8.67Q67.03-9.38 66.98-9.66ZM62.39-9.61L62.39-9.61Q63.56-9.52 63.61-9.38L63.61-9.38Q63.61-9.33 63.56-9.23L63.56-9.23Q63.38-8.95 63.38-8.53L63.38-8.53L63.38-7.03Q63.75-7.03 64.27-7.08L64.27-7.08Q64.45-7.08 64.50-7.08L64.50-7.08L64.50-6.05Q64.45-6.05 64.36-6.05L64.36-6.05Q63.84-6.14 63.38-6.14L63.38-6.14L63.38-4.36L64.73-4.83L64.78-3.89L63.38-3.42L63.38 0Q63.52 0.94 61.73 1.13L61.73 1.13Q61.64 0.56 61.27 0L61.27 0Q62.63 0.19 62.44-0.38L62.44-0.38L62.44-3.19L60.75-2.63L60.52-3.66L62.44-4.08L62.44-6.14L61.83-6.14Q61.36-6.14 60.80-6.05L60.80-6.05Q60.66-6.05 60.61-6.05L60.61-6.05L60.61-7.13Q60.66-7.13 60.80-7.13L60.80-7.13Q61.31-7.03 61.78-7.03L61.78-7.03L62.44-7.03L62.44-8.48Q62.44-8.86 62.39-9.42L62.39-9.42Q62.39-9.56 62.39-9.61ZM69.09-4.45L66.28-4.45Q66.75-2.67 67.59-1.78L67.59-1.78Q68.20-2.44 69.09-4.45L69.09-4.45ZM77.44-9.70L77.44-9.70Q78.47-9.66 78.84-9.42L78.84-9.42Q78.84-9.38 78.80-9.28L78.80-9.28Q78.52-8.77 78.52-7.92L78.52-7.92L78.52-6.94L81.28-6.94Q82.03-6.94 82.88-7.03L82.88-7.03Q83.06-7.03 83.11-7.03L83.11-7.03L83.11-5.91Q83.11-5.91 82.97-5.91L82.97-5.91Q82.13-6.05 81.38-6.05L81.38-6.05L79.31-6.05Q80.39-2.20 83.53-1.31L83.53-1.31Q82.97-0.94 82.45-0.19L82.45-0.19Q79.31-1.92 78.52-6.05L78.52-6.05L78.52-0.52Q78.52 0.19 78.61 0.89L78.61 0.89Q78.61 1.08 78.61 1.13L78.61 1.13L77.44 1.13Q77.44 1.03 77.48 0.80L77.48 0.80Q77.53 0.05 77.53-0.52L77.53-0.52L77.53-5.95Q77.20-3.23 73.59 0L73.59 0Q73.27-0.47 72.47-0.80L72.47-0.80Q75.52-2.53 76.78-6.05L76.78-6.05L74.95-6.05Q74.20-6.05 73.31-5.95L73.31-5.95Q73.13-5.91 73.08-5.91L73.08-5.91L73.08-7.03Q73.13-7.03 73.31-7.03L73.31-7.03Q74.20-6.94 74.95-6.94L74.95-6.94L77.53-6.94L77.53-8.20Q77.53-8.72 77.44-9.52L77.44-9.52Q77.44-9.66 77.44-9.70ZM79.59-8.58L80.58-9.14Q81.61-8.11 81.98-7.64L81.98-7.64L80.91-7.03Q80.25-8.02 79.59-8.58L79.59-8.58ZM92.91-9.61L92.91-9.61Q94.13-9.33 94.13-9.19L94.13-9.19Q94.13-9.14 94.08-9.09L94.08-9.09Q93.89-8.95 93.70-8.72L93.70-8.72Q93.56-8.53 93.05-7.64L93.05-7.64Q92.91-7.36 92.81-7.22L92.81-7.22L93.70-7.22Q94.64-7.22 95.06-7.27L95.06-7.27L95.06-6.42Q94.78-6.47 93.70-6.47L93.70-6.47L93.42-6.47L93.42-4.08L93.98-4.08Q94.97-4.08 95.30-4.13L95.30-4.13L95.30-3.23Q94.97-3.28 93.98-3.28L93.98-3.28L93.42-3.28L93.42-0.05Q93.42 0.52 93.52 0.98L93.52 0.98L92.44 0.98Q92.53 0.56 92.53 0L92.53 0L92.53-3.28L90.98-3.28Q90.89-0.47 88.55 1.08L88.55 1.08Q87.98 0.56 87.38 0.33L87.38 0.33Q89.91-0.47 90.09-3.28L90.09-3.28L89.72-3.28Q88.78-3.28 88.55-3.23L88.55-3.23L88.55-4.13Q88.83-4.08 89.72-4.08L89.72-4.08L90.14-4.08L90.14-6.47Q89.06-6.47 88.83-6.42L88.83-6.42L88.83-7.27Q89.11-7.22 90.19-7.22L90.19-7.22L91.92-7.22Q92.53-8.30 92.91-9.61ZM86.16-9.56L86.16-9.56Q87.23-9.56 87.56-9.42L87.56-9.42Q87.56-9.38 87.52-9.28L87.52-9.28Q87.33-9.14 87.28-8.91L87.28-8.91Q87.19-8.44 87.19-7.13L87.19-7.13Q88.08-7.13 88.41-7.17L88.41-7.17L88.41-6.33Q88.13-6.38 87.19-6.38L87.19-6.38L87.19-4.45Q87.33-4.55 87.75-4.78L87.75-4.78Q88.08-4.92 88.27-5.02L88.27-5.02Q88.17-4.41 88.31-3.98L88.31-3.98Q87.75-3.89 87.23-3.61L87.23-3.61L87.23-0.28Q87.05 0.70 85.27 0.84L85.27 0.84Q85.17 0.09 84.75-0.38L84.75-0.38Q85.64-0.09 86.16-0.38L86.16-0.38Q86.20-0.47 86.25-0.98L86.25-0.98Q86.25-1.31 86.25-3.28L86.25-3.28Q85.27-2.81 84.80-2.53L84.80-2.53Q84.66-3.38 84.52-3.70L84.52-3.70Q85.50-3.89 86.25-4.22L86.25-4.22L86.25-6.38L85.83-6.38Q84.84-6.38 84.61-6.33L84.61-6.33L84.61-7.17Q84.89-7.13 85.83-7.13L85.83-7.13L86.25-7.13Q86.25-8.63 86.25-8.95L86.25-8.95Q86.20-9.38 86.16-9.56ZM89.44-9L90.33-9.52Q91.03-8.63 91.45-7.88L91.45-7.88L90.47-7.45Q90.19-8.25 89.44-9L89.44-9ZM92.53-6.47L91.03-6.47L91.03-4.08L92.53-4.08L92.53-6.47ZM97.22-9.23L97.22-9.23Q97.92-9.14 100.17-9.14L100.17-9.14L103.36-9.14Q106.50-9.14 106.73-9.23L106.73-9.23Q106.64-8.34 106.64-6.38L106.64-6.38L106.64-1.88Q106.64 0.70 106.73 0.94L106.73 0.94L105.52 0.94Q105.66 0.80 105.66 0.28L105.66 0.28L98.30 0.28Q98.30 0.84 98.39 0.94L98.39 0.94L97.22 0.94Q97.31 0.80 97.31-1.88L97.31-1.88L97.31-6.52Q97.31-8.91 97.22-9.23ZM105.66-8.25L98.30-8.25L98.30-0.47L105.66-0.47L105.66-8.25ZM101.02-8.16L101.02-8.16Q102.23-7.88 102.19-7.78L102.19-7.78Q102.19-7.73 102.05-7.69L102.05-7.69Q101.77-7.50 101.58-7.22L101.58-7.22Q102.42-7.22 103.78-7.27L103.78-7.27Q104.53-7.27 104.81-7.27L104.81-7.27Q103.92-5.91 102.84-4.88L102.84-4.88Q103.97-4.22 105.52-4.13L105.52-4.13Q105.28-3.80 105-3.23L105-3.23Q104.95-3.09 104.91-3L104.91-3Q103.03-3.61 102.14-4.22L102.14-4.22Q101.06-3.61 99.09-3.05L99.09-3.05Q98.95-3.52 98.48-3.98L98.48-3.98Q100.08-4.13 101.48-4.83L101.48-4.83Q101.11-5.16 100.55-5.91L100.55-5.91Q100.36-5.72 99.94-5.25L99.94-5.25Q99.75-5.06 99.70-5.02L99.70-5.02Q99.38-5.25 98.77-5.48L98.77-5.48Q100.27-6.23 101.02-8.16ZM103.22-6.52L103.22-6.52L101.11-6.52L100.97-6.38Q101.67-5.58 102.19-5.30L102.19-5.30Q102.84-5.91 103.22-6.52ZM100.88-3.05L101.30-3.66Q102.38-3.47 103.69-2.95L103.69-2.95L103.13-2.16Q102.38-2.63 100.88-3.05L100.88-3.05ZM99.98-1.78L99.98-1.78L100.45-2.53Q101.95-2.16 103.83-1.41L103.83-1.41L103.22-0.56Q102-1.17 99.98-1.78Z" transform="translate(-0.65625, 9.75)"/>
          </g>
        </g>
      </g>
    </g>
  </g>
</svg>