<?xml version="1.0" encoding="utf-8"?>
<svg viewBox="49.396 94.439 241.207 61.122" xmlns="http://www.w3.org/2000/svg">
  <g data-v-2cb57da0="" fill="#0083ce" class="icon-text-wrapper icon-svg-group iconsvg" transform="matrix(1, 0, 0, 1, 49.396469, 94.439003)">
    <g class="iconsvg-imagesvg" transform="translate(0,0.38568115234375)">
      <g>
        <rect fill="#0083ce" fill-opacity="0" stroke-width="2" x="0" y="0" width="60" height="60.350637202144455" class="image-rect"/>
        <svg x="0" y="0" width="60" height="60.350637202144455" filtersec="colorsb3980203915" class="image-svg-svg primary" style="overflow: visible;">
          <svg xmlns="http://www.w3.org/2000/svg" viewBox="-9.5367431640625e-7 0.049999237060546875 59.86000061035156 60.209999084472656">
            <g>
              <g>
                <path d="M17.46 25.44a3.51 3.51 0 0 1-2-6.55 31.91 31.91 0 0 1-.46-3.73l-15 15 10 10a30.47 30.47 0 0 1 9.71.27A30.91 30.91 0 0 1 22 32.71a30.77 30.77 0 0 1-4.54-7.27z" fill="#0083ce"/>
                <path d="M19.49 41.87a28.93 28.93 0 0 0-8.14-.39l8.31 8.31a30.49 30.49 0 0 1-.17-7.92z" fill="#0b318f"/>
                <path d="M20.54 20.9a3.51 3.51 0 0 1-1.6 4.1 28.58 28.58 0 0 0 3.75 6.22A30.2 30.2 0 0 1 34 19.08a3.51 3.51 0 0 1 6.24-2.85 29.69 29.69 0 0 1 4.93-1.18l-15-15-13.72 13.64a27.38 27.38 0 0 0 .46 4.75 3.51 3.51 0 0 1 3.63 2.46zM23.08 34a28.87 28.87 0 0 0-1.9 6.69 31 31 0 0 1 5.92 2.11 3.52 3.52 0 0 1 5.82 3.63A30.41 30.41 0 0 1 38.37 52l8.4-8.38A30.53 30.53 0 0 1 23.08 34z" fill="#00a0e9"/>
                <path d="M46.13 16.4a29 29 0 0 0-5.67 1.21 3.5 3.5 0 0 1-6.22 2.86 28.79 28.79 0 0 0-10.89 12A28.94 28.94 0 0 0 48 42l11.86-11.88z" fill="#0b318f"/>
                <path d="M32.1 47.71a3.51 3.51 0 0 1-5.82-3.62 29 29 0 0 0-5.3-1.9 28.38 28.38 0 0 0 .62 9.52l8.53 8.55 7.15-7.15a28.12 28.12 0 0 0-5.18-5.4z" fill="#0083ce"/>
              </g>
            </g>
          </svg>
        </svg>
      </g>
    </g>
    <g transform="translate(67,0)">
      <g data-gra="path-name" fill-rule="" class="tp-name iconsvg-namesvg" transform="translate(0,0)">
        <g transform="scale(1)">
          <g>
            <path d="M12.96-35.32L12.96-35.32Q15.25-33.39 13.28-30.96L13.28-30.96Q11.34-28.57 9.31-30.78L9.31-30.78Q9.09-30.87 6.25-32.4L6.25-32.4Q3.73-33.93 5.54-36.09L5.54-36.09Q7.38-38.25 9.95-36.9L9.95-36.9Q12.64-35.64 12.96-35.32ZM10.17-22.77L10.17-22.77Q12.6-21.15 10.62-18.68L10.62-18.68Q8.69-16.2 6.52-18.36L6.52-18.36Q6.3-18.59 3.51-20.07L3.51-20.07Q0.99-21.51 2.79-23.71L2.79-23.71Q4.63-25.92 7.25-24.61L7.25-24.61Q9.95-23.4 10.17-22.77ZM8.87-14.98L8.87-14.98 11.65-12.96Q14.04-11.25 13-8.55L13-8.55Q10.8-2.83 8.91 0.99L8.91 0.99Q7.69 3.65 4.77 1.8L4.77 1.8Q1.84 0 3.19-2.56L3.19-2.56Q5.67-6.84 8.87-14.98ZM36.67-2.29L36.67-2.29Q37.44-2.29 37.89-3.6L37.89-3.6 38.61-8.01Q36.41-6.03 33.75-4.18L33.75-4.18Q35.14-2.29 36.67-2.29ZM37.26-15.39L37.26-15.39 29.97-14.26Q30.64-11.29 31.14-9.76L31.14-9.76Q34.78-12.24 37.26-15.39ZM40.09-15.84L38.97-15.66 40.86-14.67Q43.47-13.37 41.67-10.89L41.67-10.89Q39.96-8.55 39.24-8.59L39.24-8.59Q41.58-6.48 41.4-6.48L41.4-6.48Q44.14-5.54 43.38-2.75L43.38-2.75Q43.38 0.36 41.67 2.34 39.96 4.32 36.31 4.32L36.31 4.32Q31.32 4.32 27.9-0.77L27.9-0.77Q23.09 1.67 19.84 2.61L19.84 2.61Q17.05 3.51 15.07 0.67L15.07 0.67Q13.14-2.16 15.97-2.88L15.97-2.88Q19.93-3.82 25.2-6.34L25.2-6.34 23.27-13.28 17.41-12.38Q14.54-11.97 14.04-14.98L14.04-14.98Q13.59-18.04 16.47-18.45L16.47-18.45 22.27-19.26 21.87-22.68 18-22.14Q15.12-21.78 14.67-24.79L14.67-24.79Q14.26-27.81 17.14-28.17L17.14-28.17 21.42-28.71Q21.15-33.48 21.15-38.38L21.15-38.38 28.04-38.38Q27.9-34.2 28.13-29.56L28.13-29.56 34.78-30.42Q32.8-32.31 31.09-33.21L31.09-33.21Q28.75-34.92 30.6-36.85L30.6-36.85Q32.49-38.79 34.92-37.17L34.92-37.17Q37.57-35.73 36.95-35.95L36.95-35.95Q39.28-34.16 37.3-31.99L37.3-31.99 35.95-30.55 40.27-31.09 40.73-28.08Q41.09-25.2 38.2-24.84L38.2-24.84 28.53-23.54 28.93-20.2 42.07-22.09 42.57-19.13Q43.02-16.25 40.09-15.84L40.09-15.84ZM58.45-34.88L58.45-34.88Q60.7-33.03 58.77-30.55L58.77-30.55Q56.88-28.08 54.77-30.11L54.77-30.11Q54.45-30.33 51.57-31.86L51.57-31.86Q49.05-33.3 50.85-35.5L50.85-35.5Q52.65-37.75 55.26-36.41L55.26-36.41Q58.05-35.1 58.45-34.88ZM55.22-22.27L55.22-22.27Q57.51-20.43 55.62-17.95L55.62-17.95Q53.73-15.52 51.84-17.77L51.84-17.77Q51.62-17.77 48.91-19.21L48.91-19.21Q46.4-20.65 48.15-22.86L48.15-22.86Q49.95-25.06 52.56-23.76L52.56-23.76Q54.9-22.77 55.22-22.27ZM54.36 0.81L54.36 0.81Q53.23 3.51 50.4 1.75L50.4 1.75Q47.56 0.04 48.83-2.56L48.83-2.56Q51.08-6.79 53.82-14.4L53.82-14.4 56.48-12.51Q58.86-10.84 57.91-8.1L57.91-8.1Q56.34-3.51 54.36 0.81ZM76.45-8.14L76.45-8.14 79.38-8.14 79.69-11.7 74.38-11.7 75.42-10.89Q77.49-8.87 76.45-8.14ZM70.88-11.7L68-11.7 67.63-9Q67.55-8.14 68.4-8.14L68.4-8.14 72.27-8.14 71.59-8.78Q69.39-10.75 70.88-11.7L70.88-11.7ZM71.95-20.7L69.12-20.7 68.76-17.59 72.67-17.77Q70.61-19.84 71.95-20.7L71.95-20.7ZM80.06-17.59L80.19-20.7 75.24-20.7 75.69-20.29Q77.76-18.18 76.91-17.59L76.91-17.59 80.06-17.59ZM89.06-17.59L89.06-14.63Q89.06-11.7 85.68-11.7L85.68-11.7 85.37-8.14 87.97-8.14 87.97-5.54Q87.97-2.61 84.69-2.61L84.69-2.61Q84.19 0.22 83.34 1.35L83.34 1.35Q81.99 3.28 79.42 3.73L79.42 3.73Q77.67 4.09 76.68 3.96L76.68 3.96Q73.75 3.92 72.94 1.26 72.13-1.4 75.06-1.3L75.06-1.3 76.41-1.21Q77.44-1.21 78.03-1.98L78.03-1.98Q78.12-2.07 78.39-2.61L78.39-2.61 63.36-2.61Q60.44-2.61 61.06-5.54L61.06-5.54Q61.06-5.67 61.97-11.7L61.97-11.7 60.98-11.7Q58.05-11.7 58.05-14.63L58.05-14.63 58.05-17.59 62.73-17.59 63.31-22.68Q62.64-21.78 59.85-23.58 57.06-25.38 58.86-27.68L58.86-27.68Q61.61-30.38 64.03-38.52L64.03-38.52 68.81-37.26Q70.38-36.9 69.84-35.37L69.84-35.37Q69.48-34.42 69.44-34.24L69.44-34.24 87.75-34.24 87.75-31.36Q87.75-28.44 84.82-28.44L84.82-28.44 66.78-28.44 65.97-26.95Q65.56-26.23 66.42-26.23L66.42-26.23 86.35-26.23 86.22-22.5 86-17.59 89.06-17.59ZM123.12-3.92L123.12-9.27 116.06-9.27 116.06-3.92Q116.06-3.06 116.91-3.06L116.91-3.06 122.27-3.06Q123.12-3.06 123.12-3.92L123.12-3.92ZM126.99 2.65L112.59 2.65Q109.66 2.65 109.66-0.27L109.66-0.27 109.66-15.07 129.91-15.07 129.91-0.27Q129.91 2.65 126.99 2.65L126.99 2.65ZM117.05-24.52L117.05-24.52Q116.5-23.85 117.36-23.85L117.36-23.85 122.89-23.85Q123.75-23.85 123.25-24.52L123.25-24.52Q121.81-26.19 120.15-29.16L120.15-29.16Q118.58-26.37 117.05-24.52ZM107.23-19.53L107.64-16.29Q108-13.41 105.16-12.73L105.16-12.73 102.96-12.15 102.96-2.38Q102.96-0.09 102.47 1.17L102.47 1.17Q102.02 2.43 100.75 3.1L100.75 3.1Q98.69 4.27 96.3 4.37L96.3 4.37Q93.38 4.27 92.56 1.48L92.56 1.48 91.62-1.62 95.67-1.62Q96.53-1.57 96.53-2.43L96.53-2.43 96.53-10.62 95.27-10.3Q92.43-9.63 91.62-12.78 90.81-15.93 93.69-16.43L93.69-16.43Q95.31-16.79 96.53-17.05L96.53-17.05 96.53-24.03 94.28-24.03Q91.35-24.03 91.35-26.95L91.35-26.95 91.35-30.11 96.53-30.11 96.53-38.48 102.96-38.48 102.96-30.11 107.5-30.11 107.5-26.95Q107.5-24.03 104.58-24.03L104.58-24.03 102.96-24.03 102.96-18.5 107.23-19.53ZM107.37-24.03L107.37-24.03Q110.84-26.77 113.4-30.6L113.4-30.6Q116.06-34.47 117.5-38.66L117.5-38.66 122-37.3Q123.66-36.85 122.98-35.19L122.98-35.19Q125.01-31.5 128.12-28.3L128.12-28.3Q131.22-25.15 132.21-24.66L132.21-24.66Q134.78-23.22 132.44-20.52L132.44-20.52Q130.14-17.82 127.62-19.75L127.62-19.75Q127.62-17.86 125.73-17.86L125.73-17.86 114.21-17.86Q112.45-17.86 112.45-19.62L112.45-19.62 111.96-19.21Q109.66-17.41 107.82-19.66L107.82-19.66 107.1-20.38Q105.08-22.36 107.37-24.03ZM154.03-17.91L154.03-28.48 160.92-28.48 160.92-17.82Q160.92-15.3 160.43-13L160.43-13Q159.97-10.75 158.63-8.23L158.63-8.23Q157.32-5.71 155.16-3.55L155.16-3.55Q153.04-1.44 149.44 0.63L149.44 0.63Q145.89 2.7 143.87 3.33L143.87 3.33Q141.12 4.27 139.37 1.89L139.37 1.89 139.05 1.48 138.69 1.08Q136.62-1.03 139.41-1.89L139.41-1.89Q141.12-2.29 144.41-3.92L144.41-3.92Q147.69-5.58 149.49-7.15L149.49-7.15Q151.29-8.78 152.37-10.75 153.45-12.73 153.72-14.31L153.72-14.31Q154.03-15.93 154.03-17.91L154.03-17.91ZM161.28-2.48L161.28-2.48Q158.58-3.65 160.34-5.94L160.34-5.94Q162.13-8.28 164.88-7.25L164.88-7.25Q166.05-6.79 170.46-4.77 174.87-2.75 174.82-2.75L174.82-2.75Q177.34-1.13 175.41 1.48L175.41 1.48Q173.47 4.14 171.05 2.34L171.05 2.34Q171.18 2.52 166.81 0.27L166.81 0.27Q162.5-1.98 161.28-2.48ZM141.66-11.34L141.66-36.45 173.47-36.45 173.47-11.61Q173.47-8.69 170.01-8.69 166.54-8.69 166.54-11.61L166.54-11.61 166.54-30.46 148.23-30.46 148.23-11.34Q148.23-8.41 144.94-8.41 141.66-8.41 141.66-11.34L141.66-11.34Z" transform="translate(-2.0399999618530273, 38.65999984741211)"/>
          </g>
        </g>
      </g>
      <g data-gra="path-slogan" fill-rule="" class="tp-slogan iconsvg-slogansvg" fill="#0083ce" transform="translate(23.003074645996094,49.029998779296875)">
        <g transform="scale(1, 1)">
          <g transform="scale(1)">
            <path d="M2.68-9.41L2.68-5.92Q2.88-6.25 3.29-6.37L3.29-6.37Q3.77-6.52 4.97-6.52L4.97-6.52Q6.83-6.52 6.83-4.79L6.83-4.79L6.83 0L4.90 0L4.90-3.56Q4.90-4.10 4.66-4.33L4.66-4.33Q4.42-4.55 3.85-4.55L3.85-4.55Q3.20-4.55 2.93-4.31L2.93-4.31Q2.68-4.07 2.68-3.52L2.68-3.52L2.68 0L0.72 0L0.72-8.12Q0.72-9.20 0.58-9.66L0.58-9.66Q2.04-9.28 2.68-9.41L2.68-9.41ZM11.05-4.87L11.05-2.20Q11.05-1.73 11.36-1.63L11.36-1.63Q11.72-1.51 12.68-1.78L12.68-1.78L12.48-0.08Q10.72 0.20 9.92-0.32L9.92-0.32Q9.18-0.83 9.18-2.12L9.18-2.12L9.18-4.87Q8.33-4.87 7.92-4.86L7.92-4.86L8.05-5.86L7.91-6.42L9.18-6.42L9.18-7.74Q9.18-8.40 9.05-8.80L9.05-8.80Q10.48-8.45 11.05-8.56L11.05-8.56L11.05-6.42L12.55-6.42L12.36-4.86Q11.94-4.87 11.05-4.87L11.05-4.87ZM16.50-4.87L16.50-2.20Q16.50-1.73 16.81-1.63L16.81-1.63Q17.17-1.51 18.13-1.78L18.13-1.78L17.93-0.08Q16.16 0.20 15.37-0.32L15.37-0.32Q14.63-0.83 14.63-2.12L14.63-2.12L14.63-4.87Q13.78-4.87 13.37-4.86L13.37-4.86L13.50-5.86L13.36-6.42L14.63-6.42L14.63-7.74Q14.63-8.40 14.50-8.80L14.50-8.80Q15.92-8.45 16.50-8.56L16.50-8.56L16.50-6.42L18-6.42L17.81-4.86Q17.39-4.87 16.50-4.87L16.50-4.87ZM22.31-1.46Q23.09-1.46 23.41-1.84L23.41-1.84Q23.75-2.21 23.75-3.13L23.75-3.13Q23.75-4.19 23.44-4.57L23.44-4.57Q23.14-4.94 22.31-4.94L22.31-4.94Q21.35-4.94 21-4.34L21-4.34L21-2.10Q21.31-1.46 22.31-1.46L22.31-1.46ZM20.89-6.43L20.94-6.13Q21.62-6.55 22.76-6.55L22.76-6.55Q24.23-6.55 24.88-5.81L24.88-5.81Q25.56-5.02 25.56-3.13L25.56-3.13Q25.56 0.14 22.76 0.14L22.76 0.14Q21.64 0.14 21-0.23L21-0.23L21 2.42L19.22 2.42L19.22-5.40Q19.22-6.11 19.09-6.55L19.09-6.55Q20.33-6.32 20.89-6.43L20.89-6.43ZM32.06-4.50L30.40-4.26Q30.38-4.75 30.16-4.92L30.16-4.92Q29.94-5.08 29.32-5.08L29.32-5.08Q28.36-5.08 28.36-4.64L28.36-4.64Q28.36-4.36 28.62-4.24L28.62-4.24Q28.94-4.08 30.02-3.92L30.02-3.92Q31.21-3.74 31.73-3.23L31.73-3.23Q32.22-2.75 32.22-1.84L32.22-1.84Q32.22-0.80 31.63-0.37L31.63-0.37Q31.01 0.10 29.50 0.10L29.50 0.10Q27.84 0.10 27.20-0.38L27.20-0.38Q26.59-0.83 26.48-2.06L26.48-2.06L28.22-2.26Q28.28-1.70 28.52-1.54L28.52-1.54Q28.78-1.36 29.51-1.36L29.51-1.36Q30.46-1.36 30.46-1.84L30.46-1.84Q30.46-2.09 30.25-2.21L30.25-2.21Q30.04-2.33 29.44-2.41L29.44-2.41Q27.74-2.64 27.12-3.18L27.12-3.18Q26.58-3.65 26.58-4.64L26.58-4.64Q26.58-6.53 29.34-6.53L29.34-6.53Q30.85-6.53 31.40-6.13L31.40-6.13Q31.96-5.71 32.06-4.50L32.06-4.50ZM34.79-2.60Q35.32-2.60 35.70-2.23L35.70-2.23Q36.07-1.85 36.07-1.32L36.07-1.32Q36.07-0.77 35.70-0.38L35.70-0.38Q35.32 0 34.79 0L34.79 0Q34.24 0 33.85-0.38L33.85-0.38Q33.47-0.77 33.47-1.32L33.47-1.32Q33.47-1.85 33.85-2.23L33.85-2.23Q34.24-2.60 34.79-2.60L34.79-2.60ZM34.79-7.52Q35.32-7.52 35.70-7.15L35.70-7.15Q36.07-6.77 36.07-6.24L36.07-6.24Q36.07-5.69 35.70-5.30L35.70-5.30Q35.32-4.92 34.79-4.92L34.79-4.92Q34.24-4.92 33.85-5.30L33.85-5.30Q33.47-5.69 33.47-6.24L33.47-6.24Q33.47-6.77 33.85-7.15L33.85-7.15Q34.24-7.52 34.79-7.52L34.79-7.52ZM38.92 0.02L36.86 0.02L40.82-9.67L42.84-9.67L38.92 0.02ZM44.96 0.02L42.91 0.02L46.87-9.67L48.89-9.67L44.96 0.02ZM52.38-4.87L52.38-2.20Q52.38-1.73 52.69-1.63L52.69-1.63Q53.05-1.51 54.01-1.78L54.01-1.78L53.81-0.08Q52.04 0.20 51.25-0.32L51.25-0.32Q50.51-0.83 50.51-2.12L50.51-2.12L50.51-4.87Q49.66-4.87 49.25-4.86L49.25-4.86L49.38-5.86L49.24-6.42L50.51-6.42L50.51-7.74Q50.51-8.40 50.38-8.80L50.38-8.80Q51.80-8.45 52.38-8.56L52.38-8.56L52.38-6.42L53.88-6.42L53.69-4.86Q53.27-4.87 52.38-4.87L52.38-4.87ZM56.76-3.98L59.41-3.98Q59.27-5.02 58.10-5.02L58.10-5.02Q56.86-5.02 56.76-3.98L56.76-3.98ZM60.91-2.69L56.68-2.69Q56.71-2.02 57.06-1.74L57.06-1.74Q57.41-1.46 58.19-1.46L58.19-1.46Q58.87-1.46 59.20-1.66L59.20-1.66Q59.53-1.86 59.66-2.38L59.66-2.38L61.26-2.10Q60.95-0.88 60.20-0.38L60.20-0.38Q59.51 0.08 58.14 0.08L58.14 0.08Q56.53 0.08 55.67-0.79L55.67-0.79Q54.83-1.64 54.83-3.19L54.83-3.19Q54.83-6.54 58.13-6.54L58.13-6.54Q59.74-6.54 60.50-5.75L60.50-5.75Q61.31-4.93 61.32-3.14L61.32-3.14Q61.33-2.69 60.91-2.69L60.91-2.69ZM65.41-6.47L66.58-6.47L66.38-4.61Q64.26-4.98 64.26-3.47L64.26-3.47L64.26-0.01L62.52-0.01L62.52-5.71Q62.52-6.26 62.40-6.55L62.40-6.55Q63.56-6.31 64.16-6.43L64.16-6.43L64.16-5.89Q64.36-6.47 65.41-6.47L65.41-6.47ZM71.59-3.24L70.60 0.01L69.48 0.01Q69.11 0.01 68.95-0.10L68.95-0.10Q68.81-0.19 68.71-0.53L68.71-0.53Q67.94-2.99 66.90-6.37L66.90-6.37L68.81-6.37L69.80-2.69L70.78-6.02L71.90-6.02Q72.23-6.02 72.35-5.96L72.35-5.96Q72.47-5.89 72.54-5.65L72.54-5.65Q72.92-4.38 73.45-2.68L73.45-2.68L74.44-6.37L76.31-6.37L74.34 0.01L73.16 0.01Q72.61 0.01 72.44-0.55L72.44-0.55L71.59-3.24ZM78.79-3.98L81.44-3.98Q81.30-5.02 80.14-5.02L80.14-5.02Q78.89-5.02 78.79-3.98L78.79-3.98ZM82.94-2.69L78.71-2.69Q78.74-2.02 79.09-1.74L79.09-1.74Q79.44-1.46 80.22-1.46L80.22-1.46Q80.90-1.46 81.23-1.66L81.23-1.66Q81.56-1.86 81.70-2.38L81.70-2.38L83.29-2.10Q82.98-0.88 82.24-0.38L82.24-0.38Q81.54 0.08 80.17 0.08L80.17 0.08Q78.56 0.08 77.70-0.79L77.70-0.79Q76.86-1.64 76.86-3.19L76.86-3.19Q76.86-6.54 80.16-6.54L80.16-6.54Q81.77-6.54 82.54-5.75L82.54-5.75Q83.34-4.93 83.35-3.14L83.35-3.14Q83.36-2.69 82.94-2.69L82.94-2.69ZM87.44-6.47L88.61-6.47L88.42-4.61Q86.29-4.98 86.29-3.47L86.29-3.47L86.29-0.01L84.55-0.01L84.55-5.71Q84.55-6.26 84.43-6.55L84.43-6.55Q85.60-6.31 86.20-6.43L86.20-6.43L86.20-5.89Q86.39-6.47 87.44-6.47L87.44-6.47ZM90.95-2.72Q91.49-2.72 91.87-2.34L91.87-2.34Q92.26-1.94 92.26-1.42L92.26-1.42Q92.26-0.85 91.87-0.46L91.87-0.46Q91.49-0.07 90.95-0.07L90.95-0.07Q90.41-0.07 90.02-0.46L90.02-0.46Q89.64-0.85 89.64-1.42L89.64-1.42Q89.64-1.94 90.02-2.34L90.02-2.34Q90.41-2.72 90.95-2.72L90.95-2.72ZM99.25-4.50L97.58-4.26Q97.57-4.75 97.34-4.92L97.34-4.92Q97.13-5.08 96.50-5.08L96.50-5.08Q95.54-5.08 95.54-4.64L95.54-4.64Q95.54-4.36 95.81-4.24L95.81-4.24Q96.13-4.08 97.21-3.92L97.21-3.92Q98.40-3.74 98.92-3.23L98.92-3.23Q99.41-2.75 99.41-1.84L99.41-1.84Q99.41-0.80 98.82-0.37L98.82-0.37Q98.20 0.10 96.68 0.10L96.68 0.10Q95.03 0.10 94.39-0.38L94.39-0.38Q93.78-0.83 93.67-2.06L93.67-2.06L95.41-2.26Q95.47-1.70 95.71-1.54L95.71-1.54Q95.96-1.36 96.70-1.36L96.70-1.36Q97.64-1.36 97.64-1.84L97.64-1.84Q97.64-2.09 97.44-2.21L97.44-2.21Q97.22-2.33 96.62-2.41L96.62-2.41Q94.93-2.64 94.31-3.18L94.31-3.18Q93.77-3.65 93.77-4.64L93.77-4.64Q93.77-6.53 96.53-6.53L96.53-6.53Q98.04-6.53 98.59-6.13L98.59-6.13Q99.14-5.71 99.25-4.50L99.25-4.50ZM103.64-1.46Q104.42-1.46 104.75-1.84L104.75-1.84Q105.08-2.21 105.08-3.13L105.08-3.13Q105.08-4.19 104.77-4.57L104.77-4.57Q104.47-4.94 103.64-4.94L103.64-4.94Q102.68-4.94 102.34-4.34L102.34-4.34L102.34-2.10Q102.65-1.46 103.64-1.46L103.64-1.46ZM102.23-6.43L102.28-6.13Q102.96-6.55 104.10-6.55L104.10-6.55Q105.56-6.55 106.21-5.81L106.21-5.81Q106.90-5.02 106.90-3.13L106.90-3.13Q106.90 0.14 104.10 0.14L104.10 0.14Q102.97 0.14 102.34-0.23L102.34-0.23L102.34 2.42L100.56 2.42L100.56-5.40Q100.56-6.11 100.43-6.55L100.43-6.55Q101.66-6.32 102.23-6.43L102.23-6.43ZM110.95-1.56Q112.04-1.56 112.25-2.48L112.25-2.48L112.25-4.10Q112.06-4.87 110.95-4.87L110.95-4.87Q109.62-4.87 109.62-3.16L109.62-3.16Q109.62-2.29 109.96-1.91L109.96-1.91Q110.27-1.56 110.95-1.56L110.95-1.56ZM112.42-6.49L113.95-6.49L113.95-0.02L112.38-0.02L112.30-0.34Q111.94 0.13 110.58 0.13L110.58 0.13Q109.24 0.13 108.52-0.77L108.52-0.77Q107.82-1.63 107.82-3.16L107.82-3.16Q107.82-4.78 108.56-5.68L108.56-5.68Q109.30-6.55 110.58-6.55L110.58-6.55Q111.90-6.55 112.30-6.19L112.30-6.19L112.42-6.49ZM119.76-2.82L121.38-2.46Q121.12-1.01 120.43-0.44L120.43-0.44Q119.76 0.12 118.28 0.12L118.28 0.12Q115.25 0.12 115.25-3.11L115.25-3.11Q115.25-4.76 116.03-5.64L116.03-5.64Q116.82-6.52 118.31-6.52L118.31-6.52Q119.53-6.52 120.23-6.04L120.23-6.04Q120.94-5.53 121.32-4.36L121.32-4.36L119.75-3.85Q119.60-4.49 119.28-4.74L119.28-4.74Q118.98-4.98 118.39-4.98L118.39-4.98Q117.67-4.98 117.34-4.57L117.34-4.57Q116.99-4.14 116.99-3.16L116.99-3.16Q116.99-1.44 118.37-1.44L118.37-1.44Q119.02-1.44 119.32-1.73L119.32-1.73Q119.64-2.03 119.76-2.82L119.76-2.82ZM124.22-3.98L126.88-3.98Q126.73-5.02 125.57-5.02L125.57-5.02Q124.32-5.02 124.22-3.98L124.22-3.98ZM128.38-2.69L124.14-2.69Q124.18-2.02 124.52-1.74L124.52-1.74Q124.87-1.46 125.65-1.46L125.65-1.46Q126.34-1.46 126.66-1.66L126.66-1.66Q127.00-1.86 127.13-2.38L127.13-2.38L128.72-2.10Q128.41-0.88 127.67-0.38L127.67-0.38Q126.97 0.08 125.60 0.08L125.60 0.08Q124.00 0.08 123.13-0.79L123.13-0.79Q122.29-1.64 122.29-3.19L122.29-3.19Q122.29-6.54 125.59-6.54L125.59-6.54Q127.20-6.54 127.97-5.75L127.97-5.75Q128.77-4.93 128.78-3.14L128.78-3.14Q128.80-2.69 128.38-2.69L128.38-2.69Z" transform="translate(-0.5760000000000001, 9.672)"/>
          </g>
        </g>
      </g>
    </g>
  </g>
</svg>