<svg xmlns="http://www.w3.org/2000/svg" viewBox="0 0 37.77 122.8"><defs><style>.cls-1{fill:#89d9d4;}</style></defs><g id="图层_2" data-name="图层 2"><g id="图层_1-2" data-name="图层 1"><path class="cls-1" d="M-6.66,12.66H44.43a6,6,0,0,1,6,6V40.43a10,10,0,0,1-10,10H-2.66a10,10,0,0,1-10-10V18.66a6,6,0,0,1,6-6Z" transform="translate(50.43 12.66) rotate(90)"/><path class="cls-1" d="M4.16,79.2H33.6a10,10,0,0,1,10,10V111a6,6,0,0,1-6,6H.16a6,6,0,0,1-6-6V89.2A10,10,0,0,1,4.16,79.2Z" transform="translate(116.96 79.2) rotate(90)"/></g></g></svg>