<svg xmlns="http://www.w3.org/2000/svg" viewBox="0 0 23.52 70.68"><defs><style>.cls-1{fill:#89d9d4;}</style></defs><g id="图层_2" data-name="图层 2"><g id="图层_1-2" data-name="图层 1"><path class="cls-1" d="M-10.7,12.7H19.74a2,2,0,0,1,2,2v3a4,4,0,0,1-4,4H-10.7a2,2,0,0,1-2-2v-5A2,2,0,0,1-10.7,12.7Z" transform="translate(21.74 12.7) rotate(90)"/><path class="cls-1" d="M-8.65,51H15.69a4,4,0,0,1,4,4v3a2,2,0,0,1-2,2H-8.65a2,2,0,0,1-2-2V53A2,2,0,0,1-8.65,51Z" transform="translate(60.02 50.98) rotate(90)"/><path class="cls-1" d="M10,6.51H28a2,2,0,0,1,2,2v5a2,2,0,0,1-2,2H12a4,4,0,0,1-4-4v-3A2,2,0,0,1,10,6.51Z" transform="translate(30.03 -8.03) rotate(90)"/><rect class="cls-1" x="9.68" y="32.82" width="18.7" height="8.99" rx="2" transform="translate(56.34 18.28) rotate(90)"/><path class="cls-1" d="M14.12,57.27H25.94a2,2,0,0,1,2,2v5a2,2,0,0,1-2,2H12.12a2,2,0,0,1-2-2v-3A4,4,0,0,1,14.12,57.27Z" transform="translate(80.79 42.73) rotate(90)"/></g></g></svg>