<!--
  - Copyright (c) 2023, Terwer . All rights reserved.
  - DO NOT ALTER OR REMOVE COPYRIGHT NOTICES OR THIS FILE HEADER.
  -
  - This code is free software; you can redistribute it and/or modify it
  - under the terms of the GNU General Public License version 2 only, as
  - published by the Free Software Foundation.  Terwer designates this
  - particular file as subject to the "Classpath" exception as provided
  - by Terwer in the LICENSE file that accompanied this code.
  -
  - This code is distributed in the hope that it will be useful, but WITHOUT
  - ANY WARRANTY; without even the implied warranty of MERCHANTABILITY or
  - FITNESS FOR A PARTICULAR PURPOSE.  See the GNU General Public License
  - version 2 for more details (a copy is included in the LICENSE file that
  - accompanied this code).
  -
  - You should have received a copy of the GNU General Public License version
  - 2 along with this work; if not, write to the Free Software Foundation,
  - Inc., 51 Franklin St, Fifth Floor, Boston, MA 02110-1301 USA.
  -
  - Please contact Terwer, Shenzhen, Guangdong, China, youweics@163.com
  - or visit www.terwer.space if you need additional information or have any
  - questions.
  -->

<svg xmlns="http://www.w3.org/2000/svg" viewBox="0 0 512 512"><!--! Font Awesome Free 6.3.0 by @fontawesome - https://fontawesome.com License - https://fontawesome.com/license/free (Icons: CC BY 4.0, Fonts: SIL OFL 1.1, Code: MIT License) Copyright 2023 Fonticons, Inc. --><path d="M447.8,64H64c-23.6,0-42.7,19.1-42.7,42.7v63.9H64v-63.9h383.8v298.6H298.6V448H448c23.6,0,42.7-19.1,42.7-42.7V106.7 C490.7,83.1,471.4,64,447.8,64z M21.3,383.6L21.3,383.6l0,63.9h63.9C85.2,412.2,56.6,383.6,21.3,383.6L21.3,383.6z M21.3,298.6V341 c58.9,0,106.6,48.1,106.6,107h42.7C170.7,365.6,103.7,298.7,21.3,298.6z M213.4,448h42.7c-0.5-129.5-105.3-234.3-234.8-234.6l0,42.4 C127.3,255.6,213.3,342,213.4,448z"/></svg>