<!--
  - Copyright (c) 2023, Terwer . All rights reserved.
  - DO NOT ALTER OR REMOVE COPYRIGHT NOTICES OR THIS FILE HEADER.
  -
  - This code is free software; you can redistribute it and/or modify it
  - under the terms of the GNU General Public License version 2 only, as
  - published by the Free Software Foundation.  Terwer designates this
  - particular file as subject to the "Classpath" exception as provided
  - by Terwer in the LICENSE file that accompanied this code.
  -
  - This code is distributed in the hope that it will be useful, but WITHOUT
  - ANY WARRANTY; without even the implied warranty of MERCHANTABILITY or
  - FITNESS FOR A PARTICULAR PURPOSE.  See the GNU General Public License
  - version 2 for more details (a copy is included in the LICENSE file that
  - accompanied this code).
  -
  - You should have received a copy of the GNU General Public License version
  - 2 along with this work; if not, write to the Free Software Foundation,
  - Inc., 51 Franklin St, Fifth Floor, Boston, MA 02110-1301 USA.
  -
  - Please contact Terwer, Shenzhen, Guangdong, China, youweics@163.com
  - or visit www.terwer.space if you need additional information or have any
  - questions.
  -->

<svg xmlns="http://www.w3.org/2000/svg" viewBox="0 0 640 512"><!--! Font Awesome Free 6.3.0 by @fontawesome - https://fontawesome.com License - https://fontawesome.com/license/free (Icons: CC BY 4.0, Fonts: SIL OFL 1.1, Code: MIT License) Copyright 2023 Fonticons, Inc. --><path d="M87.2 53.5H0v405h100.4c-49.7-52.6-78.8-125.3-78.7-212.1-.1-76.7 24-142.7 65.5-192.9zm238.2 9.7c-45.9.1-85.1 33.5-89.2 83.2h169.9c-1.1-49.7-34.5-83.1-80.7-83.2zm230.7-9.6h.3l-.1-.1zm.3 0c31.4 42.7 48.7 97.5 46.2 162.7.5 6 .5 11.7 0 24.1H230.2c-.2 109.7 38.9 194.9 138.6 195.3 68.5-.3 118-51 151.9-106.1l96.4 48.2c-17.4 30.9-36.5 57.8-57.9 80.8H640v-405z"/></svg>