<!--
  - Copyright (c) 2023, Terwer . All rights reserved.
  - DO NOT ALTER OR REMOVE COPYRIGHT NOTICES OR THIS FILE HEADER.
  -
  - This code is free software; you can redistribute it and/or modify it
  - under the terms of the GNU General Public License version 2 only, as
  - published by the Free Software Foundation.  Terwer designates this
  - particular file as subject to the "Classpath" exception as provided
  - by Terwer in the LICENSE file that accompanied this code.
  -
  - This code is distributed in the hope that it will be useful, but WITHOUT
  - ANY WARRANTY; without even the implied warranty of MERCHANTABILITY or
  - FITNESS FOR A PARTICULAR PURPOSE.  See the GNU General Public License
  - version 2 for more details (a copy is included in the LICENSE file that
  - accompanied this code).
  -
  - You should have received a copy of the GNU General Public License version
  - 2 along with this work; if not, write to the Free Software Foundation,
  - Inc., 51 Franklin St, Fifth Floor, Boston, MA 02110-1301 USA.
  -
  - Please contact Terwer, Shenzhen, Guangdong, China, youweics@163.com
  - or visit www.terwer.space if you need additional information or have any
  - questions.
  -->

<svg xmlns="http://www.w3.org/2000/svg" viewBox="0 0 448 512"><!--! Font Awesome Free 6.3.0 by @fontawesome - https://fontawesome.com License - https://fontawesome.com/license/free (Icons: CC BY 4.0, Fonts: SIL OFL 1.1, Code: MIT License) Copyright 2023 Fonticons, Inc. --><path d="M0 32v448h448V32zm187 140.9c-18.4 0-19 9.9-19 27.4v23.3c0 2.4-3.5 4.4-.6 4.4h67.4l-11.1 37.3H168v112.9c0 5.8-2 6.7 3.2 7.3l43.5 4.1v25.1H84V389l21.3-2c5.2-.6 6.7-2.3 6.7-7.9V267.7c0-2.3-2.9-2.3-5.8-2.3H84V228h28v-21c0-49.6 26.5-70 77.3-70 34.1 0 64.7 8.2 64.7 52.8l-50.7 6.1c.3-18.7-4.4-23-16.3-23zm74.3 241.8v-25.1l20.4-2.6c5.2-.6 7.6-1.7 7.6-7.3V271.8c0-4.1-2.9-6.7-6.7-7.9l-24.2-6.4 6.7-29.5h80.2v151.7c0 5.8-2.6 6.4 2.9 7.3l15.7 2.6v25.1zm80.8-255.5l9 33.2-7.3 7.3-31.2-16.6-31.2 16.6-7.3-7.3 9-33.2-21.8-24.2 3.5-9.6h27.7l15.5-28h9.3l15.5 28h27.7l3.5 9.6z"/></svg>