<!--
  - Copyright (c) 2023, Terwer . All rights reserved.
  - DO NOT ALTER OR REMOVE COPYRIGHT NOTICES OR THIS FILE HEADER.
  -
  - This code is free software; you can redistribute it and/or modify it
  - under the terms of the GNU General Public License version 2 only, as
  - published by the Free Software Foundation.  Terwer designates this
  - particular file as subject to the "Classpath" exception as provided
  - by Terwer in the LICENSE file that accompanied this code.
  -
  - This code is distributed in the hope that it will be useful, but WITHOUT
  - ANY WARRANTY; without even the implied warranty of MERCHANTABILITY or
  - FITNESS FOR A PARTICULAR PURPOSE.  See the GNU General Public License
  - version 2 for more details (a copy is included in the LICENSE file that
  - accompanied this code).
  -
  - You should have received a copy of the GNU General Public License version
  - 2 along with this work; if not, write to the Free Software Foundation,
  - Inc., 51 Franklin St, Fifth Floor, Boston, MA 02110-1301 USA.
  -
  - Please contact Terwer, Shenzhen, Guangdong, China, youweics@163.com
  - or visit www.terwer.space if you need additional information or have any
  - questions.
  -->

<svg xmlns="http://www.w3.org/2000/svg" viewBox="0 0 448 512"><!--! Font Awesome Free 6.3.0 by @fontawesome - https://fontawesome.com License - https://fontawesome.com/license/free (Icons: CC BY 4.0, Fonts: SIL OFL 1.1, Code: MIT License) Copyright 2023 Fonticons, Inc. --><path d="M392 32H56C25.1 32 0 57.1 0 88v336c0 30.9 25.1 56 56 56h336c30.9 0 56-25.1 56-56V88c0-30.9-25.1-56-56-56zm-108.3 82.1c0-19.8 29.9-19.8 29.9 0v199.5c0 19.8-29.9 19.8-29.9 0V114.1zm-74.6-7.5c0-19.8 29.9-19.8 29.9 0v216.5c0 19.8-29.9 19.8-29.9 0V106.6zm-74.7 7.5c0-19.8 29.9-19.8 29.9 0v199.5c0 19.8-29.9 19.8-29.9 0V114.1zM59.7 144c0-19.8 29.9-19.8 29.9 0v134.3c0 19.8-29.9 19.8-29.9 0V144zm323.4 227.8c-72.8 63-241.7 65.4-318.1 0-15-12.8 4.4-35.5 19.4-22.7 65.9 55.3 216.1 53.9 279.3 0 14.9-12.9 34.3 9.8 19.4 22.7zm5.2-93.5c0 19.8-29.9 19.8-29.9 0V144c0-19.8 29.9-19.8 29.9 0v134.3z"/></svg>