<!--
  - Copyright (c) 2023, Terwer . All rights reserved.
  - DO NOT ALTER OR REMOVE COPYRIGHT NOTICES OR THIS FILE HEADER.
  -
  - This code is free software; you can redistribute it and/or modify it
  - under the terms of the GNU General Public License version 2 only, as
  - published by the Free Software Foundation.  Terwer designates this
  - particular file as subject to the "Classpath" exception as provided
  - by Terwer in the LICENSE file that accompanied this code.
  -
  - This code is distributed in the hope that it will be useful, but WITHOUT
  - ANY WARRANTY; without even the implied warranty of MERCHANTABILITY or
  - FITNESS FOR A PARTICULAR PURPOSE.  See the GNU General Public License
  - version 2 for more details (a copy is included in the LICENSE file that
  - accompanied this code).
  -
  - You should have received a copy of the GNU General Public License version
  - 2 along with this work; if not, write to the Free Software Foundation,
  - Inc., 51 Franklin St, Fifth Floor, Boston, MA 02110-1301 USA.
  -
  - Please contact Terwer, Shenzhen, Guangdong, China, youweics@163.com
  - or visit www.terwer.space if you need additional information or have any
  - questions.
  -->

<svg xmlns="http://www.w3.org/2000/svg" viewBox="0 0 448 512"><!--! Font Awesome Free 6.3.0 by @fontawesome - https://fontawesome.com License - https://fontawesome.com/license/free (Icons: CC BY 4.0, Fonts: SIL OFL 1.1, Code: MIT License) Copyright 2023 Fonticons, Inc. --><path d="M433.754 420.445c-11.526 1.393-44.86-52.741-44.86-52.741 0 31.345-16.136 72.247-51.051 101.786 16.842 5.192 54.843 19.167 45.803 34.421-7.316 12.343-125.51 7.881-159.632 4.037-34.122 3.844-152.316 8.306-159.632-4.037-9.045-15.25 28.918-29.214 45.783-34.415-34.92-29.539-51.059-70.445-51.059-101.792 0 0-33.334 54.134-44.859 52.741-5.37-.65-12.424-29.644 9.347-99.704 10.261-33.024 21.995-60.478 40.144-105.779C60.683 98.063 108.982.006 224 0c113.737.006 163.156 96.133 160.264 214.963 18.118 45.223 29.912 72.85 40.144 105.778 21.768 70.06 14.716 99.053 9.346 99.704z"/></svg>