<!--
  - Copyright (c) 2023, Terwer . All rights reserved.
  - DO NOT ALTER OR REMOVE COPYRIGHT NOTICES OR THIS FILE HEADER.
  -
  - This code is free software; you can redistribute it and/or modify it
  - under the terms of the GNU General Public License version 2 only, as
  - published by the Free Software Foundation.  Terwer designates this
  - particular file as subject to the "Classpath" exception as provided
  - by Terwer in the LICENSE file that accompanied this code.
  -
  - This code is distributed in the hope that it will be useful, but WITHOUT
  - ANY WARRANTY; without even the implied warranty of MERCHANTABILITY or
  - FITNESS FOR A PARTICULAR PURPOSE.  See the GNU General Public License
  - version 2 for more details (a copy is included in the LICENSE file that
  - accompanied this code).
  -
  - You should have received a copy of the GNU General Public License version
  - 2 along with this work; if not, write to the Free Software Foundation,
  - Inc., 51 Franklin St, Fifth Floor, Boston, MA 02110-1301 USA.
  -
  - Please contact Terwer, Shenzhen, Guangdong, China, youweics@163.com
  - or visit www.terwer.space if you need additional information or have any
  - questions.
  -->

<svg xmlns="http://www.w3.org/2000/svg" viewBox="0 0 448 512"><!--! Font Awesome Free 6.3.0 by @fontawesome - https://fontawesome.com License - https://fontawesome.com/license/free (Icons: CC BY 4.0, Fonts: SIL OFL 1.1, Code: MIT License) Copyright 2023 Fonticons, Inc. --><path d="M353.2 32H94.8C42.4 32 0 74.4 0 126.8v258.4C0 437.6 42.4 480 94.8 480h258.4c52.4 0 94.8-42.4 94.8-94.8V126.8c0-52.4-42.4-94.8-94.8-94.8zM144.9 200.9v56.3c0 27-21.9 48.9-48.9 48.9V151.9c0-13.2 10.7-23.9 23.9-23.9h154.2c0 27-21.9 48.9-48.9 48.9h-56.3c-12.3-.6-24.6 11.6-24 24zm176.3 72h-56.3c-12.3-.6-24.6 11.6-24 24v56.3c0 27-21.9 48.9-48.9 48.9V247.9c0-13.2 10.7-23.9 23.9-23.9h154.2c0 27-21.9 48.9-48.9 48.9z"/></svg>