<!--
  - Copyright (c) 2023, Terwer . All rights reserved.
  - DO NOT ALTER OR REMOVE COPYRIGHT NOTICES OR THIS FILE HEADER.
  -
  - This code is free software; you can redistribute it and/or modify it
  - under the terms of the GNU General Public License version 2 only, as
  - published by the Free Software Foundation.  Terwer designates this
  - particular file as subject to the "Classpath" exception as provided
  - by Terwer in the LICENSE file that accompanied this code.
  -
  - This code is distributed in the hope that it will be useful, but WITHOUT
  - ANY WARRANTY; without even the implied warranty of MERCHANTABILITY or
  - FITNESS FOR A PARTICULAR PURPOSE.  See the GNU General Public License
  - version 2 for more details (a copy is included in the LICENSE file that
  - accompanied this code).
  -
  - You should have received a copy of the GNU General Public License version
  - 2 along with this work; if not, write to the Free Software Foundation,
  - Inc., 51 Franklin St, Fifth Floor, Boston, MA 02110-1301 USA.
  -
  - Please contact Terwer, Shenzhen, Guangdong, China, youweics@163.com
  - or visit www.terwer.space if you need additional information or have any
  - questions.
  -->

<svg xmlns="http://www.w3.org/2000/svg" viewBox="0 0 448 512"><!--! Font Awesome Free 6.3.0 by @fontawesome - https://fontawesome.com License - https://fontawesome.com/license/free (Icons: CC BY 4.0, Fonts: SIL OFL 1.1, Code: MIT License) Copyright 2023 Fonticons, Inc. --><path d="M384.5,32.5h-320c-35.3,0-64,28.7-64,64v320c0,35.3,28.7,64,64,64h320c35.3,0,64-28.7,64-64v-320 C448.5,61.2,419.8,32.5,384.5,32.5z M336.5,312.5c-31.6,11.2-41.2,16-59.8,16c-31.4,0-43.2-16-74.6-16c-10.2,0-18.2,1.6-25.6,4v-32 c7.4-2.2,15.4-4,25.6-4c31.2,0,43.2,16,74.6,16c10.2,0,17.8-1.4,27.8-4.6v-96c-10,3.2-17.6,4.6-27.8,4.6c-31.4,0-43.2-16-74.6-16 c-25.4,0-37.4,10.4-57.6,14.4v153.6c0,8.8-7.2,16-16,16c-8.8,0-16-7.2-16-16v-192c0-8.8,7.2-16,16-16c8.8,0,16,7.2,16,16v6.4 c20.2-4,32.2-14.4,57.6-14.4c31.2,0,43.2,16,74.6,16c18.6,0,28.2-4.8,59.8-16V312.5z"/></svg>