<!--
  - Copyright (c) 2023, Terwer . All rights reserved.
  - DO NOT ALTER OR REMOVE COPYRIGHT NOTICES OR THIS FILE HEADER.
  -
  - This code is free software; you can redistribute it and/or modify it
  - under the terms of the GNU General Public License version 2 only, as
  - published by the Free Software Foundation.  Terwer designates this
  - particular file as subject to the "Classpath" exception as provided
  - by Terwer in the LICENSE file that accompanied this code.
  -
  - This code is distributed in the hope that it will be useful, but WITHOUT
  - ANY WARRANTY; without even the implied warranty of MERCHANTABILITY or
  - FITNESS FOR A PARTICULAR PURPOSE.  See the GNU General Public License
  - version 2 for more details (a copy is included in the LICENSE file that
  - accompanied this code).
  -
  - You should have received a copy of the GNU General Public License version
  - 2 along with this work; if not, write to the Free Software Foundation,
  - Inc., 51 Franklin St, Fifth Floor, Boston, MA 02110-1301 USA.
  -
  - Please contact Terwer, Shenzhen, Guangdong, China, youweics@163.com
  - or visit www.terwer.space if you need additional information or have any
  - questions.
  -->

<svg xmlns="http://www.w3.org/2000/svg" viewBox="0 0 448 512"><!--! Font Awesome Free 6.3.0 by @fontawesome - https://fontawesome.com License - https://fontawesome.com/license/free (Icons: CC BY 4.0, Fonts: SIL OFL 1.1, Code: MIT License) Copyright 2023 Fonticons, Inc. --><path d="M224,202.66A53.34,53.34,0,1,0,277.36,256,53.38,53.38,0,0,0,224,202.66Zm124.71-41a54,54,0,0,0-30.41-30.41c-21-8.29-71-6.43-94.3-6.43s-73.25-1.93-94.31,6.43a54,54,0,0,0-30.41,30.41c-8.28,21-6.43,71.05-6.43,94.33S91,329.26,99.32,350.33a54,54,0,0,0,30.41,30.41c21,8.29,71,6.43,94.31,6.43s73.24,1.93,94.3-6.43a54,54,0,0,0,30.41-30.41c8.35-21,6.43-71.05,6.43-94.33S357.1,182.74,348.75,161.67ZM224,338a82,82,0,1,1,82-82A81.9,81.9,0,0,1,224,338Zm85.38-148.3a19.14,19.14,0,1,1,19.13-19.14A19.1,19.1,0,0,1,309.42,189.74ZM400,32H48A48,48,0,0,0,0,80V432a48,48,0,0,0,48,48H400a48,48,0,0,0,48-48V80A48,48,0,0,0,400,32ZM382.88,322c-1.29,25.63-7.14,48.34-25.85,67s-41.4,24.63-67,25.85c-26.41,1.49-105.59,1.49-132,0-25.63-1.29-48.26-7.15-67-25.85s-24.63-41.42-25.85-67c-1.49-26.42-1.49-105.61,0-132,1.29-25.63,7.07-48.34,25.85-67s41.47-24.56,67-25.78c26.41-1.49,105.59-1.49,132,0,25.63,1.29,48.33,7.15,67,25.85s24.63,41.42,25.85,67.05C384.37,216.44,384.37,295.56,382.88,322Z"/></svg>