<!--
  - Copyright (c) 2023, Terwer . All rights reserved.
  - DO NOT ALTER OR REMOVE COPYRIGHT NOTICES OR THIS FILE HEADER.
  -
  - This code is free software; you can redistribute it and/or modify it
  - under the terms of the GNU General Public License version 2 only, as
  - published by the Free Software Foundation.  Terwer designates this
  - particular file as subject to the "Classpath" exception as provided
  - by Terwer in the LICENSE file that accompanied this code.
  -
  - This code is distributed in the hope that it will be useful, but WITHOUT
  - ANY WARRANTY; without even the implied warranty of MERCHANTABILITY or
  - FITNESS FOR A PARTICULAR PURPOSE.  See the GNU General Public License
  - version 2 for more details (a copy is included in the LICENSE file that
  - accompanied this code).
  -
  - You should have received a copy of the GNU General Public License version
  - 2 along with this work; if not, write to the Free Software Foundation,
  - Inc., 51 Franklin St, Fifth Floor, Boston, MA 02110-1301 USA.
  -
  - Please contact Terwer, Shenzhen, Guangdong, China, youweics@163.com
  - or visit www.terwer.space if you need additional information or have any
  - questions.
  -->

<svg xmlns="http://www.w3.org/2000/svg" viewBox="0 0 496 512"><!--! Font Awesome Free 6.3.0 by @fontawesome - https://fontawesome.com License - https://fontawesome.com/license/free (Icons: CC BY 4.0, Fonts: SIL OFL 1.1, Code: MIT License) Copyright 2023 Fonticons, Inc. --><path d="M256 8C119 8 8 119 8 256s111 248 248 248 248-111 248-248S393 8 256 8zm0 177.5c-9.8 0-17.8 8-17.8 17.8v106.9c0 40.9-33.9 73.9-74.9 73.9-41.4 0-74.9-33.5-74.9-74.9v-46.5h57.3v45.8c0 10 8 17.8 17.8 17.8s17.8-7.9 17.8-17.8V200.1c0-40 34.2-72.1 74.7-72.1 40.7 0 74.7 32.3 74.7 72.6v23.7l-34.1 10.1-22.9-10.7v-20.6c.1-9.6-7.9-17.6-17.7-17.6zm167.6 123.6c0 41.4-33.5 74.9-74.9 74.9-41.2 0-74.9-33.2-74.9-74.2V263l22.9 10.7 34.1-10.1v47.1c0 9.8 8 17.6 17.8 17.6s17.8-7.9 17.8-17.6v-48h57.3c-.1 45.9-.1 46.4-.1 46.4z"/></svg>